<svg xmlns="http://www.w3.org/2000/svg" viewBox="0 0 75 52"><g fill="none"><path fill="#D6002D" d="M75 32.041V52H.079V32.045l7.831-.004 8.535 18.227 7.288-18.223L75 32.041zM74.87 0v8.16H0V0h74.87z"/><path fill="#002D69" d="M28.204 14.69L16.51 45.383 9.676 32.241l6.23 5.679 12.298-23.23zM12.015 10.21c1.982 0 3.505.486 4.564 1.461 1.064.978 1.595 2.187 1.595 3.625 0 1.206-.381 2.242-1.14 3.107-.506.577-1.245 1.032-2.22 1.367 1.484.354 2.574.964 3.276 1.827.697.865 1.048 1.95 1.048 3.258 0 1.065-.249 2.023-.745 2.872a5.462 5.462 0 01-2.036 2.02c-.53.307-1.337.531-2.411.672-1.339.174-2.255.266-2.751.278l-.1.002H.118v-20.49h11.897zm20.955-.284l6.757 20.606h-5.594L26.796 9.925h6.174zm23.333.042v4.422H47.02v3.553h7.926v4.15h-7.926v8.366h-6.39V9.967h15.674zm18.368 0v4.392H64.003v3.22h9.884v4.182h-9.884v4.033h10.97v4.664h-17.33V9.967H74.67zm-64.9 12.156H6.54v4.152h3.246c1.096 0 1.87-.195 2.317-.582.45-.385.676-.904.676-1.557 0-.605-.225-1.094-.667-1.462-.446-.367-1.226-.55-2.34-.55zm-.437-7.763H6.539v3.852h2.754c.988 0 1.674-.169 2.062-.506.386-.338.579-.824.579-1.46 0-.592-.193-1.056-.579-1.386-.388-.333-1.06-.5-2.021-.5z"/></g></svg>