<svg xmlns="http://www.w3.org/2000/svg" width="75" height="52" viewBox="0 0 75 52">
  <path fill="#CCC" d="M955,46.0409806 L955,66 L880.078965,66 L880.078965,46.0453296 L887.910129,46.0409806 L896.445443,64.2680257 L903.732564,46.0453296 L955,46.0409806 Z M908.204169,28.690795 L896.508615,59.3819664 L889.676225,46.2410329 L895.906302,51.9196906 L908.204169,28.690795 Z M892.015227,24.2086457 C893.996979,24.2086457 895.52019,24.6951858 896.579412,25.6704406 C897.64299,26.6478699 898.173963,27.8568815 898.173963,29.2947572 C898.173963,30.5010507 897.792752,31.5371909 897.034687,32.4020908 C896.528221,32.9794156 895.789216,33.4338822 894.814405,33.7687523 C896.29786,34.1231927 897.387579,34.7331347 898.089552,35.5958601 C898.787168,36.46076 899.137882,37.5458261 899.137882,38.8543202 C899.137882,39.9187288 898.889006,40.8765877 898.392887,41.7262663 C897.896768,42.5781193 897.218757,43.2505776 896.356676,43.7458157 C895.826248,44.0529612 895.020259,44.2774763 893.945788,44.418274 C892.607483,44.5917976 891.691391,44.6843435 891.194854,44.6963537 L891.094874,44.6976948 L880.118175,44.6976948 L880.118175,24.2086457 L892.015227,24.2086457 Z M912.969852,23.9254195 L919.726545,44.531347 L914.13309,44.531347 L906.795867,23.9254195 L912.969852,23.9254195 Z M936.303233,23.9667346 L936.303233,28.3890858 L927.018567,28.3890858 L927.018567,31.9421881 L934.945033,31.9421881 L934.945033,36.0916418 L927.018567,36.0916418 L927.018567,44.4579583 L920.628381,44.4579583 L920.628381,23.9667346 L936.303233,23.9667346 Z M954.671069,23.9667346 L954.671069,28.358643 L944.002607,28.358643 L944.002607,31.5785061 L953.886864,31.5785061 L953.886864,35.7611207 L944.002607,35.7611207 L944.002607,39.7936961 L954.972226,39.7936961 L954.972226,44.4579583 L937.642373,44.4579583 L937.642373,23.9667346 L954.671069,23.9667346 Z M889.771528,36.1231718 L886.539403,36.1231718 L886.539403,40.2753437 L889.784598,40.2748001 C890.880852,40.2748001 891.654165,40.080184 892.102361,39.6931263 C892.552734,39.3082432 892.778193,38.7890858 892.778193,38.1361978 C892.778193,37.5306048 892.552734,37.0418901 892.111074,36.6744028 C891.665057,36.3069155 890.885208,36.1231718 889.771528,36.1231718 Z M889.333679,28.3602739 L886.539403,28.3602739 L886.539403,32.2118237 L889.292835,32.2118237 C890.280717,32.2118237 890.967441,32.0433014 891.355187,31.7057132 C891.740755,31.368125 891.933539,30.8821285 891.933539,30.2460927 C891.933539,29.6535466 891.740755,29.1903821 891.355187,28.859861 C890.966896,28.5266217 890.29542,28.3602739 889.333679,28.3602739 Z M954.870933,14 L954.870933,22.160828 L880,22.160828 L880,14 L954.870933,14 Z" transform="translate(-880 -14)"/>
</svg>
