<svg xmlns="http://www.w3.org/2000/svg" width="82" height="52" viewBox="0 0 82 52">
  <path fill="#CCC" d="M142.577562,16.4488135 C143.977657,16.9938763 146.014407,17.6997635 146.050991,18.9725669 C146.116802,21.2582665 141.280702,21.8147864 138.827435,21.35544 C136.91831,20.9981469 135.449251,20.0020122 133.826074,19.5331181 C124.859706,16.9425314 117.642247,21.7479531 113.126367,25.982003 C108.686811,30.1441275 103.65223,36.6833965 103.679353,45.1877773 C103.724348,59.3337389 118.898947,62.8005847 133.408926,60.4684201 C144.946096,58.6149094 153.572691,53.9756162 161.610359,48.1316259 C162.683926,47.3506308 164.039657,46.6243754 164.389313,45.1875651 C165.123948,42.1675478 162.992162,39.7140224 161.749128,37.6175778 C160.448694,35.4245963 158.737841,32.3040107 159.387953,29.3465833 C160.090208,26.1517384 164.155088,23.5081094 167.028867,22.7576667 C169.755468,22.0458388 174.688285,22.6246365 174.808761,24.8604763 C174.885925,26.2909215 173.147528,26.8465928 172.307766,27.3840175 C171.343321,28.0012179 170.165046,28.8165844 169.94638,30.0475905 C169.470571,32.7211355 171.234198,34.9285445 172.307766,36.7769632 C173.673379,39.1263135 175.619719,41.9715034 174.808761,45.7491772 C174.121434,48.9472045 170.435856,51.1232125 167.862743,52.8982206 C159.516209,58.6571311 149.790605,63.0106323 137.993559,64.9545271 C120.976697,67.7585561 101.851177,65.1855794 95.3435422,54.0197474 C92.7546596,49.5773473 92.3400346,43.7426924 93.9543805,38.3187973 C95.4202856,33.3926512 98.4978033,29.2687171 101.039378,26.4027347 C105.454545,21.4241828 111.096555,17.6074699 118.544035,15.4681671 C120.93843,14.7796779 123.765954,14.283414 126.879215,14.0657283 C131.730242,13.7262575 138.159451,14.7287572 142.577562,16.4488135 Z M130.352434,29.7666784 C131.813714,37.1705372 132.994091,44.8580662 134.242171,52.4772768 C132.313493,52.8205667 130.689685,53.4719263 128.824083,53.8792913 C128.263751,50.8932211 127.725495,47.884873 127.295942,44.7670456 C124.930772,45.0443509 122.939647,45.6986809 120.627252,46.0283919 C120.81522,48.6936623 121.600737,51.9589473 122.016413,54.8605742 C120.293155,55.4578307 118.389707,55.8736824 116.598115,56.4028326 C115.208953,49.0195543 114.137699,41.3159003 112.708378,33.9722976 C114.321463,33.1700856 116.482474,32.9209989 118.265656,32.2900075 C118.619727,35.3908614 119.311049,38.1511835 119.654607,41.2620093 C121.883742,40.8007533 124.209594,40.4373074 126.323298,39.8604191 C126.093068,37.3816456 125.467556,34.0885664 124.934136,31.4487564 C126.528928,30.6749751 128.677955,30.4604719 130.352434,29.7666784 Z M143.133058,26.4023103 C148.238285,32.652817 152.785913,39.4659965 157.720412,45.8883602 C156.333563,46.9659679 154.888053,47.9841682 153.274758,48.832421 C152.52919,47.8558058 152.017637,46.6430463 151.190911,45.7487528 C148.319654,46.2626268 145.619126,46.9483579 142.71612,47.4308308 C142.192373,48.4912528 142.087034,49.9734673 141.743686,51.2161427 C139.912146,51.1017834 138.443297,50.6210079 136.603557,50.5151354 C138.673107,42.3688964 141.108713,34.5926806 143.133058,26.4023103 Z M145.077926,36.2157755 C144.733948,38.5318152 144.105913,40.5612142 143.689185,42.8042677 C145.45029,42.5721546 147.019431,42.1459065 148.690336,41.8229849 L147.830076,40.3781486 C146.966564,38.9364485 146.082267,37.5153653 145.077926,36.2157755 Z" transform="translate(-93 -14)"/>
</svg>
