<svg xmlns="http://www.w3.org/2000/svg" width="82" height="52"><path fill="#CCC" d="M49.578 2.449c1.4.545 3.436 1.25 3.473 2.524.066 2.285-4.77 2.842-7.224 2.382-1.909-.357-3.378-1.353-5-1.822-8.967-2.59-16.185 2.215-20.7 6.449-4.44 4.162-9.475 10.701-9.448 19.206.045 14.146 15.22 17.613 29.73 15.28 11.537-1.853 20.164-6.492 28.201-12.336 1.074-.781 2.43-1.508 2.78-2.944.734-3.02-1.398-5.474-2.64-7.57-1.301-2.193-3.012-5.314-2.362-8.271.702-3.195 4.767-5.839 7.64-6.59 2.727-.711 7.66-.132 7.78 2.103.078 1.43-1.66 1.987-2.5 2.524-.965.617-2.143 1.433-2.362 2.664-.475 2.673 1.288 4.88 2.362 6.729 1.365 2.35 3.312 5.195 2.5 8.972-.687 3.198-4.372 5.374-6.945 7.15-8.347 5.758-18.072 10.112-29.87 12.056-17.016 2.804-36.142.23-42.65-10.935C-.244 35.577-.66 29.743.955 24.319c1.466-4.926 4.544-9.05 7.085-11.916 4.416-4.979 10.058-8.796 17.505-10.935C27.938.78 30.766.283 33.879.066c4.851-.34 11.28.663 15.699 2.383zM37.352 15.767c1.462 7.404 2.642 15.091 3.89 22.71-1.929.344-3.552.995-5.418 1.402-.56-2.986-1.099-5.994-1.528-9.112-2.365.277-4.356.932-6.669 1.261.188 2.666.974 5.93 1.39 8.833-1.724.597-3.627 1.013-5.419 1.542-1.389-7.383-2.46-15.087-3.89-22.43 1.613-.803 3.774-1.052 5.558-1.683.354 3.1 1.045 5.861 1.389 8.972 2.229-.461 4.555-.825 6.668-1.402-.23-2.478-.855-5.771-1.389-8.411 1.595-.774 3.744-.989 5.418-1.682zm12.781-3.365c5.105 6.25 9.653 13.064 14.587 19.486-1.386 1.078-2.832 2.096-4.445 2.944-.746-.976-1.257-2.189-2.084-3.083-2.871.514-5.572 1.2-8.475 1.682-.524 1.06-.629 2.542-.972 3.785-1.832-.114-3.3-.595-5.14-.7 2.07-8.147 4.505-15.923 6.53-24.114zm1.945 9.814c-.344 2.316-.972 4.345-1.389 6.588 1.761-.232 3.33-.658 5.001-.981l-.86-1.445c-.863-1.442-1.748-2.863-2.752-4.162z"/></svg>