<svg viewBox="0 0 238 117" xmlns="http://www.w3.org/2000/svg"><path d="M31.656 67.73c21.522 20.81 50.834 33.616 83.137 33.616 5.266 0 10.452-.341 15.539-1l17.242 12.282a135.18 135.18 0 01-32.781 4.01c-41.824 0-79.203-19.031-103.948-48.907zm187.085 0c-17.379 20.983-40.99 36.617-67.995 44.065l3.094-16.968c16.674-5.755 31.678-15.094 44.09-27.096zM29.793 0c11.576 0 19.024 4.857 24.043 11.738l-11.82 9.149c-3.237-3.968-6.961-6.639-12.386-6.639-7.934 0-13.52 6.8-13.52 15.058v.162c0 8.501 5.586 15.139 13.52 15.139 5.909 0 9.392-2.753 12.791-6.881l11.821 8.419c-5.344 7.367-12.548 12.792-25.017 12.792C13.034 58.937 0 46.55 0 29.63v-.162C0 12.953 12.629 0 29.793 0zm172.25.162c9.634 0 17.163 2.59 23.316 7.529l-7.853 11.09c-5.181-3.723-10.848-5.585-15.867-5.585-3.805 0-5.668 1.538-5.668 3.643V17c0 2.59 1.944 3.724 9.877 5.505 12.953 2.833 21.049 7.043 21.049 17.649v.162c0 11.577-9.15 18.458-22.911 18.458-10.038 0-19.511-3.157-26.554-9.391l8.744-10.444c5.666 4.453 11.819 6.8 18.377 6.8 4.29 0 6.557-1.456 6.557-3.885v-.162c0-2.43-1.861-3.643-9.633-5.505-12.064-2.753-21.374-6.153-21.374-17.73v-.162c0-10.524 8.339-18.134 21.94-18.134zm-127.749.97v21.212h20.16V1.133h15.705v56.67H94.454V36.27h-20.16v21.535H58.588V1.133h15.706zm79.183 0l23.955 56.671h-16.839l-4.048-10.2h-21.94l-4.048 10.2h-16.434l23.873-56.67h15.481zm-7.862 18.216l-6.395 16.03h12.711l-6.316-16.03zm84.452-7.185a7.143 7.143 0 017.163 7.164v.04c0 3.912-3.17 7.206-7.163 7.206a7.143 7.143 0 01-7.164-7.164v-.041c0-3.911 3.17-7.205 7.164-7.205zm0 1.727c-3.055 0-5.408 2.493-5.408 5.478v.035c0 2.985 2.318 5.443 5.408 5.443 3.055 0 5.407-2.494 5.407-5.478v-.035c0-2.985-2.317-5.443-5.407-5.443zm.386 2.107c1.685 0 2.81.737 2.81 2.212 0 1.018-.493 1.686-1.3 2.037l1.51 2.212h-2.283l-1.264-1.861h-.597v1.86h-2v-6.46h3.124zm-.07 1.685h-1.054v1.405h1.02c.595 0 .912-.281.912-.702 0-.457-.317-.703-.878-.703z" fill="#6A3885" fill-rule="evenodd"/></svg>