<svg xmlns="http://www.w3.org/2000/svg" width="128" height="60"><path fill="#CCC" fill-rule="evenodd" d="M21.92 55.828c.728 0 1.268.224 1.618.672.273.35.41.797.41 1.342 0 .59-.156 1.08-.47 1.47-.366.459-.89.688-1.57.688-.635 0-1.134-.2-1.497-.602-.324-.387-.486-.876-.486-1.468 0-.534.138-.99.416-1.37.355-.488.882-.732 1.578-.732zm73.219 0c.729 0 1.268.224 1.618.672.274.35.41.797.41 1.342 0 .59-.156 1.08-.469 1.47-.367.459-.89.688-1.57.688-.635 0-1.135-.2-1.498-.602-.324-.387-.486-.876-.486-1.468 0-.534.139-.99.416-1.37.356-.488.882-.732 1.579-.732zm9.862.008c.42 0 .778.1 1.073.3.294.2.441.519.441.958h-.525c-.027-.211-.085-.373-.173-.486-.163-.206-.44-.31-.832-.31-.316 0-.543.067-.681.2a.62.62 0 00-.208.462.45.45 0 00.245.425c.107.057.35.128.727.215l.56.126c.271.06.48.144.627.25.254.185.38.452.38.804 0 .437-.161.75-.486.938a2.212 2.212 0 01-1.13.282c-.5 0-.892-.125-1.175-.376-.283-.25-.422-.587-.417-1.014h.526c.013.224.066.406.16.546.178.262.493.393.944.393.202 0 .386-.029.552-.087.321-.11.482-.31.482-.596 0-.215-.068-.369-.204-.46-.138-.09-.354-.167-.648-.234l-.542-.12c-.353-.08-.604-.166-.751-.262-.254-.164-.381-.41-.381-.739 0-.355.125-.646.375-.873.25-.228.603-.342 1.06-.342zm17.47-.008c.516 0 .917.132 1.202.395.285.264.444.563.475.898h-.545a1.083 1.083 0 00-.363-.605c-.181-.149-.435-.223-.763-.223-.4 0-.721.137-.967.41-.245.274-.368.693-.368 1.258 0 .463.11.838.332 1.126.222.288.553.432.992.432.405 0 .713-.151.925-.454.112-.16.196-.37.251-.63h.545a1.754 1.754 0 01-.477 1.046c-.324.339-.761.508-1.311.508-.474 0-.872-.139-1.194-.416-.424-.368-.636-.936-.636-1.703 0-.583.159-1.061.477-1.434.344-.405.82-.608 1.425-.608zm-115.796.108v2.44c0 .287.056.526.17.716.168.286.451.43.85.43.477 0 .801-.155.974-.465.092-.169.138-.395.138-.68v-2.441h.565v2.217c0 .486-.069.86-.206 1.121-.252.477-.727.715-1.426.715-.7 0-1.174-.238-1.424-.715-.138-.261-.206-.635-.206-1.12v-2.218h.565zm53.442-.108c.516 0 .917.132 1.202.395.285.264.444.563.475.898h-.545a1.08 1.08 0 00-.363-.605c-.181-.149-.436-.223-.763-.223-.4 0-.721.137-.967.41-.245.274-.368.693-.368 1.258 0 .463.11.838.332 1.126.222.288.553.432.992.432.405 0 .713-.151.925-.454.112-.16.196-.37.251-.63h.545a1.755 1.755 0 01-.477 1.046c-.324.339-.761.508-1.311.508-.474 0-.872-.139-1.194-.416-.425-.368-.637-.936-.637-1.703 0-.583.16-1.061.478-1.434.344-.405.82-.608 1.425-.608zm22.275 0c.516 0 .917.132 1.202.395.285.264.443.563.475.898h-.545a1.083 1.083 0 00-.363-.605c-.181-.149-.436-.223-.763-.223-.4 0-.722.137-.967.41-.246.274-.369.693-.369 1.258 0 .463.111.838.333 1.126.222.288.552.432.992.432.405 0 .713-.151.925-.454.112-.16.196-.37.251-.63h.545a1.754 1.754 0 01-.478 1.046c-.324.339-.76.508-1.31.508-.474 0-.873-.139-1.195-.416-.424-.368-.636-.936-.636-1.703 0-.583.16-1.061.478-1.434.344-.405.82-.608 1.425-.608zm-64.973.005c.382 0 .712.072.991.215.404.207.651.568.742 1.084h-.553c-.067-.289-.203-.499-.41-.63-.208-.132-.469-.198-.784-.198-.375 0-.69.137-.946.411-.256.275-.383.683-.383 1.226 0 .47.105.852.316 1.147.211.294.555.442 1.033.442.365 0 .667-.104.907-.31.24-.208.362-.543.368-1.005h-1.293v-.443h1.813v2.113h-.36l-.135-.508c-.186.198-.35.336-.495.413-.241.133-.548.2-.92.2-.48 0-.895-.152-1.241-.455-.378-.38-.567-.901-.567-1.565 0-.66.185-1.187.554-1.577.35-.373.805-.56 1.363-.56zm38.97.103v.47h-1.392v3.479h-.564v-3.48h-1.391v-.47h3.346zm59.256 0l1.185 3.363 1.172-3.363h.626l-1.505 3.949h-.594l-1.502-3.95h.618zm-17.153 0l2.058 3.19v-3.19h.534v3.949h-.628l-2.09-3.187v3.187h-.533v-3.95h.659zm-73.55 0l1.185 3.363 1.172-3.363h.626l-1.506 3.949h-.593l-1.503-3.95h.618zm12.162 0l2.059 3.19v-3.19h.533v3.949h-.628l-2.089-3.187v3.187h-.533v-3.95h.658zm37.55 0v3.949h-.565v-3.95h.565zm5.113 0v3.949h-.565v-3.95h.565zm-6.319 0v.47h-1.39v3.479h-.565v-3.48h-1.391v-.47h3.346zm13.218 0l1.498 3.949h-.613l-.43-1.183H85.5l-.447 1.183h-.574l1.555-3.95h.63zm-45.278 0l1.187 3.338 1.178-3.338h.795v3.949h-.533v-2.331c0-.08.001-.214.005-.4.004-.187.006-.387.006-.6l-1.179 3.33h-.553l-1.19-3.33v.12c0 .073.001.174.005.304l.003.14.008.356v2.41h-.533v-3.948h.8zm69.086 0v.484h-2.45v1.198h2.264v.457h-2.264v1.34h2.492v.47h-3.037v-3.95h2.995zm-60.583 0l2.058 3.19v-3.19h.534v3.949h-.629l-2.088-3.187v3.187h-.534v-3.95h.659zm-39.12 0v1.932l2.065-1.932h.782l-1.764 1.593 1.8 2.356h-.732L11.444 57.9l-.673.608v1.377h-.545v-3.95h.545zm80.474 0v.47h-1.391v3.479h-.565v-3.48h-1.39v-.47h3.346zm-25.641 0v.484h-2.45v1.198h2.264v.457h-2.264v1.34h2.492v.47h-3.037v-3.95h2.995zm12.873 0v.484h-2.303v1.198h2.025v.471h-2.025v1.796h-.56v-3.95h2.863zm-10.14 0c.309 0 .564.043.764.131.38.169.571.48.571.933 0 .237-.051.43-.153.58-.102.151-.245.272-.428.364.16.062.282.145.363.247.082.102.127.268.137.497l.02.53c.005.15.018.262.039.336.034.125.093.206.18.242v.089h-.686a.482.482 0 01-.045-.132 2.402 2.402 0 01-.028-.312l-.034-.659c-.012-.258-.11-.43-.292-.518-.104-.049-.266-.073-.489-.073H67.02v1.694h-.56v-3.95h1.877zm59.62 0v.484h-2.45v1.198h2.265v.457h-2.264v1.34H128v.47h-3.037v-3.95h2.995zm-96.456 0v.484h-2.45v1.198h2.264v.457h-2.264v1.34h2.492v.47h-3.037v-3.95H31.5zm-28.717 0l1.498 3.949H3.67l-.431-1.183h-1.62l-.447 1.183H.6l1.554-3.95h.631zm31.45 0c.308 0 .563.043.764.131.38.169.57.48.57.933 0 .237-.05.43-.152.58-.102.151-.245.272-.429.364a.847.847 0 01.364.247c.082.102.127.268.136.497l.02.53c.006.15.019.262.04.336.033.125.093.206.18.242v.089h-.686a.481.481 0 01-.045-.132 2.402 2.402 0 01-.028-.312l-.034-.659c-.013-.258-.11-.43-.292-.518-.104-.049-.267-.073-.489-.073h-1.237v1.694h-.559v-3.95h1.877zm85.613 0v3.949h-.565v-3.95h.565zm-6.64 0c.31 0 .564.043.764.131.38.169.571.48.571.933 0 .237-.05.43-.153.58-.102.151-.245.272-.428.364a.843.843 0 01.363.247c.082.102.127.268.137.497l.02.53c.005.15.018.262.039.336.033.125.093.206.18.242v.089h-.686a.47.47 0 01-.045-.132 2.402 2.402 0 01-.028-.312l-.034-.659c-.013-.258-.11-.43-.292-.518-.104-.049-.267-.073-.488-.073h-1.237v1.694h-.56v-3.95h1.877zm-64.764 0v.484h-2.45v1.198h2.264v.457h-2.264v1.34h2.492v.47h-3.037v-3.95h2.995zm44.007 0v3.949h-.565v-3.95h.565zm-70.497.368c-.427 0-.775.14-1.045.42-.27.282-.405.696-.405 1.243 0 .437.116.806.348 1.107.23.3.606.45 1.125.45.492 0 .849-.169 1.069-.507.22-.338.33-.727.33-1.166 0-.465-.127-.838-.38-1.122-.254-.284-.602-.425-1.042-.425zm73.22 0c-.428 0-.776.14-1.046.42-.27.282-.404.696-.404 1.243 0 .437.116.806.347 1.107.231.3.606.45 1.125.45.493 0 .849-.169 1.069-.507.22-.338.33-.727.33-1.166 0-.465-.127-.838-.38-1.122-.254-.284-.601-.425-1.041-.425zm-92.728.218l-.66 1.744H3.08l-.635-1.744zm83.881 0l-.66 1.744h1.296l-.636-1.744zm26.892-.127h-1.328v1.35h1.257c.255 0 .456-.05.605-.15.148-.101.222-.282.222-.544 0-.281-.103-.473-.31-.575a1.035 1.035 0 00-.446-.08zm-44.87 0H67.02v1.35h1.257c.255 0 .457-.05.605-.15.148-.101.223-.282.223-.544 0-.281-.104-.473-.312-.575a1.033 1.033 0 00-.445-.08zm-34.103 0h-1.329v1.35h1.257c.255 0 .457-.05.606-.15.148-.101.222-.282.222-.544 0-.281-.104-.473-.311-.575-.111-.054-.26-.08-.445-.08zM6.367 38.376c1.458 0 2.636.587 3.432 1.15l.154.112.282-.911h1.558v4.696h-1.558s-.645-2.881-3.425-2.881-4.372 2.348-4.372 4.615c0 2.267 1.934 4.857 4.533 4.857a3.102 3.102 0 003.121-2.28l.002-.007h1.853v2.57s-1.853 2.045-5.137 2.045S0 49.711 0 45.055c0-4.655 3.566-6.679 6.367-6.679zm59.072 5.276c.832 0 1.608.225 2.27.613l.217.135.092-.68h.967v3.278h-1.52c-.33-.861-1.113-1.467-2.026-1.467-1.213 0-2.196 1.068-2.196 2.385 0 1.317.983 2.385 2.196 2.385.833 0 1.556-.505 1.928-1.248l.07-.152h.017v-.364h1.49v.364h.041v1.536l-.02.024-.02.023v.036h-.03a4.434 4.434 0 01-3.476 1.66c-2.433 0-4.405-1.909-4.405-4.264 0-2.355 1.972-4.264 4.405-4.264zm7.575-2.807v2.908h1.37l-.02 1.943h-1.35v3.529c0 .729.222.87.625.87.363 0 .66-.213.716-.255l.01-.008-.001 1.946c-.008.031-.125.382-1.49.382-1.431 0-2.217-.83-2.217-1.923v-.304c-.001-.76-.005-2.386-.01-3.973v-.264h-.97v-1.943h.965l-.004-1.503v-.291l2.376-1.114zm-37.957 2.713c1.35 0 2.216.627 2.216.627v-.465h.907v2.63H37.05s-.282-1.133-1.611-1.133c-1.048 0-.968.446-.968.547 0 .324.444.708 2.277 1.295.95.304 1.874 1.113 1.874 2.308 0 1.194-.564 2.773-2.8 2.773-2.237 0-2.54-.668-2.54-.668l-.02.445h-1.108V48.8h1.41s.303 1.781 1.754 1.781c.685 0 .866-.385.866-.749s-.202-.708-1.934-1.295c-1.733-.587-2.035-1.66-2.035-2.348s.08-2.631 2.84-2.631zm7.333-2.753v2.908h1.37l-.02 1.943h-1.35v3.528c0 .73.222.87.625.87.363 0 .66-.212.716-.255l.01-.007v1.943c-.023.067-.191.384-1.492.384-1.43 0-2.216-.83-2.216-1.923v-.185c0-.698-.005-2.416-.01-4.091v-.264h-.97v-1.943h.965l-.005-1.76v-.035l2.377-1.113zm11.766 2.894v1.491h.007v3.724c0 .87.343 1.296 1.209 1.296.741 0 1.583-.55 1.811-1.443l.036-.171v-2.9h-.913v-1.943h3.116v6.261h1.02v1.943h-3.216l.003-.057-.01.003v-1.167h-.094s-.564 1.376-2.398 1.376c-1.765 0-2.877-.882-2.957-2.375l-.004-.175v-3.92h-.726V43.7h3.116zm69.469-.128c2.433 0 3.99 1.91 3.99 4.264l-.005.19-.012.188h-5.937c0 1.255.965 2.2 1.964 2.2.696 0 1.415-.44 1.682-1.161l.047-.149h2.1c-.454 1.736-1.852 2.996-3.83 2.996-2.432 0-4.404-1.909-4.404-4.264 0-2.355 1.972-4.264 4.405-4.264zm-106.62-.04c2.433 0 4.405 1.909 4.405 4.263 0 2.356-1.972 4.265-4.406 4.265-2.433 0-4.405-1.91-4.405-4.265 0-2.354 1.972-4.263 4.405-4.263zm67.13-.04c2.434 0 4.406 1.908 4.406 4.263s-1.972 4.264-4.405 4.264c-2.433 0-4.405-1.909-4.405-4.264 0-2.355 1.972-4.264 4.405-4.264zm10.7.087c1.765 0 2.876.882 2.956 2.375l.005.175v3.92h.725v1.943h-3.116v-1.49h-.007v-3.725c0-.87-.342-1.295-1.208-1.295-.741 0-1.583.548-1.812 1.44l-.035.172v2.901h.913v1.943h-4.083v-1.943h.967v-4.318h-1.02v-1.943h3.216l-.003.057.01-.003v1.167h.094s.564-1.376 2.397-1.376zm-67.173-.04c1.766 0 2.878.881 2.958 2.375l.004.175v3.92h.725v1.943h-3.116V50.46h-.007v-3.724c0-.871-.342-1.296-1.208-1.296-.741 0-1.583.55-1.811 1.442l-.036.172v2.9h.913v1.943h-4.083v-1.943h.967v-4.318h-1.02v-1.943h3.216l-.003.057.01-.004v1.168h.094s.564-1.376 2.397-1.376zm87.521 0c1.766 0 2.877.881 2.957 2.375l.005.175v3.92h.725v1.943h-3.116V50.46h-.007v-3.724c0-.871-.342-1.296-1.208-1.296-.741 0-1.583.549-1.812 1.441l-.035.172v2.9h.913v1.944h-4.083v-1.943h.967v-4.318h-1.02v-1.943h3.216l-.003.057.01-.004v1.168h.094s.564-1.376 2.397-1.376zm-65.036.04l.071.002.07.003v2.097c-.19-.132-.446-.2-.785-.2-.742 0-1.583.55-1.812 1.443l-.036.171v2.9h.914v1.943h-4.083v-1.943h.967v-4.318h-1.021v-1.943h3.217l-.003.057.01-.003v1.167h.094s.564-1.376 2.397-1.376zm57.46.155l-.002.057.01-.003v6.207h.913v1.943h-4.083v-1.943h.967v-4.318h-1.021v-1.943h3.217zm-4.915-4.858l-.003.058.01-.004v11.065h.913v1.943h-4.083v-1.943h.967v-9.176h-1.021v-1.943h3.217zm-24.258 4.818l-.003.057.01-.004v6.208h.913v1.943h-4.083v-1.943h.967v-4.318h-1.02v-1.943h3.216zm-61.43 1.943c-1.097 0-1.988.966-1.988 2.158 0 1.193.89 2.16 1.988 2.16 1.098 0 1.988-.967 1.988-2.16 0-1.192-.89-2.158-1.988-2.158zm67.132-.04c-1.098 0-1.988.966-1.988 2.158s.89 2.16 1.988 2.16c1.098 0 1.988-.968 1.988-2.16 0-1.192-.89-2.159-1.988-2.159zm39.489-.338c-.782 0-1.727.581-1.825 1.434l-.008.145h3.546c0-.952-.888-1.579-1.713-1.579zm-17.045-6.477c.801 0 1.45.652 1.45 1.457s-.649 1.457-1.45 1.457c-.8 0-1.45-.652-1.45-1.457s.65-1.457 1.45-1.457zm-29.173-.04c.8 0 1.45.652 1.45 1.457 0 .804-.65 1.457-1.45 1.457-.801 0-1.451-.653-1.451-1.457 0-.805.65-1.458 1.45-1.458zM50.154 14.06v24.422c-.298.017-.601.028-.914.028-.217 0-.441-.01-.671-.027l-.35-.032V14.061h1.935zm4.19 0v23.6c-.304.104-.63.207-.982.302l-.36.093V14.061h1.342zm-8.972 0V37.92a84.197 84.197 0 01-2.206-.58l-.588-.162V14.061h2.794zm-5.319 0v22.436a68.534 68.534 0 00-3.542-.83l-.756-.149V14.061h4.298zm-6.447 0v21.1a41.273 41.273 0 00-5.856-.428l-.216.002-.214.005V14.06h6.286zm21.393-6.532c-.917.764-1.487 1.823-1.487 2.996 0 .652.176 1.27.49 1.82l.125.204H27.591c.392-.6.615-1.29.615-2.024 0-1.094-.496-2.09-1.308-2.839l-.18-.157H55zm3.912-3.076v1.376H22.807V4.453H58.91zM60.402 0v3.4H21.316V0h39.086z"/></svg>