<svg id="Layer_1" data-name="Layer 1" xmlns="http://www.w3.org/2000/svg" viewBox="0 0 681.05 153.38"><defs><style>.cls-1,.cls-2{fill:#00aec7}.cls-2{fill-rule:evenodd}.cls-3{fill:#8031a7}</style></defs><path class="cls-1" d="M5.25 18.23h145.5v5.37H5.25zM0 0h156.98v13.69H0z"/><path class="cls-2" d="M207.42 372.72a26.41 26.41 0 004.79-1.61v-93.77h-4.79zM188 374.21c1.55.1 3.12.15 4.75.1 1.13 0 2.21-.06 3.24-.11v-96.86h-8zM104.33 359.24c9.58.39 17.88 1.19 25.17 2.21v-84.11h-25.17zM165.46 369.51c4 1.13 7.62 2.16 11.18 3v-95.17h-11.18zM138.09 362.84c6.66 1.2 12.43 2.58 17.58 4v-89.5h-17.58zM105.23 271.62h106.88s-2.4-3.53-2.4-10.2 6-10.21 6-10.21H101s6.63 3.53 6.63 10.21-2.4 10.2-2.4 10.2" transform="translate(-80.42 -220.95)"/><path class="cls-3" d="M285.33 293.87h-8.69c-1.52-7-5.32-12.35-11.62-12.35-7.28 0-12.49 7.78-12.49 15.84 0 12 6.54 17.92 14 17.92 6 0 8.67-6.25 10.08-12.75h8.69v13.12c-4.56 5.41-11.4 8.3-19.88 8.3-15.42 0-24.74-12.4-24.74-26 0-13.41 11.21-26.11 23-26.11 5.65 0 9.67 1.57 12.93 5.18l3.37-4.21h5.32zM306.06 323.35c-11.29 0-17.53-7-17.53-18.65s6.24-18.7 17.53-18.7 17.54 7 17.54 18.7-6.24 18.65-17.54 18.65zm0-30.61c-4.6 0-7.5 3.19-7.5 12s2.9 11.89 7.5 11.89 7.51-3.12 7.51-11.89-2.9-12-7.51-12zM360.68 322.68h-9.88v-22c0-2.38-.23-3.94-1.19-5.28a5.6 5.6 0 00-4.68-2 6.1 6.1 0 00-5.06 2.31c-1.19 1.56-1.48 3.56-1.48 6.31v20.66h-9.89v-29.05h-4.31v-7h10.18l1.79 4.61c2.38-3.2 6.31-5.28 11.52-5.28 4.23 0 7.65 1.19 9.88 3.5s3.12 5.57 3.12 9.66zM378.07 323.35A33.69 33.69 0 01365 320.9l.59-7.43a26.16 26.16 0 0011.82 3.12c3.86 0 6.09-1.19 6.09-3.57 0-6.31-18.65-2.38-18.65-15.68 0-7.13 6.09-11.37 14.86-11.37a32.61 32.61 0 0110.11 1.56v7a25.39 25.39 0 00-9.44-1.86c-3.71 0-6.39 1.34-6.39 3.72 0 5.79 18.65 2.52 18.65 15.6-.01 7.57-6.32 11.36-14.57 11.36zM418.64 321a17.25 17.25 0 01-9 2.38c-3.5 0-6.47-1.11-8.18-2.9-1.86-2-2.52-4.6-2.52-9.29v-17.56h-5.64v-7h5.7v-8.92l9.88-2.45v11.37h8.32v7h-8.32V311c0 3.41.89 5.27 3.94 5.27a12.54 12.54 0 006.09-1.93zM444.72 294a17.53 17.53 0 00-2.9-.22 6.38 6.38 0 00-5.13 2c-1.41 1.71-1.78 3.94-1.78 7.06v19.84H425v-29.05h-4.31v-7h10.33l1.78 5.06a10.5 10.5 0 019.59-5.73 10.39 10.39 0 012.3.23zM485.22 321.2a12.08 12.08 0 01-6.62 1.93c-2.82 0-5.42-1.19-6.39-3.72-2.38 2.46-5.94 3.94-10.4 3.94-4.24 0-7.65-1.19-9.88-3.49s-3.12-5.57-3.12-9.66v-23.56h9.88v22c0 2.38.22 3.94 1.19 5.27a5.54 5.54 0 004.68 2 6.1 6.1 0 005.05-2.3c1.19-1.56 1.49-3.57 1.49-6.32v-20.65h9.9v27.72c0 1.56.6 2.23 1.78 2.23a5.8 5.8 0 002.83-1zM523 301.75h-6.92c-1.21-5-4.24-8.44-9.26-8.44-5.79 0-9.95 5.15-9.95 10.95 0 6.14 4.42 12.72 10.38 12.72 4.76 0 7.7-4.33 8.83-9H523v8.43a21.58 21.58 0 01-15.83 7c-12.29 0-20.5-7.53-20.5-18.69 0-10.9 8-18.77 19.11-18.77 4.5 0 7.7 1.12 10.3 3.72l2.68-3H523zM551.18 321a17.22 17.22 0 01-9 2.38c-3.49 0-6.46-1.11-8.17-2.9-1.86-2-2.53-4.6-2.53-9.29v-17.56h-5.65v-7h5.65v-8.92l9.89-2.45v11.37h8.32v7h-8.32V311c0 3.41.89 5.27 3.93 5.27a12.58 12.58 0 006.1-1.93zM572.21 321.27a12.15 12.15 0 01-6.54 1.86c-3 0-5.12-.89-6.31-2.53a10.13 10.13 0 01-1.34-5.79v-21.18h-4.31v-7h14.19v27.72c0 1.56.6 2.23 1.79 2.23a5.76 5.76 0 002.82-1zm-9.43-38.94a5.55 5.55 0 01-5.58-5.5 5.5 5.5 0 015.5-5.5 5.43 5.43 0 015.43 5.5 5.36 5.36 0 01-5.35 5.5zM592.8 323.35c-11.3 0-17.54-7-17.54-18.65S581.5 286 592.8 286s17.53 7.06 17.53 18.73-6.24 18.62-17.53 18.62zm0-30.61c-4.61 0-7.51 3.19-7.51 12s2.9 11.89 7.51 11.89 7.5-3.12 7.5-11.89-2.9-12-7.5-12zM647.41 322.68h-9.88v-22c0-2.38-.22-3.94-1.19-5.28a5.6 5.6 0 00-4.68-2 6.08 6.08 0 00-5 2.31c-1.19 1.56-1.49 3.56-1.49 6.31v20.66h-9.88v-29.05h-4.31v-7h10.18l1.78 4.61c2.38-3.2 6.32-5.28 11.52-5.28 4.23 0 7.65 1.19 9.88 3.5s3.12 5.57 3.12 9.66zM667.4 321.27a12.17 12.17 0 01-6.54 1.86c-3.05 0-5.13-.89-6.32-2.53a10.21 10.21 0 01-1.33-5.79v-36h-4.31v-7h14.19v42.51c0 1.56.59 2.23 1.78 2.23a5.83 5.83 0 002.83-1zM687.69 321.27a12.2 12.2 0 01-6.54 1.86c-3 0-5.13-.89-6.32-2.53a10.13 10.13 0 01-1.34-5.79v-21.18h-4.31v-7h14.19v27.72c0 1.56.6 2.23 1.79 2.23a5.76 5.76 0 002.82-1zm-9.44-38.94a5.55 5.55 0 01-5.58-5.5 5.5 5.5 0 015.5-5.5 5.43 5.43 0 015.43 5.5 5.36 5.36 0 01-5.35 5.5zM725.06 322.68h-9.88v-22c0-2.38-.23-3.94-1.19-5.28a5.6 5.6 0 00-4.68-2 6.1 6.1 0 00-5.06 2.31c-1.18 1.56-1.48 3.56-1.48 6.31v20.66h-9.89v-29.05h-4.31v-7h10.19l1.78 4.61c2.38-3.2 6.32-5.28 11.52-5.28 4.23 0 7.65 1.19 9.88 3.5s3.12 5.57 3.12 9.66zM757 307.89h-18.71c.66 5.8 4.23 8.62 9.73 8.62a22 22 0 0011.82-3.64l-.38 6.77c-3.41 2.45-8.62 3.71-13.45 3.71-11.51 0-17.9-7.28-17.9-18.5 0-11.89 6.91-18.88 17-18.88 9.81 0 16.35 6.54 16.35 16.57.01 3.87-1.1 5.35-4.46 5.35zm-11.89-15.23c-3.79 0-6.69 2.9-7 9.59h13.15c.52 0 .67-.23.67-.75.07-5.64-2.57-8.84-6.81-8.84z" transform="translate(-80.42 -220.95)"/></svg>