<svg xmlns="http://www.w3.org/2000/svg" width="128" height="60" viewBox="0 0 128 60">
  <path fill="#CCC" fill-rule="evenodd" d="M220.919491,65.8281877 C221.648346,65.8281877 222.187654,66.0522907 222.538059,66.5001727 C222.81142,66.8496049 222.9481,67.2968392 222.9481,67.8415519 C222.9481,68.4312794 222.791756,68.9212617 222.478744,69.3118226 C222.111899,69.7707155 221.588387,70 220.908208,70 C220.273482,70 219.774147,69.799538 219.410847,69.3979662 C219.086554,69.0109677 218.924729,68.5216331 218.924729,67.9302863 C218.924729,67.3962606 219.063344,66.9393109 219.340573,66.5591131 C219.696458,66.0717216 220.222871,65.8281877 220.919491,65.8281877 Z M294.138977,65.8281877 C294.86751,65.8281877 295.406818,66.0522907 295.757223,66.5001727 C296.030584,66.8496049 296.167587,67.2968392 296.167587,67.8415519 C296.167587,68.4312794 296.01092,68.9212617 295.698231,69.3118226 C295.331063,69.7707155 294.807551,70 294.127695,70 C293.492646,70 292.993311,69.799538 292.630012,69.3979662 C292.30604,69.0109677 292.143893,68.5216331 292.143893,67.9302863 C292.143893,67.3962606 292.282508,66.9393109 292.559737,66.5591131 C292.915622,66.0717216 293.442036,65.8281877 294.138977,65.8281877 Z M304.000604,65.836284 C304.421284,65.836284 304.779103,65.9360292 305.07374,66.1358435 C305.368054,66.3356578 305.51505,66.6549721 305.51505,67.0941103 L304.989604,67.0941103 C304.962848,66.8826374 304.905146,66.7207133 304.817464,66.6076903 C304.653705,66.4017229 304.376476,66.2984153 303.985131,66.2984153 C303.668574,66.2984153 303.441633,66.3648042 303.303663,66.4975819 C303.165048,66.6300358 303.096063,66.7841876 303.096063,66.9597133 C303.096063,67.1533745 303.17762,67.2948962 303.341057,67.3846021 C303.44808,67.4419232 303.690494,67.5134937 304.067978,67.5996373 L304.628561,67.7259381 C304.899021,67.7868215 305.107588,67.8700505 305.254584,67.9759489 C305.508603,68.1605423 305.635935,68.4283648 305.635935,68.7797401 C305.635935,69.2169351 305.473788,69.5297724 305.149494,69.7179282 C304.8252,69.906084 304.448362,70 304.019301,70 C303.518677,70 303.12701,69.8746708 302.843978,69.6236884 C302.560624,69.3746492 302.421687,69.0368755 302.427489,68.6103675 L302.952935,68.6103675 C302.965508,68.8344704 303.018697,69.0161492 303.112504,69.1560516 C303.290768,69.417721 303.605714,69.5485556 304.056695,69.5485556 C304.258815,69.5485556 304.443204,69.520057 304.608897,69.462412 C304.929967,69.3513321 305.090502,69.1524893 305.090502,68.8658837 C305.090502,68.6505246 305.022807,68.4973444 304.886771,68.4060193 C304.748801,68.3163133 304.53282,68.2385897 304.238828,68.1722009 L303.697264,68.0510817 C303.343635,67.9723865 303.09284,67.8855952 302.945844,67.7903839 C302.691824,67.6255451 302.564814,67.3790967 302.564814,67.0513623 C302.564814,66.6964247 302.68989,66.4049614 302.939719,66.1776199 C303.189225,65.9499547 303.542854,65.836284 304.000604,65.836284 Z M321.470887,65.8281877 C321.986985,65.8281877 322.388323,65.9596701 322.672966,66.2232825 C322.958254,66.4865711 323.116533,66.7861307 323.148124,67.1209897 L322.603014,67.1209897 C322.542088,66.8667689 322.421203,66.6650114 322.240359,66.5163651 C322.058871,66.367395 321.804529,66.2932337 321.477012,66.2932337 C321.07793,66.2932337 320.755571,66.4298977 320.509933,66.7035494 C320.264617,66.9768772 320.141798,67.3962606 320.141798,67.9613757 C320.141798,68.4238309 320.25269,68.7991709 320.474151,69.087072 C320.696257,69.374973 321.026675,69.5190855 321.466374,69.5190855 C321.871258,69.5190855 322.179433,69.3675245 322.390901,69.0647265 C322.503405,68.9050693 322.587218,68.6955395 322.642342,68.4354894 L323.187452,68.4354894 C323.139421,68.8513105 322.980175,69.200095 322.709715,69.4811952 C322.385744,69.8199404 321.948624,69.989313 321.398678,69.989313 C320.92481,69.989313 320.526695,69.8503821 320.204658,69.5725204 C319.780755,69.2049527 319.568642,68.6372469 319.568642,67.8697267 C319.568642,67.2871238 319.727888,66.8088 320.046057,66.4360508 C320.390337,66.0309167 320.865495,65.8281877 321.470887,65.8281877 Z M205.674779,65.9357053 L205.674779,68.3765491 C205.674779,68.6631547 205.731192,68.901507 205.844663,69.0916059 C206.012612,69.3782115 206.295966,69.5216762 206.694403,69.5216762 C207.171818,69.5216762 207.496434,69.366553 207.668574,69.0566303 C207.761091,68.8882292 207.807189,68.6615355 207.807189,68.3765491 L207.807189,65.9357053 L208.371963,65.9357053 L208.371963,68.1534177 C208.371963,68.6388661 208.3033,69.0125869 208.166297,69.2742562 C207.914212,69.7509607 207.438732,69.989313 206.739533,69.989313 C206.040335,69.989313 205.565822,69.7509607 205.315671,69.2742562 C205.178345,69.0125869 205.110005,68.6388661 205.110005,68.1534177 L205.110005,65.9357053 L205.674779,65.9357053 Z M259.116855,65.8281877 C259.633276,65.8281877 260.033969,65.9596701 260.318935,66.2232825 C260.604223,66.4865711 260.762502,66.7861307 260.79377,67.1209897 L260.24866,67.1209897 C260.188057,66.8667689 260.067172,66.6650114 259.886006,66.5163651 C259.704839,66.367395 259.450498,66.2932337 259.12298,66.2932337 C258.723899,66.2932337 258.401539,66.4298977 258.155901,66.7035494 C257.910585,66.9768772 257.787766,67.3962606 257.787766,67.9613757 C257.787766,68.4238309 257.898336,68.7991709 258.120119,69.087072 C258.341903,69.374973 258.672644,69.5190855 259.112342,69.5190855 C259.517226,69.5190855 259.825402,69.3675245 260.037192,69.0647265 C260.149373,68.9050693 260.233187,68.6955395 260.28831,68.4354894 L260.833098,68.4354894 C260.785067,68.8513105 260.625821,69.200095 260.355684,69.4811952 C260.031712,69.8199404 259.594592,69.989313 259.044647,69.989313 C258.570778,69.989313 258.172664,69.8503821 257.850627,69.5725204 C257.426401,69.2049527 257.214289,68.6372469 257.214289,67.8697267 C257.214289,67.2871238 257.373857,66.8088 257.692026,66.4360508 C258.036306,66.0309167 258.511142,65.8281877 259.116855,65.8281877 Z M281.391586,65.8281877 C281.907684,65.8281877 282.309022,65.9596701 282.593666,66.2232825 C282.878954,66.4865711 283.037233,66.7861307 283.068824,67.1209897 L282.523714,67.1209897 C282.462788,66.8667689 282.341903,66.6650114 282.161059,66.5163651 C281.97957,66.367395 281.725229,66.2932337 281.397711,66.2932337 C280.99863,66.2932337 280.67627,66.4298977 280.430632,66.7035494 C280.185317,66.9768772 280.062497,67.3962606 280.062497,67.9613757 C280.062497,68.4238309 280.173389,68.7991709 280.39485,69.087072 C280.616956,69.374973 280.947375,69.5190855 281.387073,69.5190855 C281.791957,69.5190855 282.100133,69.3675245 282.311601,69.0647265 C282.424104,68.9050693 282.507918,68.6955395 282.563041,68.4354894 L283.108152,68.4354894 C283.06012,68.8513105 282.900874,69.200095 282.630415,69.4811952 C282.306443,69.8199404 281.869323,69.989313 281.319378,69.989313 C280.845509,69.989313 280.447395,69.8503821 280.125358,69.5725204 C279.701455,69.2049527 279.489342,68.6372469 279.489342,67.8697267 C279.489342,67.2871238 279.648588,66.8088 279.966757,66.4360508 C280.311037,66.0309167 280.786195,65.8281877 281.391586,65.8281877 Z M216.418705,65.8333693 C216.800701,65.8333693 217.13112,65.9049398 217.409961,66.0484045 C217.8142,66.2546958 218.06145,66.6157865 218.152033,67.1320005 L217.598541,67.1320005 C217.532458,66.8431279 217.395777,66.6329505 217.1885,66.5014681 C216.981223,66.3696619 216.720111,66.3039207 216.404521,66.3039207 C216.030262,66.3039207 215.714994,66.4409085 215.459363,66.7152079 C215.203409,66.9895073 215.075755,67.3978799 215.075755,67.9409733 C215.075755,68.4105531 215.181166,68.792694 215.392312,69.0877197 C215.603135,69.3824215 215.947415,69.5297724 216.42483,69.5297724 C216.790063,69.5297724 217.092437,69.426141 217.33195,69.219202 C217.571463,69.0122631 217.694282,68.677404 217.699762,68.2152727 L216.4071,68.2152727 L216.4071,67.7716007 L218.219728,67.7716007 L218.219728,69.88471 L217.859975,69.88471 L217.724906,69.3765923 C217.538905,69.575435 217.374179,69.7133944 217.230407,69.7904702 C216.988959,69.923248 216.682073,69.989313 216.31007,69.989313 C215.829109,69.989313 215.415199,69.8377521 215.068985,69.534954 C214.691179,69.1550801 214.502277,68.6336845 214.502277,67.9704435 C214.502277,67.3091455 214.686989,66.783216 215.056413,66.3926551 C215.406818,66.0199059 215.861023,65.8333693 216.418705,65.8333693 Z M255.388121,65.9357053 L255.388121,66.4059329 L253.997461,66.4059329 L253.997461,69.88471 L253.432687,69.88471 L253.432687,66.4059329 L252.041705,66.4059329 L252.041705,65.9357053 L255.388121,65.9357053 Z M314.644598,65.9357053 L315.830237,69.2985448 L317.002015,65.9357053 L317.62836,65.9357053 L316.122618,69.88471 L315.529476,69.88471 L314.026635,65.9357053 L314.644598,65.9357053 Z M297.49184,65.9357053 L299.550107,69.1262576 L299.550107,65.9357053 L300.083934,65.9357053 L300.083934,69.88471 L299.455655,69.88471 L297.366765,66.6977201 L297.366765,69.88471 L296.832937,69.88471 L296.832937,65.9357053 L297.49184,65.9357053 Z M223.94129,65.9357053 L225.126929,69.2985448 L226.298707,65.9357053 L226.925051,65.9357053 L225.419309,69.88471 L224.82649,69.88471 L223.323327,65.9357053 L223.94129,65.9357053 Z M236.104243,65.9357053 L238.16251,69.1262576 L238.16251,65.9357053 L238.696337,65.9357053 L238.696337,69.88471 L238.068058,69.88471 L235.979168,66.6977201 L235.979168,69.88471 L235.445662,69.88471 L235.445662,65.9357053 L236.104243,65.9357053 Z M273.653665,65.9357053 L273.653665,69.88471 L273.088891,69.88471 L273.088891,65.9357053 L273.653665,65.9357053 Z M278.767256,65.9357053 L278.767256,69.88471 L278.202482,69.88471 L278.202482,65.9357053 L278.767256,65.9357053 Z M272.44804,65.9357053 L272.44804,66.4059329 L271.05738,66.4059329 L271.05738,69.88471 L270.492606,69.88471 L270.492606,66.4059329 L269.101946,66.4059329 L269.101946,65.9357053 L272.44804,65.9357053 Z M285.665753,65.9357053 L287.163759,69.88471 L286.551275,69.88471 L286.12028,68.7016926 L284.501068,68.7016926 L284.053633,69.88471 L283.480155,69.88471 L285.034573,65.9357053 L285.665753,65.9357053 Z M240.387758,65.9357053 L241.574687,69.2742562 L242.753234,65.9357053 L243.548495,65.9357053 L243.548495,69.88471 L243.014667,69.88471 L243.014667,67.5539747 C243.014667,67.4733365 243.016279,67.339911 243.020147,67.1533745 C243.024016,66.9668379 243.02595,66.7673475 243.02595,66.5539315 L241.847403,69.88471 L241.293589,69.88471 L240.10376,66.5539315 L240.10376,66.6747269 C240.10376,66.7473498 240.105391,66.8483905 240.108519,66.9779854 L240.112141,67.1171035 C240.116493,67.2655069 240.119213,67.3845819 240.120301,67.4741917 L240.120845,69.88471 L239.586695,69.88471 L239.586695,65.9357053 L240.387758,65.9357053 Z M309.473627,65.9357053 L309.473627,66.4195345 L307.023693,66.4195345 L307.023693,67.6184205 L309.28827,67.6184205 L309.28827,68.0753703 L307.023693,68.0753703 L307.023693,69.4141586 L309.515856,69.4141586 L309.515856,69.88471 L306.478583,69.88471 L306.478583,65.9357053 L309.473627,65.9357053 Z M248.890639,65.9357053 L250.948906,69.1262576 L250.948906,65.9357053 L251.482734,65.9357053 L251.482734,69.88471 L250.854455,69.88471 L248.765886,66.6977201 L248.765886,69.88471 L248.232059,69.88471 L248.232059,65.9357053 L248.890639,65.9357053 Z M209.771004,65.9357053 L209.771004,67.8684313 L211.83604,65.9357053 L212.617762,65.9357053 L210.854132,67.5293622 L212.654189,69.88471 L211.922432,69.88471 L210.443768,67.9001684 L209.771004,68.5083553 L209.771004,69.88471 L209.226216,69.88471 L209.226216,65.9357053 L209.771004,65.9357053 Z M290.24455,65.9357053 L290.24455,66.4059329 L288.853568,66.4059329 L288.853568,69.88471 L288.288794,69.88471 L288.288794,66.4059329 L286.898457,66.4059329 L286.898457,65.9357053 L290.24455,65.9357053 Z M264.603739,65.9357053 L264.603739,66.4195345 L262.153806,66.4195345 L262.153806,67.6184205 L264.418383,67.6184205 L264.418383,68.0753703 L262.153806,68.0753703 L262.153806,69.4141586 L264.645968,69.4141586 L264.645968,69.88471 L261.608696,69.88471 L261.608696,65.9357053 L264.603739,65.9357053 Z M277.477173,65.9357053 L277.477173,66.4195345 L275.173591,66.4195345 L275.173591,67.6184205 L277.199299,67.6184205 L277.199299,68.0889719 L275.173591,68.0889719 L275.173591,69.88471 L274.614297,69.88471 L274.614297,65.9357053 L277.477173,65.9357053 Z M267.336705,65.9357053 C267.645848,65.9357053 267.900512,65.9794248 268.101019,66.0671877 C268.481726,66.2355888 268.672241,66.5468069 268.672241,67.0001943 C268.672241,67.2366035 268.620986,67.4302647 268.51912,67.5808541 C268.416932,67.7314435 268.274127,67.8522389 268.090704,67.9435641 C268.251561,68.0063906 268.373091,68.0889719 268.454326,68.1909841 C268.535883,68.2929962 268.581335,68.4588065 268.590684,68.6884149 L268.610348,69.2179066 C268.61615,69.368496 268.629045,69.4802237 268.649676,69.5540611 C268.683523,69.6793903 268.743482,69.7600285 268.829552,69.7959756 L268.829552,69.88471 L268.143893,69.88471 C268.125196,69.850706 268.110368,69.8066626 268.099085,69.7529038 C268.087803,69.699145 268.078454,69.5951898 268.07104,69.441038 L268.037192,68.7823308 C268.02462,68.5242238 267.926945,68.3512889 267.745134,68.2635261 C267.641335,68.2152727 267.478543,68.1909841 267.256437,68.1909841 L266.019865,68.1909841 L266.019865,69.88471 L265.460571,69.88471 L265.460571,65.9357053 L267.336705,65.9357053 Z M326.957771,65.9357053 L326.957771,66.4195345 L324.507837,66.4195345 L324.507837,67.6184205 L326.772414,67.6184205 L326.772414,68.0753703 L324.507837,68.0753703 L324.507837,69.4141586 L327,69.4141586 L327,69.88471 L323.962727,69.88471 L323.962727,65.9357053 L326.957771,65.9357053 Z M230.500665,65.9357053 L230.500665,66.4195345 L228.050731,66.4195345 L228.050731,67.6184205 L230.315308,67.6184205 L230.315308,68.0753703 L228.050731,68.0753703 L228.050731,69.4141586 L230.542894,69.4141586 L230.542894,69.88471 L227.505621,69.88471 L227.505621,65.9357053 L230.500665,65.9357053 Z M201.78422,65.9357053 L203.282226,69.88471 L202.669743,69.88471 L202.238748,68.7016926 L200.619535,68.7016926 L200.1721,69.88471 L199.598622,69.88471 L201.15304,65.9357053 L201.78422,65.9357053 Z M233.23363,65.9357053 C233.542451,65.9357053 233.797115,65.9794248 233.997623,66.0671877 C234.378652,66.2355888 234.568844,66.5468069 234.568844,67.0001943 C234.568844,67.2366035 234.517911,67.4302647 234.415723,67.5808541 C234.313535,67.7314435 234.17073,67.8522389 233.987307,67.9435641 C234.148487,68.0063906 234.269694,68.0889719 234.351251,68.1909841 C234.432808,68.2929962 234.477939,68.4588065 234.487287,68.6884149 L234.506951,69.2179066 C234.512753,69.368496 234.52597,69.4802237 234.546601,69.5540611 C234.580127,69.6793903 234.640085,69.7600285 234.726155,69.7959756 L234.726155,69.88471 L234.040819,69.88471 C234.022122,69.850706 234.006971,69.8066626 233.995688,69.7529038 C233.984406,69.699145 233.975057,69.5951898 233.967643,69.441038 L233.933795,68.7823308 C233.921223,68.5242238 233.823871,68.3512889 233.641738,68.2635261 C233.53826,68.2152727 233.375146,68.1909841 233.15304,68.1909841 L231.916469,68.1909841 L231.916469,69.88471 L231.357497,69.88471 L231.357497,65.9357053 L233.23363,65.9357053 Z M318.846557,65.9357053 L318.846557,69.88471 L318.281783,69.88471 L318.281783,65.9357053 L318.846557,65.9357053 Z M312.206915,65.9357053 C312.516058,65.9357053 312.770722,65.9794248 312.971229,66.0671877 C313.351614,66.2355888 313.542128,66.5468069 313.542128,67.0001943 C313.542128,67.2366035 313.491196,67.4302647 313.389008,67.5808541 C313.28682,67.7314435 313.144014,67.8522389 312.960592,67.9435641 C313.121771,68.0063906 313.242979,68.0889719 313.324213,68.1909841 C313.40577,68.2929962 313.451223,68.4588065 313.460571,68.6884149 L313.480235,69.2179066 C313.485715,69.368496 313.498932,69.4802237 313.519563,69.5540611 C313.553089,69.6793903 313.61337,69.7600285 313.699762,69.7959756 L313.699762,69.88471 L313.014103,69.88471 C312.995084,69.850706 312.980255,69.8066626 312.968973,69.7529038 C312.95769,69.699145 312.948342,69.5951898 312.940928,69.441038 L312.90708,68.7823308 C312.894185,68.5242238 312.797155,68.3512889 312.615022,68.2635261 C312.511222,68.2152727 312.348431,68.1909841 312.126647,68.1909841 L310.890075,68.1909841 L310.890075,69.88471 L310.330459,69.88471 L310.330459,65.9357053 L312.206915,65.9357053 Z M247.4426,65.9357053 L247.4426,66.4195345 L244.992666,66.4195345 L244.992666,67.6184205 L247.257243,67.6184205 L247.257243,68.0753703 L244.992666,68.0753703 L244.992666,69.4141586 L247.484829,69.4141586 L247.484829,69.88471 L244.447556,69.88471 L244.447556,65.9357053 L247.4426,65.9357053 Z M291.449853,65.9357053 L291.449853,69.88471 L290.885079,69.88471 L290.885079,65.9357053 L291.449853,65.9357053 Z M220.953338,66.3039207 C220.526212,66.3039207 220.177741,66.444147 219.907926,66.7249234 C219.638433,67.0056997 219.503365,67.4195777 219.503365,67.9665573 C219.503365,68.4044 219.619092,68.7732631 219.850546,69.0737942 C220.081678,69.3740015 220.456905,69.524267 220.975581,69.524267 C221.468469,69.524267 221.824677,69.3552183 222.044848,69.0171208 C222.26502,68.6790233 222.374945,68.2904055 222.374945,67.8509435 C222.374945,67.3862213 222.247935,67.0125005 221.994238,66.7288095 C221.740541,66.4454424 221.393359,66.3039207 220.953338,66.3039207 Z M294.172503,66.3039207 C293.745376,66.3039207 293.397228,66.444147 293.127413,66.7249234 C292.857598,67.0056997 292.722851,67.4195777 292.722851,67.9665573 C292.722851,68.4044 292.838578,68.7732631 293.06971,69.0737942 C293.301165,69.3740015 293.676069,69.524267 294.195068,69.524267 C294.687633,69.524267 295.043841,69.3552183 295.264013,69.0171208 C295.484184,68.6790233 295.594109,68.2904055 295.594109,67.8509435 C295.594109,67.3862213 295.467422,67.0125005 295.213724,66.7288095 C294.959705,66.4454424 294.612846,66.3039207 294.172503,66.3039207 Z M201.444776,66.5215467 L200.784583,68.2661168 L202.080147,68.2661168 L201.444776,66.5215467 Z M285.326309,66.5215467 L284.665794,68.2661168 L285.961679,68.2661168 L285.326309,66.5215467 Z M312.217875,66.3952459 L310.890075,66.3952459 L310.890075,67.7447213 L312.146633,67.7447213 C312.40162,67.7447213 312.603417,67.6945248 312.751702,67.5941319 C312.90031,67.4937389 312.974453,67.3130317 312.974453,67.0513623 C312.974453,66.7699383 312.870653,66.5782201 312.663376,66.4758841 C312.551839,66.4221253 312.403554,66.3952459 312.217875,66.3952459 Z M267.347665,66.3952459 L266.019865,66.3952459 L266.019865,67.7447213 L267.276746,67.7447213 C267.531732,67.7447213 267.733529,67.6945248 267.881815,67.5941319 C268.030423,67.4937389 268.104565,67.3130317 268.104565,67.0513623 C268.104565,66.7699383 268.000766,66.5782201 267.793166,66.4758841 C267.681952,66.4221253 267.533666,66.3952459 267.347665,66.3952459 Z M233.24459,66.3952459 L231.916469,66.3952459 L231.916469,67.7447213 L233.173349,67.7447213 C233.428335,67.7447213 233.630133,67.6945248 233.77874,67.5941319 C233.927026,67.4937389 234.001491,67.3130317 234.001491,67.0513623 C234.001491,66.7699383 233.897369,66.5782201 233.689769,66.4758841 C233.578877,66.4221253 233.43027,66.3952459 233.24459,66.3952459 Z M205.366604,48.3760093 C206.824777,48.3760093 208.00331,48.9629209 208.798878,49.5256743 L208.952855,49.6377218 L209.23492,48.7267369 L210.792884,48.7267369 L210.792884,53.4225355 L209.23492,53.4225355 C209.23492,53.4225355 208.5902,50.541906 205.809848,50.541906 C203.029496,50.541906 201.437684,52.8898053 201.437684,55.1567425 C201.437684,57.4236798 203.372164,60.0144652 205.971028,60.0144652 C208.486057,60.0144652 209.057771,57.8723157 209.092039,57.7341125 L209.093726,57.7271255 L210.947294,57.7271255 L210.947294,60.2978324 C210.947294,60.2978324 209.093726,62.3419621 205.809848,62.3419621 C202.52597,62.3419621 199,59.7106956 199,55.055378 C199,50.4000605 202.566265,48.3760093 205.366604,48.3760093 Z M264.439014,53.6521439 C265.270508,53.6521439 266.046647,53.8766872 266.709385,54.264864 L266.926018,54.4002332 L267.017891,53.7195043 L267.98497,53.7195043 L267.98497,56.9984671 L266.465689,56.9984671 C266.134625,56.137031 265.351936,55.531111 264.439014,55.531111 C263.225652,55.531111 262.242777,56.5988385 262.242777,57.915929 C262.242777,59.2330196 263.225652,60.300747 264.439014,60.300747 C265.27191,60.300747 265.995161,59.7955249 266.367054,59.0527238 L266.436676,58.9010752 L266.453762,58.9010752 L266.453762,58.536746 L267.944675,58.536746 L267.944675,58.9010752 L267.98497,58.9010752 L267.98497,60.4370871 L267.964943,60.4608495 L267.964943,60.4608495 L267.944675,60.4843689 L267.944675,60.5203161 L267.914051,60.5203161 C267.109763,61.5271601 265.856107,62.180038 264.439014,62.180038 C262.005843,62.180038 260.033646,60.270953 260.033646,57.915929 C260.033646,55.5612289 262.005843,53.6521439 264.439014,53.6521439 Z M272.014466,50.8453517 L272.014466,53.7531845 L273.384494,53.7531845 L273.364508,55.6962736 L272.014466,55.6962736 L272.014466,59.2249234 C272.014466,59.9535818 272.236249,60.0954273 272.639199,60.0954273 C273.001854,60.0954273 273.29923,59.8821635 273.355079,59.8395108 L273.364508,59.8321387 L273.36401,61.7775402 C273.356169,61.8094085 273.23889,62.1599594 271.873595,62.1599594 C270.442962,62.1599594 269.657372,61.3299365 269.657372,60.2369489 L269.657097,59.9331766 C269.656025,59.172939 269.651971,57.5468384 269.647759,55.9601938 L269.647056,55.6962736 L268.676754,55.6962736 L268.676754,53.7531845 L269.641899,53.7531845 C269.640085,53.0986064 269.63865,52.5612967 269.637828,52.2503645 L269.637063,51.9587417 L272.014466,50.8453517 Z M234.056614,53.5575802 C235.406657,53.5575802 236.272837,54.185198 236.272837,54.185198 L236.272837,53.7195043 L237.179635,53.7195043 L237.179635,56.3507708 L236.051376,56.3507708 C236.051376,56.3507708 235.769311,55.2173021 234.439578,55.2173021 C233.391909,55.2173021 233.472499,55.6625934 233.472499,55.7639579 C233.472499,56.087806 233.915743,56.4722138 235.749003,57.0593506 C236.698674,57.3631202 237.622879,58.1724168 237.622879,59.3667689 C237.622879,60.5607971 237.05875,62.139557 234.822219,62.139557 C232.58601,62.139557 232.283636,61.471782 232.283636,61.471782 L232.26365,61.9170733 L231.155377,61.9170733 L231.155377,58.8000345 L232.565701,58.8000345 C232.565701,58.8000345 232.868074,60.5811995 234.318693,60.5811995 C235.003707,60.5811995 235.184873,60.1964679 235.184873,59.8321387 C235.184873,59.4678095 234.983398,59.1238827 233.250715,58.536746 C231.518032,57.9499331 231.215659,56.8770241 231.215659,56.1888467 C231.215659,55.5006693 231.296571,53.5575802 234.056614,53.5575802 Z M241.390297,50.8048707 L241.390297,53.7127035 L242.760326,53.7127035 L242.740339,55.6557926 L241.390297,55.6557926 L241.390297,59.1844423 C241.390297,59.9131007 241.61208,60.0549462 242.01503,60.0549462 C242.377685,60.0549462 242.675061,59.8416825 242.73091,59.7990298 L242.740339,59.7916577 L242.740339,61.7347468 C242.718001,61.8015184 242.549707,62.1194784 241.249426,62.1194784 C239.818794,62.1194784 239.033203,61.2894555 239.033203,60.1964679 L239.033079,60.0112294 C239.032306,59.3132576 239.028036,57.5945043 239.02359,55.9197128 L239.022888,55.6557926 L238.052585,55.6557926 L238.052585,53.7127035 L239.01773,53.7127035 C239.015191,52.7962941 239.013393,52.1097309 239.012983,51.952409 L239.012894,51.9182607 L241.390297,50.8048707 Z M253.156425,53.6991019 L253.156425,55.1900989 L253.163195,55.1900989 L253.163195,58.914353 C253.163195,59.7848569 253.505863,60.2097457 254.372043,60.2097457 C255.113243,60.2097457 255.954957,59.6606785 256.183375,58.7674697 L256.218842,58.5960102 L256.218842,55.6962736 L255.305597,55.6962736 L255.305597,53.7531845 L258.421848,53.7531845 L258.421848,60.0141414 L259.442439,60.0141414 L259.442439,61.9572305 L256.225611,61.9572305 L256.228835,61.8999093 L256.218842,61.9031478 L256.218842,60.735999 L256.125035,60.735999 C256.125035,60.735999 255.560906,62.1123537 253.727324,62.1123537 C251.961963,62.1123537 250.850348,61.2303619 250.770427,59.7370519 L250.765806,59.5620493 L250.765806,55.6421909 L250.040496,55.6421909 L250.040496,53.6991019 L253.156425,53.6991019 Z M322.624935,53.5711818 C325.058105,53.5711818 326.614135,55.4802669 326.614135,57.834967 L326.609622,58.0251468 L326.609622,58.0251468 L326.59834,58.2128978 L320.660797,58.2128978 C320.660797,59.4678095 321.625942,60.4121508 322.624935,60.4121508 C323.320627,60.4121508 324.040119,59.9735326 324.306629,59.2515986 L324.353749,59.1034803 L326.454245,59.1034803 C325.999718,60.8389827 324.601644,62.099076 322.624935,62.099076 C320.191764,62.099076 318.219567,60.1899909 318.219567,57.834967 C318.219567,55.4802669 320.191764,53.5711818 322.624935,53.5711818 Z M216.004473,53.5307008 C218.437644,53.5307008 220.40984,55.4397858 220.40984,57.7944859 C220.40984,60.1495099 218.437644,62.0585949 216.004473,62.0585949 C213.571302,62.0585949 211.598783,60.1495099 211.598783,57.7944859 C211.598783,55.4397858 213.571302,53.5307008 216.004473,53.5307008 Z M283.135875,53.4902198 C285.569045,53.4902198 287.541242,55.3993048 287.541242,57.7540049 C287.541242,60.1090289 285.569045,62.0181139 283.135875,62.0181139 C280.702704,62.0181139 278.730507,60.1090289 278.730507,57.7540049 C278.730507,55.3993048 280.702704,53.4902198 283.135875,53.4902198 Z M293.834347,53.5779826 C295.599708,53.5779826 296.711324,54.4599745 296.791244,55.9532845 L296.795866,56.1282871 L296.795866,60.0481454 L297.521175,60.0481454 L297.521175,61.9912345 L294.405246,61.9912345 L294.405246,60.5002375 L294.398477,60.5002375 L294.398477,56.7759834 C294.398477,55.9054795 294.055809,55.4805907 293.189628,55.4805907 C292.448732,55.4805907 291.607036,56.0290842 291.37835,56.9216854 L291.34283,57.0930308 L291.34283,59.9940628 L292.255752,59.9940628 L292.255752,61.9371519 L288.172744,61.9371519 L288.172744,59.9940628 L289.139824,59.9940628 L289.139824,55.676195 L288.119233,55.676195 L288.119233,53.7331059 L291.33606,53.7331059 L291.333159,53.790427 L291.34283,53.7868647 L291.34283,54.9543374 L291.436636,54.9543374 C291.436636,54.9543374 292.000766,53.5779826 293.834347,53.5779826 Z M226.662328,53.5375016 C228.428,53.5375016 229.539627,54.4194935 229.619547,55.9128035 L229.624169,56.087806 L229.624169,60.0076644 L230.349478,60.0076644 L230.349478,61.9507535 L227.233227,61.9507535 L227.233227,60.4597565 L227.226458,60.4597565 L227.226458,56.7355024 C227.226458,55.8649985 226.884112,55.4401097 226.017609,55.4401097 C225.276713,55.4401097 224.435017,55.9891769 224.2066,56.8821156 L224.171133,57.0535213 L224.171133,59.9535818 L225.084055,59.9535818 L225.084055,61.8966708 L221.001048,61.8966708 L221.001048,59.9535818 L221.968127,59.9535818 L221.968127,55.635714 L220.947536,55.635714 L220.947536,53.6926249 L224.164363,53.6926249 L224.16114,53.749946 L224.171133,53.7463837 L224.171133,54.9138564 L224.264939,54.9138564 C224.264939,54.9138564 224.829069,53.5375016 226.662328,53.5375016 Z M314.183302,53.5375016 C315.948663,53.5375016 317.060278,54.4194935 317.140199,55.9128035 L317.14482,56.087806 L317.14482,60.0076644 L317.870129,60.0076644 L317.870129,61.9507535 L314.754201,61.9507535 L314.754201,60.4597565 L314.747431,60.4597565 L314.747431,56.7355024 C314.747431,55.8649985 314.404763,55.4401097 313.538582,55.4401097 C312.797686,55.4401097 311.955991,55.9886032 311.727305,56.8812044 L311.691784,57.0525498 L311.691784,59.9535818 L312.604706,59.9535818 L312.604706,61.8966708 L308.521699,61.8966708 L308.521699,59.9535818 L309.488778,59.9535818 L309.488778,55.635714 L308.468187,55.635714 L308.468187,53.6926249 L311.685014,53.6926249 L311.682113,53.749946 L311.691784,53.7463837 L311.691784,54.9138564 L311.785591,54.9138564 C311.785591,54.9138564 312.34972,53.5375016 314.183302,53.5375016 Z M249.147238,53.5779826 L249.218036,53.5797638 L249.218036,53.5797638 L249.288109,53.5825165 L249.288109,55.6800812 C249.098561,55.5479511 248.841963,55.4805907 248.502518,55.4805907 C247.761319,55.4805907 246.919605,56.0296579 246.690918,56.9225967 L246.655398,57.0940023 L246.655398,59.9940628 L247.568965,59.9940628 L247.568965,61.9371519 L243.485635,61.9371519 L243.485635,59.9940628 L244.452714,59.9940628 L244.452714,55.676195 L243.431801,55.676195 L243.431801,53.7331059 L246.64895,53.7331059 L246.645727,53.790427 L246.655398,53.7868647 L246.655398,54.9543374 L246.749527,54.9543374 C246.749527,54.9543374 247.313656,53.5779826 249.147238,53.5779826 Z M306.607849,53.7331059 L306.604948,53.790427 L306.614619,53.7868647 L306.614619,59.9940628 L307.527542,59.9940628 L307.527542,61.9371519 L303.444534,61.9371519 L303.444534,59.9940628 L304.411613,59.9940628 L304.411613,55.676195 L303.391022,55.676195 L303.391022,53.7331059 L306.607849,53.7331059 Z M301.691864,48.8753832 L301.688963,48.9327043 L301.698634,48.929142 L301.698634,59.9940628 L302.611557,59.9940628 L302.611557,61.9371519 L298.528549,61.9371519 L298.528549,59.9940628 L299.495628,59.9940628 L299.495628,50.8184723 L298.475037,50.8184723 L298.475037,48.8753832 L301.691864,48.8753832 Z M277.434299,53.6926249 L277.431398,53.749946 L277.441069,53.7463837 L277.441069,59.9535818 L278.353991,59.9535818 L278.353991,61.8966708 L274.270984,61.8966708 L274.270984,59.9535818 L275.238063,59.9535818 L275.238063,55.635714 L274.217472,55.635714 L274.217472,53.6926249 L277.434299,53.6926249 Z M216.004473,55.635714 C214.906516,55.635714 214.016481,56.6024008 214.016481,57.7944859 C214.016481,58.9868949 214.906516,59.9535818 216.004473,59.9535818 C217.10243,59.9535818 217.992465,58.9868949 217.992465,57.7944859 C217.992465,56.6024008 217.10243,55.635714 216.004473,55.635714 Z M283.135875,55.595233 C282.037918,55.595233 281.148205,56.5619198 281.148205,57.7540049 C281.148205,58.9464139 282.037918,59.9131007 283.135875,59.9131007 C284.233832,59.9131007 285.123544,58.9464139 285.123544,57.7540049 C285.123544,56.5619198 284.233832,55.595233 283.135875,55.595233 Z M322.624935,55.258107 C321.843433,55.258107 320.897597,55.8391283 320.800201,56.6919436 L320.791997,56.836543 L324.337631,56.836543 C324.337631,55.8854009 323.449853,55.258107 322.624935,55.258107 Z M305.580167,48.7808196 C306.381231,48.7808196 307.030785,49.4333736 307.030785,50.2381364 C307.030785,51.0428991 306.381231,51.6954532 305.580167,51.6954532 C304.779103,51.6954532 304.129548,51.0428991 304.129548,50.2381364 C304.129548,49.4333736 304.779103,48.7808196 305.580167,48.7808196 Z M276.406616,48.7403385 C277.20768,48.7403385 277.857235,49.3928926 277.857235,50.1976553 C277.857235,51.0024181 277.20768,51.6549721 276.406616,51.6549721 C275.605553,51.6549721 274.955998,51.0024181 274.955998,50.1976553 C274.955998,49.3928926 275.605553,48.7403385 276.406616,48.7403385 Z M249.153685,24.0605164 L249.153685,48.4825554 C248.856469,48.5000432 248.552807,48.511054 248.24044,48.511054 C248.02274,48.511054 247.798592,48.5014105 247.568666,48.4840427 L247.219527,48.4524375 L247.219527,24.0605164 L249.153685,24.0605164 Z M253.344361,24.0605164 L253.344361,47.6612764 C253.040214,47.7654745 252.713402,47.8676689 252.361612,47.9630776 L252.00141,48.0560473 L252.00141,24.0605164 L253.344361,24.0605164 Z M244.372124,24.0605164 L244.372124,47.9197072 C243.675053,47.7492336 242.939403,47.5514012 242.165667,47.3394749 L241.578233,47.1780949 L241.578233,24.0605164 L244.372124,24.0605164 Z M239.053189,24.0605164 L239.053189,46.497366 C237.937288,46.207252 236.75669,45.9216359 235.510651,45.6671302 L234.755168,45.518373 L234.755168,24.0605164 L239.053189,24.0605164 Z M232.605996,24.0605164 L232.605996,45.1605207 C230.777894,44.8994991 228.828263,44.7327173 226.749688,44.7327173 L226.533505,44.7354295 L226.533505,44.7354295 L226.319982,44.739842 L226.319982,24.0605164 L232.605996,24.0605164 Z M253.999396,17.5294702 C253.081638,18.2927803 252.511706,19.3524116 252.511706,20.5250658 C252.511706,21.177368 252.68847,21.7946147 253.002831,22.3456453 L253.12709,22.549117 L226.591087,22.549117 C226.982754,21.9483786 227.206471,21.2589058 227.206471,20.5250658 C227.206471,19.4305885 226.709997,18.4345668 225.89763,17.6860289 L225.718781,17.5294702 L253.999396,17.5294702 Z M257.91123,14.4529125 L257.91123,15.8292672 L221.806947,15.8292672 L221.806947,14.4529125 L257.91123,14.4529125 Z M259.402144,10 L259.402144,13.4004059 L220.316033,13.4004059 L220.316033,10 L259.402144,10 Z" transform="translate(-199 -10)"/>
</svg>
