<svg xmlns="http://www.w3.org/2000/svg" width="106" height="32" viewBox="0 0 106 32">
  <path fill="#CCC" d="M781.597046,38.704941 C781.483238,37.4267326 781.215,36.1666122 780.798067,34.9515181 C780.828608,36.1970051 780.507286,37.4262301 779.870221,38.5010199 C778.491641,40.81502 775.835161,42.0748911 773.147637,41.6892946 C770.460113,41.3036981 768.275131,39.3491909 767.618244,36.7431492 C766.961357,34.1371074 767.962984,31.3969389 770.152997,29.8087812 C772.34301,28.2206236 775.286601,28.0997921 777.602152,29.503001 C774.503137,26.0056127 770.029548,24 765.327518,24 C760.625488,24 756.151899,26.0056127 753.052884,29.503001 C755.842143,27.8021288 759.466334,28.3480283 761.617156,30.7930081 C763.767978,33.2379878 763.813233,36.8633878 761.724099,39.3601371 C759.634964,41.8568865 756.025505,42.4911084 753.194639,40.8588577 C752.191829,40.291176 751.356613,39.4739306 750.771929,38.4882748 C750.134871,37.4137462 749.815624,36.1839187 749.850526,34.938773 C749.435694,36.158165 749.171741,37.4227649 749.064434,38.704941 C749.01933,39.1828811 749,39.6671937 749,40.1578789 C749.001091,46.4510792 752.697391,52.1708197 758.471765,54.8147086 C759.645727,55.3541165 760.880969,55.7520657 762.150933,56 C759.453073,54.5598504 758.089062,51.4913194 758.840019,48.5516412 C759.590977,45.6119631 762.264985,43.5524087 765.33074,43.5524087 C768.396494,43.5524087 771.070503,45.6119631 771.82146,48.5516412 C772.572417,51.4913194 771.208407,54.5598504 768.510546,56 C769.780636,55.7525447 771.015936,55.3545771 772.189715,54.8147086 C777.964088,52.1708197 781.660388,46.4510792 781.66148,40.1578789 C781.66148,39.6480761 781.635706,39.1637635 781.597046,38.704941 Z M826.314084,27.3745744 L826.004802,31.0578994 C824.319235,30.0729445 822.395498,29.5576605 820.437724,29.5667263 C814.213422,29.5667263 810.076773,34.0275006 810.076773,40.004938 C810.076773,46.2755121 814.638685,50.4431498 820.244423,50.4431498 C822.177436,50.4431498 824.754787,49.9460921 826.120783,49.1686429 L826.352745,52.877458 C824.38145,53.5704647 822.296972,53.8946094 820.205763,53.8333382 C811.661844,53.8333382 805.978785,48.4039387 805.978785,39.9157226 C805.978785,31.6951529 812.009787,26.2275182 820.244423,26.2275182 C822.326501,26.1857133 824.394279,26.5764859 826.314084,27.3745744 Z M803.504529,26.6353604 L803.504529,30.0000587 L792.254392,30.0000587 L792.254392,37.8000411 L802.499362,37.8000411 L802.499362,41.1647394 L792.254392,41.1647394 L792.254392,49.9588372 L803.504529,49.9588372 L803.504529,53.3235355 L788.388365,53.3235355 L788.388365,26.6353604 L803.504529,26.6353604 Z M843.595222,26.6353604 L855,53.3235355 L850.786031,53.3235355 L848.041153,46.5941389 L834.819342,46.5941389 L832.074464,53.3235355 L828.015136,53.3235355 L839.535894,26.6353604 L843.595222,26.6353604 Z M771.899763,27.1961434 C768.546618,28.1114741 766.124433,30.9950273 765.829283,34.4229015 C765.534134,37.8507757 767.428455,41.0978642 770.576828,42.5607514 C773.725202,44.0236387 777.461645,43.3928765 779.941098,40.9799358 C779.671386,45.5475558 777.234509,49.7203099 773.368853,52.233832 C774.226193,48.9086544 772.904879,45.406609 770.054623,43.4497082 C767.204366,41.4928073 763.424897,41.4928073 760.57464,43.4497082 C757.724384,45.406609 756.40307,48.9086544 757.26041,52.233832 C753.393223,49.7217385 750.955861,45.5481527 750.688165,40.9799358 C753.16731,43.3842939 756.896409,44.0112198 760.039598,42.5520736 C763.182787,41.0929273 765.077704,37.8551943 764.791468,34.4328334 C764.505232,31.0104724 762.098161,28.1246765 758.755273,27.1961434 C762.890964,25.1433924 767.764073,25.1433924 771.899763,27.1961434 Z M841.430247,30.2294699 L836.056471,43.4588518 L846.804024,43.4588518 L841.430247,30.2294699 Z" transform="translate(-749 -24)"/>
</svg>
