<svg xmlns="http://www.w3.org/2000/svg" width="106" height="32"><path fill="#CCC" d="M32.597 14.705a15.912 15.912 0 00-.799-3.753 6.64 6.64 0 01-.928 3.549c-1.378 2.314-4.035 3.574-6.722 3.188-2.688-.385-4.873-2.34-5.53-4.946a6.577 6.577 0 012.535-6.934 6.75 6.75 0 017.45-.306A16.4 16.4 0 0016.327 0 16.4 16.4 0 004.053 5.503c2.79-1.7 6.413-1.155 8.564 1.29a6.566 6.566 0 01.107 8.567c-2.089 2.497-5.698 3.131-8.53 1.499a6.589 6.589 0 01-3.343-5.92 15.779 15.779 0 00-.787 3.766C.02 15.183 0 15.667 0 16.158.001 22.45 3.697 28.17 9.472 30.815c1.174.54 2.409.937 3.679 1.185-2.698-1.44-4.062-4.509-3.311-7.448.751-2.94 3.425-5 6.49-5 3.066 0 5.74 2.06 6.491 5 .751 2.94-.613 6.008-3.31 7.448a16.235 16.235 0 003.679-1.185c5.774-2.644 9.47-8.364 9.471-14.657 0-.51-.025-.994-.064-1.453zm44.717-11.33l-.31 3.683a10.936 10.936 0 00-5.566-1.491c-6.225 0-10.361 4.46-10.361 10.438 0 6.27 4.562 10.438 10.167 10.438 1.933 0 4.51-.497 5.877-1.274l.232 3.708a17.033 17.033 0 01-6.147.956c-8.544 0-14.227-5.43-14.227-13.917 0-8.22 6.03-13.688 14.265-13.688 2.083-.042 4.15.348 6.07 1.147zm-22.81-.74V6h-11.25v7.8H53.5v3.365H43.254v8.794h11.25v3.365H39.389V2.635h15.117zm40.091 0L106 29.324h-4.214l-2.745-6.73H85.82l-2.745 6.73h-4.059l11.52-26.689h4.06zM22.9 3.196c-3.353.915-5.776 3.799-6.07 7.227-.296 3.428 1.598 6.675 4.747 8.138a8.381 8.381 0 009.364-1.581c-.27 4.568-2.706 8.74-6.572 11.254a8.176 8.176 0 00-3.314-8.784 8.388 8.388 0 00-9.48 0 8.176 8.176 0 00-3.315 8.784c-3.867-2.512-6.304-6.686-6.572-11.254a8.381 8.381 0 009.352 1.572c3.143-1.46 5.038-4.697 4.751-8.12-.286-3.422-2.693-6.307-6.036-7.236a14.798 14.798 0 0113.145 0zM92.43 6.23l-5.374 13.23h10.748L92.43 6.229z"/></svg>