<svg xmlns="http://www.w3.org/2000/svg" width="142" height="32"><path fill="#CCC" d="M17.555 10.088v2.184c0 .15 0 .226-.151.3-.151 0-.302.076-.378-.15-.151-.376-.454-.451-.832-.451H4.476c-.378 0-.53.075-.53.527v2.86c0 .302.076.377.378.377h7.485c.454 0 .983 0 1.286-.527.075-.15.226-.075.302-.075.151 0 .151.15.151.225v2.334c0 .151 0 .226-.151.302-.151 0-.227.075-.302-.076-.152-.527-.605-.451-.983-.527H4.476c-.378 0-.454.076-.454.452v3.087c0 .3.076.376.378.376h12.475c.453 0 .983-.075 1.134-.602.075-.15.227-.15.378-.15s.151.15.151.3v2.259c0 .226-.302.376-.454.226-.34-.339-.741-.373-1.149-.376H.317c-.15 0-.302.075-.302-.151 0-.15.151-.15.227-.15.453 0 .605-.302.605-.754V11.67c0-.376-.152-.602-.53-.677-.15 0-.378 0-.302-.226 0-.226.302-.15.378-.15 2.352-.268 4.704-.298 7.056-.301h8.14c.53 0 1.21.15 1.588-.452.076-.151.378-.076.378.225zm11.946.377c0 .15-.151.15-.227.15-.605.151-.68.226-.68.829v9.185c0 .376.15.451.453.451h11.794c.303 0 .605 0 .908-.075.226-.075.453-.15.529-.452.075-.226.151-.226.378-.226.151 0 .227.151.227.302v2.108c0 .3-.303.451-.454.225-.378-.376-.756-.376-1.21-.376-2.138.065-4.443.074-6.725.075H24.89c-.076 0-.227 0-.227-.15 0-.076.076-.15.151-.15.638-.213.678-.226.68-.847v-10.07c0-.603 0-.678-.68-.829-.075 0-.227 0-.227-.15 0-.13.112-.148.19-.15h4.498c.151 0 .227 0 .227.15zM121.436 0c.302 0 .378.075.378.376 0 1.13 0 1.13-1.134 1.13-2.571 0-5.217-.076-7.788.075-2.343.15-4.687.602-6.804 1.732-1.36.752-2.42 1.731-2.797 3.237-.227.828-.076 1.581.378 2.334.756 1.355 1.965 2.258 3.175 3.162 1.436 1.054 3.1 1.882 4.536 2.86 1.437.98 2.798 2.034 3.63 3.54.906 1.58.755 3.237.302 4.968-.68 2.635-2.495 4.292-4.763 5.571-4.385 2.334-9.149 3.313-14.138 2.937-3.025-.226-5.898-.98-8.62-2.184-.529-.226-1.058-.602-1.587-.903-.151-.075-.302-.15-.302-.301.15-.753.15-1.43.15-2.108.53.376 1.06.753 1.513 1.054 2.344 1.43 4.914 2.183 7.56 2.56 2.798.376 5.595.225 8.317-.528 1.965-.527 3.78-1.28 5.292-2.71 1.739-1.732 2.193-4.216 1.059-6.173-.605-1.13-1.664-1.958-2.722-2.71-1.664-1.13-3.478-2.033-5.066-3.313-.983-.753-1.965-1.506-2.721-2.56-1.361-1.732-1.286-3.539-.454-5.42.907-1.958 2.495-3.238 4.31-4.217C105.936.83 108.96 0 112.211 0h9.224zM65.262 10.088v2.184c0 .075 0 .226-.152.226-.15 0-.302.075-.378-.076-.15-.376-.529-.451-.907-.527H52.182c-.378 0-.53.076-.53.527v2.71c0 .302.076.452.379.452h7.409c.454 0 .983 0 1.285-.527.076-.15.227-.075.303-.075.13 0 .148.11.15.19v2.445c0 .075 0 .226-.15.226-.076 0-.303.075-.303-.075-.226-.603-.756-.527-1.21-.527h-7.484c-.303 0-.454.075-.378.376v3.162c0 .301.075.377.378.377H64.43c.53 0 .983 0 1.21-.678.075-.15.226-.075.302-.075.151 0 .151.15.151.226v2.258c0 .226-.302.377-.453.226-.34-.339-.68-.373-1.076-.376H47.873c-.152 0-.227 0-.227-.151 0-.15.151-.15.227-.15.529 0 .604-.302.604-.753V11.669c0-.677 0-.677-.68-.903-.076 0-.227-.075-.227-.15 0-.151.151-.151.227-.151h.53c2.141-.126 4.283-.147 6.382-.15h8.587c.53 0 1.134.15 1.512-.452.076-.151.454-.151.454.225zm25.327 1.13c.454.15.907.3 1.437.075.15-.075.302 0 .378.15.075.151-.076.226-.152.302-.605.677-1.21 1.355-1.89 2.032-.151.151-.302.226-.529.151-.076 0-.151 0-.076-.075.227-.527-.226-.603-.453-.753-.832-.452-1.74-.678-2.722-.828-1.436-.377-2.722-.452-3.931-.452-2.042 0-4.007.226-5.822 1.13-.983.526-1.89 1.129-2.344 2.258-.378 1.054-.302 2.033.378 2.936.832 1.054 1.966 1.656 3.176 2.108 3.478 1.205 6.955 1.28 10.433-.15.454-.151.832-.377 1.21-.678.151-.15.378-.226.302-.527 0-.15-.151-.301.076-.376.227-.076.378-.076.529.075l2.041 1.656.076.075c.076.151.378.151.302.377-.075.15-.302.226-.529.15-.302-.15-.53-.075-.756.076-2.268 1.204-4.763 1.656-7.334 1.731-2.57.076-5.065-.075-7.484-.753-1.74-.527-3.403-1.355-4.537-2.785-1.058-1.28-1.436-2.786-.756-4.367.454-1.054 1.286-1.807 2.193-2.409 1.89-1.205 3.931-1.732 6.124-2.033 3.629-.451 7.107-.075 10.66.904zm42.49-.828c.075.225-.152.15-.303.225-.378.151-.227.377-.075.603l2.495 3.312 5.292 6.927c.378.451.68.978 1.36.903.076 0 .152.075.152.15 0 .151-.076.151-.151.151h-4.612c-.151 0-.378.076-.378-.15 0-.226.227-.15.302-.226.378-.075.454-.226.227-.527a41.759 41.759 0 00-1.663-2.183c-.151-.226-.378-.226-.53-.226h-9.526c-.302 0-.529.075-.68.376l-1.36 1.958c-.303.376-.228.527.226.602.151 0 .227.075.227.226 0 .15-.151.15-.303.15h-4.007c-.075 0-.302.076-.302-.15 0-.226.151-.226.302-.226.378 0 .605-.301.832-.602 1.21-1.506 2.268-3.162 3.402-4.743 1.361-1.883 2.722-3.765 4.007-5.647.378-.527.378-.527-.227-.753-.075 0-.15-.075-.15-.15 0-.151.15-.151.226-.151h4.839c.15 0 .378-.075.378.15zm-2.949 2.258c-.68.979-1.36 1.882-1.966 2.861a62.71 62.71 0 00-1.587 2.334c2.646-.075 5.216-.075 7.863-.075 0-.076-.076-.15-.076-.15-1.285-1.657-2.57-3.314-3.78-4.97-.151-.226-.303-.15-.454 0z"/></svg>