<svg xmlns="http://www.w3.org/2000/svg" width="142" height="32" viewBox="0 0 142 32">
  <path fill="#CCC" d="M599.555228,34.0884227 L599.555228,36.2717381 C599.555228,36.4223115 599.555228,36.4975983 599.404019,36.572885 C599.252811,36.572885 599.101602,36.6481717 599.025998,36.4223115 C598.874789,36.0458779 598.572371,35.9705911 598.19435,35.9705911 L586.475674,35.9705911 C586.097653,35.9705911 585.946444,36.0458779 585.946444,36.4975983 L585.946444,39.3584943 C585.946444,39.6596412 586.022048,39.7349279 586.324466,39.7349279 L593.809297,39.7349279 C594.262923,39.7349279 594.792154,39.7349279 595.094571,39.2079208 C595.170175,39.0573473 595.321384,39.1326341 595.396988,39.1326341 C595.548197,39.1326341 595.548197,39.2832075 595.548197,39.3584943 L595.548197,41.6923831 C595.548197,41.8429566 595.548197,41.9182433 595.396988,41.99353 C595.24578,41.99353 595.170175,42.0688168 595.094571,41.9182433 C594.943362,41.3912362 594.489736,41.4665229 594.111714,41.3912362 L586.475674,41.3912362 C586.097653,41.3912362 586.022048,41.4665229 586.022048,41.8429566 L586.022048,44.9297128 C586.022048,45.2308597 586.097653,45.3061465 586.40007,45.3061465 L598.874789,45.3061465 C599.328415,45.3061465 599.857646,45.2308597 600.008854,44.7038526 C600.084459,44.5532791 600.235667,44.5532791 600.386876,44.5532791 C600.538085,44.5532791 600.538085,44.7038526 600.538085,44.854426 L600.538085,47.1130281 C600.538085,47.3388883 600.235667,47.4894618 600.084459,47.3388883 C599.744239,47.000098 599.34278,46.966219 598.935197,46.9628311 L582.317435,46.9624547 C582.166226,46.9624547 582.015017,47.0377414 582.015017,46.8118812 C582.015017,46.6613077 582.166226,46.6613077 582.24183,46.6613077 C582.695456,46.6613077 582.846665,46.3601608 582.846665,45.9084403 L582.846665,35.6694442 C582.846665,35.2930105 582.695456,35.0671503 582.317435,34.9918635 C582.166226,34.9918635 581.939413,34.9918635 582.015017,34.7660033 C582.015017,34.5401431 582.317435,34.6154299 582.393039,34.6154299 C584.745175,34.3477437 587.09731,34.3180008 589.449446,34.314696 L597.589515,34.3142829 C598.118745,34.3142829 598.799185,34.4648564 599.177206,33.8625625 C599.252811,33.711989 599.555228,33.7872758 599.555228,34.0884227 Z M611.500717,34.4648564 C611.500717,34.6154299 611.349508,34.6154299 611.273903,34.6154299 C610.669069,34.7660033 610.593464,34.8412901 610.593464,35.443584 L610.593464,44.6285658 C610.593464,45.0049995 610.744673,45.0802862 611.04709,45.0802862 L622.84137,45.0802862 C623.143788,45.0802862 623.446205,45.0802862 623.748622,45.0049995 C623.975435,44.9297128 624.202249,44.854426 624.277853,44.5532791 C624.353457,44.3274189 624.429062,44.3274189 624.655875,44.3274189 C624.807083,44.3274189 624.882688,44.4779924 624.882688,44.6285658 L624.882688,46.7365945 C624.882688,47.0377414 624.58027,47.1883149 624.429062,46.9624547 C624.05104,46.586021 623.673018,46.586021 623.219392,46.586021 C621.080869,46.6505525 618.775707,46.6597713 616.494351,46.6610882 L606.888851,46.6613077 C606.813246,46.6613077 606.662038,46.6613077 606.662038,46.5107342 C606.662038,46.4354475 606.737642,46.3601608 606.813246,46.3601608 C607.451158,46.1484168 607.491028,46.1351828 607.49352,45.5140121 L607.493686,35.443584 C607.493686,34.8412901 607.493686,34.7660033 606.813246,34.6154299 C606.737642,34.6154299 606.586433,34.6154299 606.586433,34.4648564 C606.586433,34.3357934 606.697525,34.3173558 606.776877,34.3147219 L611.273903,34.3142829 C611.425112,34.3142829 611.500717,34.3142829 611.500717,34.4648564 Z M703.435615,24 C703.738032,24 703.813637,24.0752867 703.813637,24.3764337 C703.813637,25.5057347 703.813637,25.5057347 702.679571,25.5057347 C700.109023,25.5057347 697.462871,25.430448 694.892322,25.5810215 C692.548587,25.7315949 690.204852,26.1833154 688.08793,27.3126164 C686.727052,28.0654838 685.668591,29.0442114 685.290569,30.5499461 C685.063756,31.3781002 685.214965,32.1309676 685.668591,32.8838349 C686.424634,34.2389962 687.634304,35.142437 688.843974,36.0458779 C690.280457,37.0998922 691.943753,37.9280463 693.380235,38.9067738 C694.816718,39.8855014 696.177597,40.9395157 697.009244,42.4452505 C697.916497,44.0262719 697.765288,45.6825801 697.311662,47.4141751 C696.631223,50.0492109 694.816718,51.7055191 692.548587,52.9853936 C688.163535,55.3192824 683.40046,56.29801 678.410573,55.9215763 C675.386398,55.6957161 672.513433,54.9428487 669.791676,53.738261 C669.262445,53.5124007 668.733215,53.1359671 668.203984,52.8348201 C668.052776,52.7595334 667.901567,52.6842466 667.901567,52.5336732 C668.052776,51.7808058 668.052776,51.1032252 668.052776,50.4256445 C668.582006,50.8020782 669.111237,51.1785119 669.564863,51.4796589 C671.908598,52.9101069 674.479146,53.6629742 677.125299,54.0394079 C679.92266,54.4158416 682.720021,54.2652681 685.441778,53.5124007 C687.407491,52.9853936 689.221996,52.2325262 690.734083,50.8020782 C692.472983,49.0704833 692.926609,46.586021 691.792544,44.6285658 C691.187709,43.4992648 690.129248,42.6711107 689.070787,41.9182433 C687.407491,40.7889423 685.592987,39.8855014 684.005295,38.6056269 C683.022438,37.8527595 682.039582,37.0998922 681.283538,36.0458779 C679.92266,34.3142829 679.998264,32.5074012 680.829912,30.6252328 C681.737164,28.6677777 683.324856,27.3879031 685.13936,26.4091756 C687.936722,24.8281541 690.960896,24 694.211883,24 L703.435615,24 Z M647.261577,34.0884227 L647.261577,36.2717381 C647.261577,36.3470248 647.261577,36.4975983 647.110369,36.4975983 C646.95916,36.4975983 646.807951,36.572885 646.732347,36.4223115 C646.581138,36.0458779 646.203116,35.9705911 645.825095,35.8953044 L634.182024,35.8953044 C633.804002,35.8953044 633.652793,35.9705911 633.652793,36.4223115 L633.652793,39.1326341 C633.652793,39.433781 633.728398,39.5843545 634.030815,39.5843545 L641.440042,39.5843545 C641.893668,39.5843545 642.422899,39.5843545 642.725316,39.0573473 C642.80092,38.9067738 642.952129,38.9820606 643.027733,38.9820606 C643.157341,38.9820606 643.175856,39.092686 643.178501,39.1717041 L643.178942,41.6170964 C643.178942,41.6923831 643.178942,41.8429566 643.027733,41.8429566 C642.952129,41.8429566 642.725316,41.9182433 642.725316,41.7676698 C642.498503,41.1653759 641.969272,41.2406627 641.515646,41.2406627 L634.030815,41.2406627 C633.728398,41.2406627 633.577189,41.3159494 633.652793,41.6170964 L633.652793,44.7791393 C633.652793,45.0802862 633.728398,45.155573 634.030815,45.155573 L646.42993,45.155573 C646.95916,45.155573 647.412786,45.155573 647.639599,44.4779924 C647.715204,44.3274189 647.866412,44.4027056 647.942017,44.4027056 C648.093225,44.4027056 648.093225,44.5532791 648.093225,44.6285658 L648.093225,46.8871679 C648.093225,47.1130281 647.790808,47.2636016 647.639599,47.1130281 C647.29938,46.7742378 646.95916,46.7403588 646.563825,46.7369709 L629.872575,46.7365945 C629.721367,46.7365945 629.645762,46.7365945 629.645762,46.586021 C629.645762,46.4354475 629.796971,46.4354475 629.872575,46.4354475 C630.401806,46.4354475 630.47741,46.1343006 630.47741,45.6825801 L630.47741,35.6694442 C630.47741,34.9918635 630.47741,34.9918635 629.796971,34.7660033 C629.721367,34.7660033 629.570158,34.6907166 629.570158,34.6154299 C629.570158,34.4648564 629.721367,34.4648564 629.796971,34.4648564 L630.326201,34.4648564 C632.468325,34.3393785 634.610448,34.3184655 636.708819,34.31498 L645.295864,34.3142829 C645.825095,34.3142829 646.42993,34.4648564 646.807951,33.8625625 C646.883556,33.711989 647.261577,33.711989 647.261577,34.0884227 Z M672.589037,35.2177238 C673.042663,35.3682972 673.496289,35.5188707 674.02552,35.2930105 C674.176729,35.2177238 674.327937,35.2930105 674.403542,35.443584 C674.479146,35.5941574 674.327937,35.6694442 674.252333,35.7447309 C673.647498,36.4223115 673.042663,37.0998922 672.362224,37.7774728 C672.211015,37.9280463 672.059807,38.003333 671.832994,37.9280463 C671.757389,37.9280463 671.681785,37.9280463 671.757389,37.8527595 C671.984202,37.3257524 671.530576,37.2504656 671.303763,37.0998922 C670.472115,36.6481717 669.564863,36.4223115 668.582006,36.2717381 C667.145523,35.8953044 665.860249,35.8200176 664.65058,35.8200176 C662.609262,35.8200176 660.643549,36.0458779 658.829044,36.9493187 C657.846187,37.4763259 656.938935,38.0786197 656.485309,39.2079208 C656.107287,40.2619351 656.182892,41.2406627 656.863331,42.1441035 C657.694979,43.1981178 658.829044,43.8004117 660.038714,44.2521321 C663.516514,45.4567199 666.994315,45.5320067 670.472115,44.1015587 C670.925741,43.9509852 671.303763,43.725125 671.681785,43.423978 C671.832994,43.2734046 672.059807,43.1981178 671.984202,42.8969709 C671.984202,42.7463974 671.832994,42.5958239 672.059807,42.5205372 C672.28662,42.4452505 672.437828,42.4452505 672.589037,42.5958239 L674.630355,44.2521321 L674.705959,44.3274189 C674.781563,44.4779924 675.083981,44.4779924 675.008377,44.7038526 C674.932772,44.854426 674.705959,44.9297128 674.479146,44.854426 C674.176729,44.7038526 673.949916,44.7791393 673.723102,44.9297128 C671.454972,46.1343006 668.960028,46.586021 666.38948,46.6613077 C663.818932,46.7365945 661.323988,46.586021 658.904648,45.9084403 C657.165748,45.3814332 655.502452,44.5532791 654.368387,43.1228311 C653.309926,41.8429566 652.931904,40.3372218 653.612343,38.7562004 C654.06597,37.7021861 654.897618,36.9493187 655.80487,36.3470248 C657.694979,35.142437 659.736296,34.6154299 661.928823,34.3142829 C665.557832,33.8625625 669.035632,34.2389962 672.589037,35.2177238 Z M715.078686,34.3895697 C715.15429,34.6154299 714.927477,34.5401431 714.776268,34.6154299 C714.398247,34.7660033 714.549455,34.9918635 714.700664,35.2177238 L717.195608,38.5303402 L722.487913,45.4567199 C722.865935,45.9084403 723.168352,46.4354475 723.848791,46.3601608 C723.924396,46.3601608 724,46.4354475 724,46.5107342 C724,46.6613077 723.924396,46.6613077 723.848791,46.6613077 L719.236925,46.6613077 C719.085717,46.6613077 718.858904,46.7365945 718.858904,46.5107342 C718.858904,46.284874 719.085717,46.3601608 719.161321,46.284874 C719.539343,46.2095873 719.614947,46.0590138 719.388134,45.7578669 C718.858904,45.0049995 718.329673,44.3274189 717.724838,43.5745515 C717.57363,43.3486913 717.346817,43.3486913 717.195608,43.3486913 L707.669459,43.3486913 C707.367041,43.3486913 707.140228,43.423978 706.98902,43.725125 L705.628141,45.6825801 C705.325724,46.0590138 705.401328,46.2095873 705.854954,46.284874 C706.006163,46.284874 706.081767,46.3601608 706.081767,46.5107342 C706.081767,46.6613077 705.930559,46.6613077 705.77935,46.6613077 L701.772319,46.6613077 C701.696715,46.6613077 701.469902,46.7365945 701.469902,46.5107342 C701.469902,46.284874 701.62111,46.284874 701.772319,46.284874 C702.150341,46.284874 702.377154,45.9837271 702.603967,45.6825801 C703.813637,44.1768454 704.872098,42.5205372 706.006163,40.9395157 C707.367041,39.0573473 708.72792,37.1751789 710.013194,35.2930105 C710.391216,34.7660033 710.391216,34.7660033 709.786381,34.5401431 C709.710776,34.5401431 709.635172,34.4648564 709.635172,34.3895697 C709.635172,34.2389962 709.786381,34.2389962 709.861985,34.2389962 L714.700664,34.2389962 C714.851873,34.2389962 715.078686,34.1637094 715.078686,34.3895697 Z M712.130116,36.6481717 C711.449677,37.6268993 710.769237,38.5303402 710.164403,39.5090677 C709.635172,40.2619351 709.105942,41.0148025 708.576711,41.8429566 C711.222864,41.7676698 713.793412,41.7676698 716.439564,41.7676698 C716.439564,41.6923831 716.36396,41.6170964 716.36396,41.6170964 C715.078686,39.9607882 713.793412,38.30448 712.583742,36.6481717 C712.432533,36.4223115 712.281325,36.4975983 712.130116,36.6481717 Z" transform="translate(-582 -24)"/>
</svg>
