<svg xmlns="http://www.w3.org/2000/svg" width="82" height="56" viewBox="0 0 82 56">
  <path fill="#CCC" d="M1018.3031,62.4584779 C1018.55656,62.4584779 1018.6996,62.5116817 1018.73175,62.6176266 L1019.17904,64.0208189 C1019.23868,64.2183669 1019.3109,64.5232477 1019.39523,64.9354615 L1019.42505,64.9354615 C1019.51963,64.4765209 1019.59045,64.1716401 1019.63751,64.0208189 L1020.08853,62.6176266 C1020.12067,62.5116817 1020.26371,62.4584779 1020.51718,62.4584779 L1020.69982,62.4584779 C1021.00547,62.4584779 1021.15829,62.5139949 1021.15829,62.6250289 C1021.15829,62.6643535 1021.15037,62.710155 1021.13593,62.7619709 L1019.38731,67.8408513 C1019.34771,67.9467962 1019.20467,68 1018.95866,68 L1018.8282,68 C1018.52255,68 1018.36973,67.9467962 1018.36973,67.8408513 C1018.36973,67.8015267 1018.38091,67.7557252 1018.40328,67.7039093 L1018.88411,66.437659 L1017.62425,62.7619709 C1017.60235,62.685635 1017.59117,62.6398334 1017.59117,62.6250289 C1017.59117,62.5139949 1017.74632,62.4584779 1018.05709,62.4584779 L1018.3031,62.4584779 Z M1029.43172,62.4145269 C1029.52118,62.4145269 1029.61809,62.4205413 1029.72246,62.4316447 C1029.82682,62.4427481 1029.94796,62.4631043 1030.08588,62.493176 C1030.22379,62.5232477 1030.33748,62.5727504 1030.42694,62.6426093 C1030.51639,62.7120056 1030.56112,62.796669 1030.56112,62.8961369 C1030.56112,62.96322 1030.52292,63.0733287 1030.44744,63.2273884 C1030.37149,63.3809854 1030.3002,63.4577839 1030.23311,63.4577839 C1030.23078,63.4577839 1030.15577,63.4314134 1030.00947,63.3786722 C1029.86317,63.3259311 1029.72106,63.2990978 1029.58454,63.2990978 C1029.30872,63.2990978 1029.1708,63.3902383 1029.1708,63.5720564 C1029.1708,63.6460791 1029.19876,63.7099237 1029.25513,63.7640527 C1029.31104,63.8181818 1029.38419,63.8635207 1029.47505,63.900532 C1029.56591,63.9375434 1029.66515,63.9750173 1029.77324,64.012954 C1029.88134,64.0508906 1029.98943,64.099468 1030.09753,64.1586861 C1030.20562,64.2179042 1030.30486,64.2877631 1030.39572,64.3691881 C1030.48657,64.450613 1030.55972,64.5602591 1030.61563,64.6995142 C1030.67155,64.8383067 1030.6995,64.9988434 1030.6995,65.1806616 C1030.6995,65.5776081 1030.56858,65.8963683 1030.30626,66.1369419 C1030.04394,66.3775156 1029.69916,66.4978025 1029.27191,66.4978025 C1029.04081,66.4978025 1028.82648,66.4783715 1028.62893,66.4404349 C1028.43138,66.4024983 1028.26597,66.3418922 1028.13272,66.2590793 C1027.999,66.1758038 1027.93284,66.0763359 1027.93284,65.9602128 C1027.93284,65.876012 1027.98176,65.7617395 1028.08007,65.6160074 C1028.17838,65.4702753 1028.26458,65.3985658 1028.33913,65.4013417 C1028.36149,65.4013417 1028.41134,65.4184594 1028.48822,65.4531575 C1028.56556,65.4878557 1028.65875,65.5230164 1028.76824,65.5586398 C1028.87773,65.5947259 1028.98443,65.6123063 1029.0888,65.6123063 C1029.39957,65.6123063 1029.55472,65.4989591 1029.55472,65.2722646 C1029.55472,65.1839001 1029.52677,65.1080268 1029.47086,65.0455702 C1029.41495,64.9831136 1029.3418,64.9326856 1029.25094,64.8942864 C1029.16009,64.8563498 1029.06084,64.8188758 1028.95275,64.7818644 C1028.84465,64.7448531 1028.73609,64.6990516 1028.62846,64.6435346 C1028.52037,64.5884802 1028.42113,64.5227851 1028.33027,64.4464492 C1028.23942,64.3701133 1028.16627,64.2641684 1028.11036,64.1272265 C1028.05445,63.9907472 1028.02649,63.8302105 1028.02649,63.6460791 C1028.02649,63.2667129 1028.15229,62.9664585 1028.40482,62.7457784 C1028.65689,62.5250983 1028.99934,62.4145269 1029.43172,62.4145269 Z M1032.58184,62.4145269 C1032.6713,62.4145269 1032.76821,62.4205413 1032.87258,62.4316447 C1032.97694,62.4427481 1033.09808,62.4631043 1033.236,62.493176 C1033.37391,62.5232477 1033.4876,62.5727504 1033.57705,62.6426093 C1033.66651,62.7120056 1033.71124,62.796669 1033.71124,62.8961369 C1033.71124,62.96322 1033.67303,63.0733287 1033.59755,63.2273884 C1033.52161,63.3809854 1033.45032,63.4577839 1033.38323,63.4577839 C1033.3809,63.4577839 1033.30589,63.4314134 1033.15958,63.3786722 C1033.01282,63.3259311 1032.87118,63.2990978 1032.73466,63.2990978 C1032.45883,63.2990978 1032.32092,63.3902383 1032.32092,63.5720564 C1032.32092,63.6460791 1032.34888,63.7099237 1032.40479,63.7640527 C1032.4607,63.8181818 1032.53385,63.8635207 1032.6247,63.900532 C1032.71556,63.9375434 1032.8148,63.9750173 1032.9229,64.012954 C1033.03099,64.0508906 1033.13908,64.099468 1033.24718,64.1586861 C1033.35527,64.2179042 1033.45452,64.2877631 1033.54537,64.3691881 C1033.63623,64.450613 1033.70938,64.5602591 1033.76529,64.6995142 C1033.8212,64.8383067 1033.84915,64.9988434 1033.84915,65.1806616 C1033.84915,65.5776081 1033.71823,65.8963683 1033.45591,66.1369419 C1033.1936,66.3775156 1032.84881,66.4978025 1032.42156,66.4978025 C1032.19046,66.4978025 1031.97614,66.4783715 1031.77858,66.4404349 C1031.58103,66.4024983 1031.41563,66.3418922 1031.28237,66.2590793 C1031.14912,66.1758038 1031.08296,66.0763359 1031.08296,65.9602128 C1031.08296,65.876012 1031.13188,65.7617395 1031.23019,65.6160074 C1031.3285,65.4702753 1031.4147,65.3985658 1031.48924,65.4013417 C1031.51161,65.4013417 1031.56146,65.4184594 1031.63834,65.4531575 C1031.71568,65.4878557 1031.80887,65.5230164 1031.91836,65.5586398 C1032.02785,65.5947259 1032.13455,65.6123063 1032.23892,65.6123063 C1032.54969,65.6123063 1032.70484,65.4989591 1032.70484,65.2722646 C1032.70484,65.1839001 1032.67689,65.1080268 1032.62098,65.0455702 C1032.56506,64.9831136 1032.49191,64.9326856 1032.40106,64.8942864 C1032.3102,64.8563498 1032.21096,64.8188758 1032.10287,64.7818644 C1031.99477,64.7448531 1031.88621,64.6990516 1031.77858,64.6435346 C1031.67049,64.5884802 1031.57125,64.5227851 1031.48039,64.4464492 C1031.38954,64.3701133 1031.31639,64.2641684 1031.26047,64.1272265 C1031.20456,63.9907472 1031.17661,63.8302105 1031.17661,63.6460791 C1031.17661,63.2667129 1031.30241,62.9664585 1031.55494,62.7457784 C1031.807,62.5250983 1032.14946,62.4145269 1032.58184,62.4145269 Z M1010.69874,62.4145269 C1010.7882,62.4145269 1010.88511,62.4205413 1010.98948,62.4316447 C1011.09384,62.4427481 1011.21498,62.4631043 1011.3529,62.493176 C1011.49081,62.5232477 1011.6045,62.5727504 1011.69396,62.6426093 C1011.78341,62.7120056 1011.82814,62.796669 1011.82814,62.8961369 C1011.82814,62.96322 1011.7904,63.0733287 1011.71446,63.2273884 C1011.63851,63.3809854 1011.56722,63.4577839 1011.50013,63.4577839 C1011.49734,63.4577839 1011.42279,63.4314134 1011.27649,63.3786722 C1011.12972,63.3259311 1010.98808,63.2990978 1010.85156,63.2990978 C1010.57574,63.2990978 1010.43782,63.3902383 1010.43782,63.5720564 C1010.43782,63.6460791 1010.46578,63.7099237 1010.52169,63.7640527 C1010.5776,63.8181818 1010.65075,63.8635207 1010.7416,63.900532 C1010.83246,63.9375434 1010.9317,63.9750173 1011.0398,64.012954 C1011.14789,64.0508906 1011.25599,64.099468 1011.36408,64.1586861 C1011.47218,64.2179042 1011.57142,64.2877631 1011.66227,64.3691881 C1011.75313,64.450613 1011.82628,64.5602591 1011.88219,64.6995142 C1011.9381,64.8383067 1011.96606,64.9988434 1011.96606,65.1806616 C1011.96606,65.5776081 1011.83513,65.8963683 1011.57281,66.1369419 C1011.3105,66.3775156 1010.96571,66.4978025 1010.53846,66.4978025 C1010.30736,66.4978025 1010.09304,66.4783715 1009.89502,66.4404349 C1009.69747,66.4024983 1009.53206,66.3418922 1009.39927,66.2590793 C1009.26555,66.1758038 1009.19939,66.0763359 1009.19939,65.9602128 C1009.19939,65.876012 1009.24832,65.7617395 1009.34663,65.6160074 C1009.44494,65.4702753 1009.53113,65.3985658 1009.60568,65.4013417 C1009.62804,65.4013417 1009.6779,65.4184594 1009.75478,65.4531575 C1009.83212,65.4878557 1009.9253,65.5230164 1010.0348,65.5586398 C1010.14382,65.5947259 1010.25099,65.6123063 1010.35535,65.6123063 C1010.66612,65.6123063 1010.82128,65.4989591 1010.82128,65.2722646 C1010.82128,65.1839001 1010.79332,65.1080268 1010.73741,65.0455702 C1010.6815,64.9831136 1010.60835,64.9326856 1010.51749,64.8942864 C1010.42664,64.8563498 1010.3274,64.8188758 1010.2193,64.7818644 C1010.11121,64.7448531 1010.00311,64.6990516 1009.89502,64.6435346 C1009.78692,64.5884802 1009.68768,64.5227851 1009.59683,64.4464492 C1009.50597,64.3701133 1009.43282,64.2641684 1009.37691,64.1272265 C1009.321,63.9907472 1009.29304,63.8302105 1009.29304,63.6460791 C1009.29304,63.2667129 1009.41884,62.9664585 1009.67138,62.7457784 C1009.92391,62.5250983 1010.26636,62.4145269 1010.69874,62.4145269 Z M1005.83635,62.4584779 C1006.14199,62.4584779 1006.29482,62.5389776 1006.29482,62.6990516 L1006.29482,65.105251 C1006.29482,65.2606986 1006.33069,65.3777469 1006.40291,65.4568587 C1006.47513,65.5359704 1006.59208,65.5752949 1006.75375,65.5752949 C1006.8926,65.5752949 1007.01374,65.5304187 1007.11717,65.4402036 C1007.22014,65.3499884 1007.30261,65.2482073 1007.36505,65.1348601 L1007.36505,62.6990516 C1007.36505,62.5385149 1007.51787,62.4584779 1007.82352,62.4584779 L1008.03598,62.4584779 C1008.34163,62.4584779 1008.49445,62.5389776 1008.49445,62.6990516 L1008.49445,65.105251 C1008.49445,65.4161462 1008.50936,65.6766135 1008.53918,65.8866528 C1008.569,66.0962295 1008.58391,66.2026371 1008.58391,66.2049503 C1008.58391,66.284062 1008.48047,66.3437428 1008.27453,66.3844552 C1008.06813,66.4251677 1007.88688,66.4455239 1007.73033,66.4455239 C1007.69073,66.4455239 1007.65532,66.4367337 1007.6241,66.419616 C1007.59288,66.4024983 1007.56866,66.382142 1007.55142,66.3585473 C1007.53371,66.3349526 1007.51787,66.302105 1007.50296,66.2586167 C1007.48805,66.215591 1007.47687,66.179505 1007.46941,66.1512838 C1007.46196,66.1230627 1007.45357,66.0828129 1007.44519,66.030997 C1007.43633,65.9791811 1007.42981,65.9435577 1007.42468,65.9236641 C1007.30308,66.0842008 1007.14047,66.2197548 1006.93826,66.3307888 C1006.73558,66.4418228 1006.51893,66.4973398 1006.28783,66.4973398 C1005.90484,66.4973398 1005.62249,66.3983345 1005.43938,66.1993986 C1005.25674,66.0004626 1005.16541,65.691418 1005.16541,65.271802 L1005.16541,62.6990516 C1005.16541,62.5385149 1005.31824,62.4584779 1005.62388,62.4584779 L1005.83635,62.4584779 Z M1040.62324,62.4140643 C1040.81427,62.4140643 1041.0039,62.43257 1041.19167,62.4695813 C1041.37897,62.5065926 1041.54251,62.5667361 1041.68182,62.6490863 C1041.82113,62.7318991 1041.89055,62.827666 1041.89055,62.9359241 C1041.89055,63.0127226 1041.83884,63.1288457 1041.73587,63.2856812 C1041.63243,63.4425168 1041.54996,63.5207032 1041.48799,63.5207032 C1041.47029,63.5207032 1041.42463,63.5021975 1041.35008,63.4651862 C1041.11898,63.3541522 1040.89767,63.2986352 1040.6866,63.2986352 C1040.38562,63.2986352 1040.16663,63.3925515 1040.02872,63.5799214 C1039.8908,63.7677539 1039.82185,64.0573676 1039.82185,64.4496877 C1039.82185,64.8470969 1039.88661,65.1399491 1040.01567,65.3291696 C1040.14473,65.5179274 1040.35207,65.6123063 1040.63815,65.6123063 C1040.88416,65.6123063 1041.13436,65.5544761 1041.38735,65.438353 C1041.47448,65.4064307 1041.52014,65.3902383 1041.52527,65.3902383 C1041.60261,65.3902383 1041.68788,65.4647236 1041.78246,65.6141568 C1041.87704,65.7635901 1041.9241,65.8815637 1041.9241,65.9680777 C1041.9241,66.0471895 1041.88543,66.1193616 1041.80855,66.184594 C1041.73167,66.2498265 1041.63756,66.3011797 1041.52713,66.3381911 C1041.41671,66.3752024 1041.29603,66.406662 1041.16557,66.43257 C1041.03511,66.4584779 1040.92143,66.4755957 1040.82452,66.4843858 C1040.7276,66.493176 1040.64793,66.4973398 1040.58596,66.4973398 C1039.9346,66.4973398 1039.45144,66.3317141 1039.136,66.0009253 C1038.81964,65.6701365 1038.66216,65.1644691 1038.66216,64.4834606 C1038.66216,63.7950497 1038.82057,63.2778163 1039.1374,62.932223 C1039.45423,62.5870923 1039.94951,62.4140643 1040.62324,62.4140643 Z M1046.07037,62.4145269 C1046.64485,62.4145269 1047.06139,62.5269489 1047.32137,62.7513301 C1047.58089,62.976174 1047.71089,63.2856812 1047.71089,63.6807772 L1047.71089,65.1057136 C1047.71089,65.4166088 1047.7258,65.6770761 1047.75562,65.8871154 C1047.78544,66.0966921 1047.80035,66.2030997 1047.80035,66.2054129 C1047.80035,66.2845246 1047.69738,66.3442054 1047.49097,66.3849179 C1047.28503,66.4256303 1047.10332,66.4459866 1046.94677,66.4459866 C1046.9067,66.4459866 1046.87129,66.4371964 1046.84054,66.4200786 C1046.80932,66.4029609 1046.78509,66.3826047 1046.76786,66.3590099 C1046.75062,66.3354152 1046.73431,66.3025677 1046.7194,66.2590793 C1046.70449,66.2160537 1046.69331,66.1804303 1046.68585,66.1517465 C1046.6784,66.1235253 1046.67048,66.0832755 1046.66162,66.0314596 C1046.65277,65.9796438 1046.64625,65.9435577 1046.64112,65.9241268 C1046.62388,65.9588249 1046.58987,66.0032385 1046.53909,66.0573676 C1046.4883,66.1114966 1046.41841,66.1744159 1046.32942,66.2461254 C1046.23996,66.3173722 1046.12395,66.3775156 1045.97998,66.4256303 C1045.83647,66.4737451 1045.68411,66.4978025 1045.5229,66.4978025 C1045.13013,66.4978025 1044.84265,66.3974092 1044.65955,66.1961601 C1044.47597,65.9944483 1044.38465,65.7261161 1044.38465,65.3902383 C1044.38465,65.247282 1044.3977,65.1177423 1044.42379,65.0016192 C1044.44988,64.8854962 1044.50859,64.7610456 1044.59944,64.6278048 C1044.6903,64.494564 1044.81237,64.38353 1044.96566,64.2947028 C1045.11895,64.2058755 1045.33281,64.1313902 1045.60817,64.0707842 C1045.88306,64.0106408 1046.20735,63.9801064 1046.58102,63.9801064 L1046.58102,63.7321305 C1046.58102,63.5863983 1046.53396,63.4781402 1046.43938,63.4064307 C1046.3448,63.3347213 1046.19337,63.2990978 1045.98464,63.2990978 C1045.82063,63.2990978 1045.66455,63.3194541 1045.51685,63.3601666 C1045.36868,63.400879 1045.25174,63.4415915 1045.16461,63.482304 C1045.07748,63.5230164 1045.0253,63.5433727 1045.00806,63.5433727 C1044.93351,63.5433727 1044.84824,63.4642609 1044.75273,63.3065001 C1044.65675,63.1482767 1044.60876,63.025214 1044.60876,62.9363868 C1044.60876,62.8008328 1044.74993,62.6796206 1045.03229,62.5736757 C1045.31417,62.4677307 1045.66035,62.4145269 1046.07037,62.4145269 Z M1049.55921,61.5072866 C1049.81501,61.5072866 1049.94313,61.5877863 1049.94313,61.7487856 L1049.94313,62.4732824 L1050.31587,62.4732824 C1050.39555,62.4732824 1050.45379,62.5028915 1050.49106,62.5621096 C1050.52834,62.6208651 1050.54697,62.716632 1050.54697,62.8498728 L1050.54697,62.9784872 C1050.54697,63.1112653 1050.52834,63.2079574 1050.49106,63.2681009 C1050.45379,63.3282443 1050.39508,63.358316 1050.31587,63.358316 L1049.94313,63.358316 L1049.94313,65.2866065 C1049.94313,65.4004164 1049.96503,65.4827666 1050.00836,65.5350451 C1050.05169,65.586861 1050.12205,65.6132316 1050.21896,65.6132316 C1050.24412,65.6132316 1050.28093,65.6081425 1050.33078,65.598427 C1050.38017,65.5882489 1050.41139,65.5836225 1050.42397,65.5836225 C1050.48873,65.5836225 1050.54371,65.6576452 1050.5903,65.8056905 C1050.63596,65.9537358 1050.6588,66.0610687 1050.6588,66.1276891 C1050.6588,66.3747398 1050.41512,66.4978025 1049.92822,66.4978025 C1049.18507,66.4978025 1048.81373,66.0892898 1048.81373,65.2713393 L1048.81373,63.3578533 L1048.69073,63.3578533 C1048.61105,63.3578533 1048.55281,63.3277816 1048.51554,63.2676382 C1048.47827,63.2074948 1048.45963,63.1112653 1048.45963,62.9784872 L1048.45963,62.8498728 C1048.45963,62.7170946 1048.47827,62.6213278 1048.51554,62.5621096 C1048.55281,62.5028915 1048.61105,62.4732824 1048.69073,62.4732824 L1048.81373,62.4732824 L1048.91064,61.7487856 C1048.93301,61.5877863 1049.07092,61.5072866 1049.32439,61.5072866 L1049.55921,61.5072866 Z M1013.44909,61.5072866 C1013.70489,61.5072866 1013.83302,61.5877863 1013.83302,61.7487856 L1013.83302,62.4732824 L1014.20576,62.4732824 C1014.28543,62.4732824 1014.34367,62.5028915 1014.38094,62.5621096 C1014.41822,62.6208651 1014.43686,62.716632 1014.43686,62.8498728 L1014.43686,62.9784872 C1014.43686,63.1112653 1014.41822,63.2079574 1014.38094,63.2681009 C1014.34367,63.3282443 1014.28543,63.358316 1014.20576,63.358316 L1013.83302,63.358316 L1013.83302,65.2866065 C1013.83302,65.4004164 1013.85492,65.4827666 1013.89825,65.5350451 C1013.94158,65.586861 1014.01193,65.6132316 1014.10884,65.6132316 C1014.13354,65.6132316 1014.17081,65.6081425 1014.22067,65.598427 C1014.27005,65.5882489 1014.30127,65.5836225 1014.31385,65.5836225 C1014.37862,65.5836225 1014.43359,65.6576452 1014.47972,65.8056905 C1014.52585,65.9537358 1014.54868,66.0610687 1014.54868,66.1276891 C1014.54868,66.3747398 1014.305,66.4978025 1013.81811,66.4978025 C1013.07496,66.4978025 1012.70361,66.0892898 1012.70361,65.2713393 L1012.70361,63.3578533 L1012.58061,63.3578533 C1012.50094,63.3578533 1012.4427,63.3277816 1012.40542,63.2676382 C1012.36815,63.2074948 1012.34951,63.1112653 1012.34951,62.9784872 L1012.34951,62.8498728 C1012.34951,62.7170946 1012.36815,62.6213278 1012.40542,62.5621096 C1012.4427,62.5028915 1012.50094,62.4732824 1012.58061,62.4732824 L1012.70361,62.4732824 L1012.80053,61.7487856 C1012.82289,61.5877863 1012.96081,61.5072866 1013.21427,61.5072866 L1013.44909,61.5072866 Z M990.234383,62.4145269 C990.467811,62.4145269 990.678409,62.4492251 990.866177,62.5181587 C991.053945,62.5875549 991.209564,62.6810086 991.333966,62.7994448 C991.457902,62.9178811 991.561803,63.0603747 991.645204,63.2269257 C991.728604,63.3934768 991.788709,63.5711312 991.825983,63.759889 C991.863257,63.9486468 991.881894,64.1517465 991.881894,64.3687254 C991.881894,64.4330326 991.830642,64.5237104 991.727207,64.6407587 C991.623771,64.7578071 991.546428,64.8165626 991.493778,64.8165626 L989.544348,64.8165626 C989.569042,65.105251 989.65617,65.3102012 989.805266,65.4309507 C989.954362,65.5517002 990.160767,65.6123063 990.424014,65.6123063 C990.565656,65.6123063 990.704967,65.5924127 990.841483,65.5530881 C990.977999,65.5137636 991.091219,65.4739764 991.180677,65.4346519 C991.270134,65.3953273 991.326045,65.3754337 991.34841,65.3754337 C991.425287,65.3754337 991.510551,65.4503817 991.603736,65.5993523 C991.696921,65.7487856 991.743514,65.8662966 991.743514,65.9528105 C991.743514,66.0416378 991.693194,66.1226 991.592554,66.1952348 C991.491914,66.2683322 991.366581,66.3252371 991.216087,66.3673375 C991.065593,66.4094379 990.916497,66.4413602 990.768799,66.463567 C990.621101,66.4857738 990.488312,66.4968772 990.371831,66.4968772 C989.700899,66.4968772 989.200495,66.3196854 988.871087,65.9657645 C988.542609,65.6118436 988.378138,65.1177423 988.378138,64.4834606 C988.378138,64.1184363 988.422867,63.8010641 988.512324,63.5322693 C988.601782,63.2634744 988.730377,63.0483461 988.89811,62.8864215 C989.065843,62.7249595 989.260134,62.605598 989.481448,62.5292621 C989.702763,62.4529262 989.95343,62.4145269 990.234383,62.4145269 Z M1036.17505,62.4145269 C1036.77889,62.4145269 1037.23783,62.5884802 1037.55093,62.9363868 C1037.86403,63.2842933 1038.02058,63.7890354 1038.02058,64.4501504 C1038.02058,65.1140412 1037.86403,65.6210965 1037.55093,65.9713162 C1037.23783,66.3219986 1036.77889,66.4968781 1036.17505,66.4968781 C1035.56935,66.4973398 1035.10808,66.3210733 1034.79219,65.9694656 C1034.47629,65.617858 1034.31881,65.1112653 1034.31881,64.4501504 C1034.31881,63.7890354 1034.47675,63.2842933 1034.79219,62.9363868 C1035.10762,62.5880176 1035.56888,62.4145269 1036.17505,62.4145269 Z M1055.03197,62.4145269 C1055.63581,62.4145269 1056.09474,62.5884802 1056.40784,62.9363868 C1056.72095,63.2842933 1056.8775,63.7890354 1056.8775,64.4501504 C1056.8775,65.1140412 1056.72095,65.6210965 1056.40784,65.9713162 C1056.09474,66.3219986 1055.63581,66.4968781 1055.03197,66.4968781 C1054.4258,66.4973398 1053.96453,66.3210733 1053.6491,65.9694656 C1053.3332,65.617858 1053.17572,65.1112653 1053.17572,64.4501504 C1053.17572,63.7890354 1053.33367,63.2842933 1053.6491,62.9363868 C1053.96453,62.5880176 1054.4258,62.4145269 1055.03197,62.4145269 Z M1003.78208,60.7221837 C1004.08773,60.7221837 1004.24055,60.8022207 1004.24055,60.9622947 L1004.24055,65.0992366 C1004.24055,65.4110571 1004.25593,65.6724497 1004.28715,65.882489 C1004.31836,66.092991 1004.33374,66.1993986 1004.33374,66.2017118 C1004.33374,66.2817488 1004.22984,66.3418922 1004.0225,66.3830673 C1003.81516,66.4242424 1003.63299,66.4445987 1003.47644,66.4445987 C1003.43683,66.4445987 1003.40142,66.4358085 1003.37021,66.4182281 C1003.33899,66.4006477 1003.31476,66.3802915 1003.29752,66.3566967 C1003.27982,66.333102 1003.26397,66.3002545 1003.24907,66.2576914 C1003.23416,66.2151284 1003.22297,66.1790423 1003.21552,66.1494333 C1003.20806,66.1193616 1003.19968,66.080037 1003.19129,66.0300717 C1003.18244,65.980569 1003.17592,65.9454083 1003.17079,65.9255147 C1003.079,66.0948415 1002.94295,66.2322461 1002.76264,66.3377284 C1002.58233,66.4436734 1002.37779,66.4964145 1002.14948,66.4964145 C1001.72689,66.4964145 1001.3835,66.3159843 1001.11886,65.9551238 C1000.85421,65.5947259 1000.72142,65.0918344 1000.72142,64.4464492 C1000.72142,63.8209577 1000.8626,63.3254684 1001.14495,62.9609068 C1001.4273,62.5963451 1001.82287,62.4140643 1002.33212,62.4140643 C1002.63544,62.4140643 1002.89496,62.4917881 1003.11115,62.6472357 L1003.11115,60.9627573 C1003.11115,60.8022207 1003.26397,60.7221837 1003.56962,60.7221837 L1003.78208,60.7221837 Z M995.205337,61.1075642 C995.507722,61.1075642 995.658682,61.191765 995.658682,61.3592413 L995.658682,66.2123525 C995.658682,66.3775156 995.507722,66.4603285 995.205337,66.4603285 L994.937896,66.4603285 C994.633181,66.4603285 994.480823,66.3775156 994.480823,66.2123525 L994.480823,61.3592413 C994.480823,61.1913023 994.633181,61.1075642 994.937896,61.1075642 L995.205337,61.1075642 Z M982.786106,61.129771 C982.86578,61.129771 982.92402,61.1598427 982.961294,61.2204488 C982.998568,61.2805922 983.017205,61.3772843 983.017205,61.5100625 L983.017205,61.7423086 C983.017205,61.8750867 982.998568,61.9717789 982.961294,62.0319223 C982.92402,62.0920657 982.86578,62.1226 982.786106,62.1226 L981.108776,62.1226 L981.108776,63.2329401 L982.734389,63.2329401 C982.814062,63.2329401 982.871371,63.2625492 982.907713,63.3217673 C982.943589,63.3809854 982.96176,63.4772149 982.96176,63.6109183 L982.96176,63.8477909 C982.96176,63.9810317 982.943589,64.0772612 982.907713,64.1364793 C982.871371,64.1956974 982.813596,64.2253065 982.734389,64.2253065 L981.108776,64.2253065 L981.108776,66.2132778 C981.108776,66.3738145 980.955953,66.4538515 980.650306,66.4538515 L980.389388,66.4538515 C980.083276,66.4529262 979.930452,66.3724266 979.930452,66.2123525 L979.930452,61.4332639 C979.930452,61.327319 979.95468,61.2500578 980.003136,61.2019431 C980.051593,61.1538284 980.129402,61.129771 980.236099,61.129771 L982.786106,61.129771 Z M1043.16532,62.4589406 C1043.47097,62.4589406 1043.62379,62.5394402 1043.62379,62.6995142 L1043.62379,66.2123525 C1043.62379,66.3728892 1043.47097,66.4529262 1043.16532,66.4529262 L1042.95286,66.4529262 C1042.64722,66.4529262 1042.49439,66.3724266 1042.49439,66.2123525 L1042.49439,62.6995142 C1042.49439,62.5389776 1042.64722,62.4589406 1042.95286,62.4589406 L1043.16532,62.4589406 Z M1059.87805,62.4140643 C1060.26058,62.4140643 1060.54339,62.5135323 1060.72604,62.7120056 C1060.90868,62.9109415 1061,63.2199861 1061,63.6396021 L1061,66.2123525 C1061,66.3728892 1060.84718,66.4529262 1060.54153,66.4529262 L1060.32907,66.4529262 C1060.02342,66.4529262 1059.8706,66.3728892 1059.8706,66.2123525 L1059.8706,63.8061531 C1059.8706,63.6507055 1059.83472,63.5336572 1059.7625,63.4545455 C1059.69075,63.3754337 1059.5738,63.3361092 1059.41213,63.3361092 C1059.27282,63.3361092 1059.15214,63.3809854 1059.04871,63.4712006 C1058.94574,63.5614157 1058.8628,63.6631969 1058.80083,63.7765441 L1058.80083,66.2123525 C1058.80083,66.3728892 1058.64801,66.4529262 1058.34236,66.4529262 L1058.1299,66.4529262 C1057.82426,66.4529262 1057.67143,66.3728892 1057.67143,66.2123525 L1057.67143,63.8061531 C1057.67143,63.5026602 1057.65512,63.2495952 1057.62298,63.0474208 L1057.57825,62.7397641 C1057.57825,62.6606523 1057.68261,62.6005089 1057.89135,62.5584085 C1058.10008,62.5167708 1058.28133,62.4954892 1058.43555,62.4954892 C1058.47515,62.4954892 1058.51103,62.5042794 1058.54178,62.5213972 C1058.573,62.5385149 1058.59722,62.5584085 1058.61446,62.5806153 C1058.6317,62.6028221 1058.64801,62.6338191 1058.66292,62.6731437 C1058.67783,62.7124682 1058.68901,62.7467037 1058.69647,62.7749248 C1058.70392,62.803146 1058.71184,62.8406199 1058.7207,62.8878094 C1058.72955,62.9345362 1058.73654,62.968309 1058.7412,62.98774 C1058.8628,62.8272033 1059.02541,62.6916493 1059.22762,62.5806153 C1059.42983,62.4695813 1059.64695,62.4140643 1059.87805,62.4140643 Z M1025.55662,61.1145038 C1025.80775,61.1145038 1025.95312,61.1681703 1025.99273,61.2755031 L1027.67378,66.1498959 C1027.68869,66.2012491 1027.69615,66.2470507 1027.69615,66.2863752 C1027.69615,66.3969466 1027.56942,66.4524664 1027.31642,66.4524664 L1026.98142,66.4524664 C1026.72842,66.4524664 1026.58538,66.3992598 1026.55323,66.2919269 L1026.24805,65.3601666 L1024.44213,65.3601666 L1024.13648,66.2919269 C1024.10154,66.3987971 1023.98459,66.4524664 1023.78564,66.4524664 L1023.47999,66.4524664 C1023.16969,66.4529262 1023.01407,66.3969466 1023.01407,66.2849873 C1023.01407,66.2627805 1023.02385,66.2169789 1023.04389,66.1480453 L1024.72541,61.2736526 C1024.76501,61.1677076 1024.90945,61.1145038 1025.15779,61.1145038 L1025.55662,61.1145038 Z M984.366524,62.4589406 C984.672171,62.4589406 984.824994,62.5394402 984.824994,62.6995142 L984.824994,66.2123525 C984.824994,66.3728892 984.672171,66.4529262 984.366524,66.4529262 L984.154062,66.4529262 C983.848415,66.4529262 983.695592,66.3724266 983.695592,66.2123525 L983.695592,62.6995142 C983.695592,62.5389776 983.848415,62.4589406 984.154062,62.4589406 L984.366524,62.4589406 Z M998.831165,62.4140643 C999.213689,62.4140643 999.496506,62.5135323 999.679148,62.7120056 C999.861791,62.9109415 999.953112,63.2199861 999.953112,63.6396021 L999.953112,66.2123525 C999.953112,66.3728892 999.800289,66.4529262 999.494642,66.4529262 L999.28218,66.4529262 C998.976533,66.4529262 998.82371,66.3728892 998.82371,66.2123525 L998.82371,63.8061531 C998.82371,63.6507055 998.787834,63.5336572 998.715615,63.4545455 C998.643397,63.3754337 998.52645,63.3361092 998.364774,63.3361092 C998.225462,63.3361092 998.104322,63.3809854 998.001352,63.4712006 C997.898383,63.5614157 997.815448,63.6631969 997.75348,63.7765441 L997.75348,66.2123525 C997.75348,66.3728892 997.600657,66.4529262 997.29501,66.4529262 L997.082548,66.4529262 C996.776901,66.4529262 996.624078,66.3728892 996.624078,66.2123525 L996.624078,63.8061531 C996.624078,63.5026602 996.607771,63.2495952 996.575622,63.0474208 L996.531359,62.7397641 C996.531359,62.6606523 996.635726,62.6005089 996.844461,62.5584085 C997.053195,62.5167708 997.23444,62.4954892 997.388661,62.4954892 C997.428731,62.4954892 997.464141,62.5042794 997.494892,62.5213972 C997.526109,62.5385149 997.549871,62.5584085 997.567576,62.5806153 C997.584815,62.6028221 997.601123,62.6338191 997.616032,62.6731437 C997.630942,62.7124682 997.642124,62.7467037 997.649579,62.7749248 C997.657034,62.803146 997.664954,62.8406199 997.673807,62.8878094 C997.68266,62.9345362 997.689183,62.968309 997.694308,62.98774 C997.815914,62.8272033 997.978522,62.6916493 998.180733,62.5806153 C998.382945,62.4695813 998.600066,62.4140643 998.831165,62.4140643 Z M1051.9564,62.4589406 C1052.26204,62.4589406 1052.41487,62.5394402 1052.41487,62.6995142 L1052.41487,66.2123525 C1052.41487,66.3728892 1052.26204,66.4529262 1051.9564,66.4529262 L1051.74393,66.4529262 C1051.43829,66.4529262 1051.28546,66.3724266 1051.28546,66.2123525 L1051.28546,62.6995142 C1051.28546,62.5389776 1051.43829,62.4589406 1051.74393,62.4589406 L1051.9564,62.4589406 Z M1017.09869,62.4136017 C1017.26269,62.4136017 1017.37638,62.4557021 1017.43974,62.5394402 C1017.50311,62.623641 1017.53479,62.7170946 1017.53479,62.8207263 C1017.53479,62.9243581 1017.51196,63.0566736 1017.46583,63.2167476 C1017.41971,63.3772843 1017.36333,63.4573213 1017.29624,63.4573213 C1017.26409,63.4573213 1017.21004,63.4485311 1017.1341,63.4314134 C1017.05815,63.4142956 1016.99292,63.4055054 1016.93841,63.4055054 C1016.7991,63.4055054 1016.67749,63.4439047 1016.57312,63.5202406 C1016.46875,63.5965765 1016.38675,63.6840157 1016.32711,63.7820958 L1016.32711,66.2118899 C1016.32711,66.3719639 1016.17429,66.4520009 1015.86864,66.4520009 L1015.65618,66.4520009 C1015.35053,66.4520009 1015.19771,66.3719639 1015.19771,66.2118899 L1015.19771,63.8117048 C1015.19771,63.5072866 1015.1814,63.253759 1015.14926,63.0511219 L1015.10453,62.7416146 C1015.10453,62.6620402 1015.20889,62.6014342 1015.41763,62.5588712 C1015.62636,62.5167708 1015.80761,62.4954892 1015.96183,62.4954892 C1016.0019,62.4954892 1016.03731,62.5042794 1016.06806,62.5213972 C1016.09928,62.5389776 1016.12304,62.5588712 1016.14074,62.581078 C1016.15798,62.6032848 1016.17429,62.6342817 1016.1892,62.6745316 C1016.20411,62.7143188 1016.21529,62.7485542 1016.22275,62.777238 C1016.2302,62.8059218 1016.23812,62.8438584 1016.24697,62.8910479 C1016.25583,62.9382373 1016.26235,62.9720102 1016.26748,62.9919038 C1016.36439,62.8151746 1016.47668,62.6749942 1016.6048,62.5704372 C1016.73247,62.4658802 1016.89741,62.4136017 1017.09869,62.4136017 Z M987.639647,62.4136017 C987.803652,62.4136017 987.917338,62.4557021 987.980704,62.5394402 C988.04407,62.623641 988.075753,62.7170946 988.075753,62.8207263 C988.075753,62.9243581 988.052922,63.0566736 988.006796,63.2167476 C987.960669,63.3772843 987.904292,63.4573213 987.837199,63.4573213 C987.80505,63.4573213 987.751003,63.4485311 987.675057,63.4314134 C987.599111,63.4142956 987.533882,63.4055054 987.479369,63.4055054 C987.340057,63.4055054 987.218451,63.4439047 987.114083,63.5202406 C987.009716,63.5965765 986.927713,63.6840157 986.868075,63.7820958 L986.868075,66.2118899 C986.868075,66.3719639 986.715252,66.4520009 986.409605,66.4520009 L986.197143,66.4520009 C985.891496,66.4520009 985.738673,66.3719639 985.738673,66.2118899 L985.738673,63.8117048 C985.738673,63.5072866 985.722366,63.253759 985.690217,63.0511219 L985.645488,62.7416146 C985.645488,62.6620402 985.749855,62.6014342 985.958589,62.5588712 C986.167324,62.5167708 986.348569,62.4954892 986.50279,62.4954892 C986.542859,62.4954892 986.57827,62.5042794 986.609021,62.5213972 C986.640238,62.5389776 986.664,62.5588712 986.681705,62.581078 C986.698944,62.6032848 986.715252,62.6342817 986.730161,62.6745316 C986.745071,62.7143188 986.756253,62.7485542 986.763708,62.777238 C986.771163,62.8059218 986.779083,62.8438584 986.787936,62.8910479 C986.796789,62.9382373 986.803311,62.9720102 986.808437,62.9919038 C986.905349,62.8151746 987.017637,62.6749942 987.145766,62.5704372 C987.27343,62.4658802 987.438367,62.4136017 987.639647,62.4136017 Z M1036.17598,63.2990978 C1035.70074,63.2990978 1035.46358,63.6826278 1035.46358,64.4501504 C1035.46358,65.2250752 1035.70074,65.6123063 1036.17552,65.6123063 C1036.64284,65.6123063 1036.87673,65.2250752 1036.87673,64.4501504 C1036.87673,64.0652325 1036.82036,63.7770067 1036.70714,63.5859357 C1036.59392,63.3948647 1036.41687,63.2990978 1036.17598,63.2990978 Z M1046.58009,64.716632 C1045.86955,64.716632 1045.51405,64.9044645 1045.51405,65.2792043 C1045.51405,65.3777469 1045.54713,65.4582466 1045.61236,65.5197779 C1045.67806,65.5813093 1045.77171,65.6123063 1045.89285,65.6123063 C1046.03682,65.6123063 1046.17147,65.56743 1046.29774,65.4772149 C1046.424,65.3869998 1046.51812,65.2731899 1046.58009,65.1348601 L1046.58009,64.716632 Z M1055.03243,63.2990978 C1054.55719,63.2990978 1054.32003,63.6826278 1054.32003,64.4501504 C1054.32003,65.2250752 1054.55719,65.6123063 1055.03197,65.6123063 C1055.49929,65.6123063 1055.73318,65.2250752 1055.73318,64.4501504 C1055.73318,64.0652325 1055.67681,63.7770067 1055.56359,63.5859357 C1055.45037,63.3948647 1055.27332,63.2990978 1055.03243,63.2990978 Z M1002.57813,63.2990974 C1002.10336,63.2986352 1001.8662,63.6812399 1001.8662,64.4464492 C1001.8662,65.1991672 1002.07214,65.5757576 1002.48495,65.5757576 C1002.72583,65.5757576 1002.93457,65.426787 1003.11115,65.1293084 L1003.11115,63.4429794 C1002.93457,63.3472126 1002.75705,63.2990974 1002.57813,63.2990974 Z M1025.37351,62.5325006 L1025.34369,62.5325006 C1025.29664,62.7693731 1025.25796,62.9308351 1025.22814,63.0173491 L1024.77713,64.3687254 L1025.92657,64.3687254 L1025.48906,63.0168864 C1025.47928,62.9872774 1025.46437,62.932223 1025.44433,62.852186 C1025.4243,62.772149 1025.40706,62.6990516 1025.39215,62.6324312 L1025.37351,62.5325006 Z M990.234383,63.2990972 C989.856984,63.2986352 989.626817,63.5544761 989.544814,64.0652325 L990.782311,64.0652325 C990.782311,63.833449 990.736184,63.6479297 990.644397,63.5082119 C990.55261,63.3689567 990.415628,63.2990972 990.234383,63.2990972 Z M1051.9564,60.7226463 C1052.26204,60.7226463 1052.41487,60.803146 1052.41487,60.96322 L1052.41487,61.5776081 C1052.41487,61.740458 1052.26204,61.821883 1051.9564,61.821883 L1051.74393,61.821883 C1051.43829,61.821883 1051.28546,61.740458 1051.28546,61.5776081 L1051.28546,60.96322 C1051.28546,60.803146 1051.43829,60.7226463 1051.74393,60.7226463 L1051.9564,60.7226463 Z M984.366524,60.7226463 C984.672171,60.7226463 984.824994,60.803146 984.824994,60.96322 L984.824994,61.5776081 C984.824994,61.740458 984.672171,61.821883 984.366524,61.821883 L984.154062,61.821883 C983.848415,61.821883 983.695592,61.740458 983.695592,61.5776081 L983.695592,60.96322 C983.695592,60.803146 983.848415,60.7226463 984.154062,60.7226463 L984.366524,60.7226463 Z M1043.16532,60.7226463 C1043.47097,60.7226463 1043.62379,60.803146 1043.62379,60.96322 L1043.62379,61.5776081 C1043.62379,61.740458 1043.47097,61.821883 1043.16532,61.821883 L1042.95286,61.821883 C1042.64722,61.821883 1042.49439,61.740458 1042.49439,61.5776081 L1042.49439,60.96322 C1042.49439,60.803146 1042.64722,60.7226463 1042.95286,60.7226463 L1043.16532,60.7226463 Z M1015.81553,12.1101087 C1017.11453,13.1635438 1020.33081,16.7675226 1015.11711,23.8195697 C1010.05856,30.6606523 1001.45292,29.6840157 1000.26388,39.4068934 C999.089753,49.0127226 1017.55576,54.4182281 1023.88488,55.7608142 C1022.58728,55.8274347 1021.27198,55.8625954 1019.94176,55.8625954 C997.33042,55.8625954 979,46.043951 979,33.9310664 C979,22.5648855 995.141971,13.2185982 1015.81553,12.1101087 Z M1019.94176,12 C1042.5531,12 1060.88305,21.8186445 1060.88259,33.9306037 C1060.88259,45.0844321 1045.34026,54.2923895 1025.22488,55.6807772 C1023.09328,54.129077 1015.80668,48.2650937 1024.61452,40.5213972 C1034.95666,31.4263243 1037.40416,30.5944946 1037.33847,25.307888 C1037.26392,19.3305575 1030.88261,16.1364793 1016.4394,12.0804997 C1017.59443,12.0282211 1018.76157,12 1019.94176,12 Z M1018.93723,26.8383067 C1019.92359,26.8383067 1020.41747,27.0608374 1020.41747,27.505436 L1020.41747,40.3668749 C1020.41747,40.8049965 1019.92359,41.0242887 1018.93723,41.0242887 L1018.06362,41.0242887 C1017.0684,41.0242887 1016.57172,40.8049965 1016.57172,40.3668749 L1016.57172,27.505436 C1016.57172,27.0608374 1017.06887,26.8383067 1018.06362,26.8383067 L1018.93723,26.8383067 Z M1046.31358,26.857275 L1045.01178,26.857275 C1044.26778,26.857275 1043.81036,26.9754543 1043.63916,27.2118128 L1043.59957,27.2792043 L1038.11144,40.1966227 C1038.04621,40.3798288 1038.01359,40.5005783 1038.01359,40.5597964 C1038.01359,40.8361477 1038.45559,40.9839381 1039.3392,41.0024153 L1039.5353,41.0043951 L1040.53285,41.0043951 C1041.12288,41.0043951 1041.49188,40.8873965 1041.63916,40.6533992 L1041.67669,40.57969 L1042.6747,38.1101087 L1048.56912,38.1101087 L1049.56527,40.57969 C1049.6629,40.841474 1050.06741,40.9818434 1050.7788,41.0018896 L1050.96304,41.0043951 L1052.05657,41.0043951 C1052.88312,41.0043951 1053.29593,40.8577377 1053.2964,40.5634976 C1053.2964,40.4937929 1053.28563,40.4166859 1053.26409,40.3324509 L1053.22371,40.2007865 L1047.73791,27.283368 C1047.60745,26.999306 1047.13267,26.857275 1046.31358,26.857275 Z M997.498619,26.8975249 L989.174404,26.8975249 C988.825426,26.8975249 988.571963,26.9613694 988.414014,27.0885959 C988.282002,27.1950035 988.205319,27.3547434 988.183424,27.5678156 L988.176858,27.7020588 L988.176858,40.3668749 C988.176858,40.763698 988.611142,40.9751356 989.480466,41.0015636 L989.673409,41.0043951 L990.525586,41.0043951 C991.456628,41.0043951 991.953387,40.8194124 992.015484,40.449071 L992.022137,40.3668749 L992.022137,35.098774 L997.328091,35.098774 C997.587611,35.098774 997.776311,35.0201249 997.893724,34.8632894 C997.991956,34.7322076 998.049097,34.5336572 998.065415,34.2665673 L998.070309,34.09808 L998.070309,33.4702753 C998.070309,33.116817 998.011603,32.8619015 997.893724,32.7050659 C997.795491,32.5743697 997.648401,32.4979695 997.451915,32.4761333 L997.328091,32.4695813 L992.022137,32.4695813 L992.022137,29.5262549 L997.498619,29.5262549 C997.758139,29.5262549 997.949169,29.4466805 998.070309,29.2870692 C998.172036,29.1536741 998.231053,28.9540957 998.2479,28.6875305 L998.252952,28.5195466 L998.252952,27.9042332 C998.252952,27.5526255 998.192382,27.2967846 998.070309,27.1371733 C997.949169,26.9775619 997.758139,26.8975249 997.498619,26.8975249 Z M1045.71533,30.6153134 L1045.77637,30.8799445 C1045.82482,31.056211 1045.88167,31.2509831 1045.9469,31.462873 C1045.99871,31.632755 1046.04008,31.7597039 1046.07102,31.8434828 L1046.09226,31.8982188 L1047.52032,35.480916 L1043.76776,35.480916 L1045.24102,31.900532 C1045.32758,31.6969697 1045.43659,31.3358579 1045.56774,30.8171966 L1045.61795,30.6153134 L1045.71533,30.6153134 Z" transform="translate(-979 -12)"/>
</svg>
