<svg xmlns="http://www.w3.org/2000/svg" width="82" height="56"><path fill="#CCC" d="M39.303 50.458c.254 0 .397.054.429.16l.447 1.403c.06.197.132.502.216.914h.03c.095-.458.165-.763.213-.914l.45-1.403c.033-.106.176-.16.43-.16h.182c.305 0 .458.056.458.167 0 .04-.008.085-.022.137l-1.749 5.079c-.04.106-.182.159-.428.159h-.13c-.306 0-.46-.053-.46-.16 0-.038.012-.084.034-.136l.481-1.266-1.26-3.676a.853.853 0 01-.033-.137c0-.111.155-.167.466-.167h.246zm11.129-.043c.09 0 .186.006.29.017.105.01.226.031.364.061.138.03.251.08.34.15.09.069.135.154.135.253 0 .067-.038.177-.114.331-.076.154-.147.23-.214.23a8.4 8.4 0 01-.224-.078 1.253 1.253 0 00-.424-.08c-.276 0-.414.091-.414.273 0 .074.028.138.084.192.056.054.13.1.22.137.09.037.19.074.298.112.108.038.216.086.325.146.108.059.207.129.298.21.09.082.164.191.22.33.056.14.083.3.083.482 0 .397-.13.715-.393.956-.262.24-.607.36-1.034.36a3.41 3.41 0 01-.643-.057 1.455 1.455 0 01-.496-.18c-.134-.084-.2-.184-.2-.3 0-.084.049-.198.147-.344.098-.146.185-.217.26-.215.021 0 .071.017.148.052.078.035.17.07.28.106.11.036.216.053.32.053.312 0 .467-.113.467-.34a.328.328 0 00-.084-.226.606.606 0 00-.22-.152 4.867 4.867 0 00-.298-.112 2.41 2.41 0 01-.325-.138 1.568 1.568 0 01-.298-.198.802.802 0 01-.22-.319 1.265 1.265 0 01-.084-.48c0-.38.126-.68.379-.901.252-.22.594-.331 1.027-.331zm3.15 0c.09 0 .186.006.29.017.105.01.226.031.364.061.138.03.252.08.341.15.09.069.134.154.134.253 0 .067-.038.177-.113.331-.076.154-.148.23-.215.23l-.223-.078a1.255 1.255 0 00-.425-.08c-.276 0-.414.091-.414.273 0 .074.028.138.084.192.056.054.129.1.22.137.09.037.19.074.298.112.108.038.216.086.324.146.108.059.208.129.298.21.091.082.164.191.22.33.056.14.084.3.084.482 0 .397-.13.715-.393.956-.262.24-.607.36-1.034.36a3.41 3.41 0 01-.643-.057 1.455 1.455 0 01-.497-.18c-.133-.084-.199-.184-.199-.3 0-.084.049-.198.147-.344.099-.146.185-.217.26-.215.022 0 .071.017.148.052.078.035.17.07.28.106.11.036.217.053.32.053.312 0 .467-.113.467-.34a.328.328 0 00-.084-.226.606.606 0 00-.22-.152 4.87 4.87 0 00-.298-.112 2.41 2.41 0 01-.324-.138 1.568 1.568 0 01-.299-.198.802.802 0 01-.22-.319 1.265 1.265 0 01-.083-.48c0-.38.125-.68.378-.901.252-.22.594-.331 1.027-.331zm-21.883 0c.09 0 .186.006.29.017.105.01.226.031.364.061.138.03.252.08.341.15.09.069.134.154.134.253 0 .067-.038.177-.114.331-.075.154-.147.23-.214.23a7.72 7.72 0 01-.224-.078 1.255 1.255 0 00-.424-.08c-.276 0-.414.091-.414.273 0 .074.028.138.084.192.056.054.129.1.22.137.09.037.19.074.298.112.108.038.216.086.324.146.108.059.207.129.298.21.091.082.164.191.22.33.056.14.084.3.084.482 0 .397-.13.715-.393.956-.262.24-.607.36-1.035.36a3.42 3.42 0 01-.643-.057 1.449 1.449 0 01-.496-.18c-.133-.084-.2-.184-.2-.3 0-.084.05-.198.148-.344.098-.146.184-.217.259-.215.022 0 .072.017.149.052.077.035.17.07.28.106.109.036.216.053.32.053.311 0 .466-.113.466-.34a.328.328 0 00-.084-.226.606.606 0 00-.22-.152 4.865 4.865 0 00-.298-.112 2.437 2.437 0 01-.324-.138 1.567 1.567 0 01-.298-.198.802.802 0 01-.22-.319 1.265 1.265 0 01-.084-.48c0-.38.126-.68.378-.901.253-.22.595-.331 1.028-.331zm-4.863.043c.306 0 .459.081.459.241v2.406c0 .156.036.273.108.352.072.079.19.118.35.118.14 0 .26-.045.364-.135.103-.09.186-.192.248-.305v-2.436c0-.16.153-.24.459-.24h.212c.306 0 .458.08.458.24v2.406c0 .311.015.572.045.782l.045.318c0 .08-.104.139-.31.18-.206.04-.387.06-.544.06a.217.217 0 01-.106-.025.217.217 0 01-.073-.061.365.365 0 01-.048-.1 1.313 1.313 0 01-.058-.228 1.628 1.628 0 00-.02-.107 1.51 1.51 0 01-.487.407c-.202.11-.42.166-.65.166-.383 0-.666-.099-.849-.298-.182-.199-.274-.508-.274-.927v-2.573c0-.16.153-.24.459-.24h.212zm34.787-.044c.191 0 .38.019.569.056.187.037.35.097.49.18.14.082.209.178.209.286 0 .077-.052.193-.155.35-.104.157-.186.235-.248.235a.502.502 0 01-.138-.056 1.533 1.533 0 00-.663-.166c-.301 0-.52.094-.658.28-.138.189-.207.478-.207.87 0 .398.065.69.194.88.129.189.336.283.622.283.246 0 .496-.058.75-.174a1.81 1.81 0 01.137-.048c.078 0 .163.075.257.224.095.15.142.268.142.354 0 .08-.039.151-.115.217a.845.845 0 01-.282.153 3.32 3.32 0 01-.941.16c-.651 0-1.135-.166-1.45-.497-.316-.33-.474-.837-.474-1.518 0-.688.159-1.205.475-1.55.317-.346.813-.519 1.486-.519zm5.447 0c.575 0 .991.113 1.251.337.26.225.39.535.39.93v1.425c0 .31.015.571.045.781l.044.318c0 .08-.103.14-.309.18-.206.04-.388.061-.544.061a.215.215 0 01-.106-.026.217.217 0 01-.073-.061.379.379 0 01-.049-.1 1.472 1.472 0 01-.033-.107 1.5 1.5 0 01-.024-.12 1.562 1.562 0 00-.02-.108.62.62 0 01-.103.133c-.05.054-.12.117-.21.19-.089.07-.205.13-.349.179a1.428 1.428 0 01-.457.072c-.393 0-.68-.1-.863-.302-.184-.202-.275-.47-.275-.806 0-.143.013-.272.039-.388a1.11 1.11 0 01.175-.374c.091-.133.213-.244.367-.333a2.29 2.29 0 01.642-.224c.275-.06.6-.09.973-.09v-.249c0-.146-.047-.254-.142-.326-.094-.071-.246-.107-.454-.107-.164 0-.32.02-.468.061a2.29 2.29 0 00-.352.122.659.659 0 01-.157.061c-.074 0-.16-.079-.255-.236-.096-.159-.144-.282-.144-.37 0-.136.14-.257.423-.363.282-.106.628-.16 1.038-.16zm3.49-.907c.255 0 .383.08.383.242v.724h.373c.08 0 .138.03.175.09.037.058.056.154.056.287v.128a.57.57 0 01-.056.29c-.037.06-.096.09-.175.09h-.373v1.929c0 .113.022.196.065.248.044.052.114.078.211.078a.645.645 0 00.112-.015c.05-.01.08-.014.093-.014.065 0 .12.074.166.222.046.148.069.255.069.322 0 .247-.244.37-.73.37-.744 0-1.115-.409-1.115-1.227v-1.913h-.123c-.08 0-.138-.03-.175-.09a.568.568 0 01-.056-.29v-.128c0-.133.018-.229.056-.288.037-.06.095-.089.175-.089h.123l.097-.724c.022-.161.16-.242.413-.242h.235zm-36.11 0c.255 0 .383.08.383.242v.724h.373c.08 0 .138.03.175.09.037.058.056.154.056.287v.128a.57.57 0 01-.056.29c-.037.06-.096.09-.175.09h-.373v1.929c0 .113.022.196.065.248.044.052.114.078.21.078a.651.651 0 00.113-.015c.049-.01.08-.014.093-.014.065 0 .12.074.166.222.046.148.069.255.069.322 0 .247-.244.37-.73.37-.744 0-1.115-.409-1.115-1.227v-1.913h-.123c-.08 0-.138-.03-.176-.09a.568.568 0 01-.055-.29v-.128c0-.133.018-.229.055-.288.038-.06.096-.089.176-.089h.123l.097-.724c.022-.161.16-.242.413-.242h.235zm-23.216.908c.234 0 .444.034.632.103.188.07.344.163.468.281.124.119.228.261.311.428.084.166.144.344.181.533.037.189.056.392.056.609 0 .064-.051.155-.155.272-.103.117-.18.176-.233.176h-1.95c.025.288.112.493.261.614.15.12.356.181.619.181.142 0 .281-.02.417-.059.137-.04.25-.079.34-.118.09-.04.145-.06.167-.06.077 0 .163.075.256.224.093.15.14.267.14.354 0 .089-.05.17-.151.242-.101.073-.226.13-.377.172-.15.042-.3.074-.447.097-.148.022-.28.033-.397.033-.671 0-1.172-.177-1.5-.531-.33-.354-.494-.848-.494-1.483 0-.365.045-.682.134-.95.09-.27.218-.485.386-.647a1.57 1.57 0 01.583-.357 2.3 2.3 0 01.753-.114zm45.941 0c.604 0 1.063.173 1.376.521.313.348.47.853.47 1.514 0 .664-.157 1.171-.47 1.521-.313.351-.772.526-1.376.526-.606 0-1.067-.176-1.383-.528-.316-.351-.473-.858-.473-1.519 0-.661.158-1.166.473-1.514.316-.348.777-.521 1.383-.521zm18.857 0c.604 0 1.063.173 1.376.521.313.348.47.853.47 1.514 0 .664-.157 1.171-.47 1.521-.313.351-.772.526-1.376.526-.606 0-1.067-.176-1.383-.528-.316-.351-.473-.858-.473-1.519 0-.661.158-1.166.473-1.514.316-.348.777-.521 1.383-.521zm-51.25-1.693c.306 0 .459.08.459.24V53.1c0 .312.015.573.046.783l.047.32c0 .08-.104.14-.311.181-.208.041-.39.062-.547.062a.224.224 0 01-.179-.088.37.37 0 01-.048-.1 1.29 1.29 0 01-.058-.227 1.768 1.768 0 00-.02-.104 1.06 1.06 0 01-.408.412c-.18.106-.385.158-.614.158-.422 0-.765-.18-1.03-.54-.265-.361-.398-.864-.398-1.51 0-.625.142-1.12.424-1.485.282-.365.678-.547 1.187-.547.303 0 .563.078.78.233v-1.684c0-.16.152-.24.458-.24h.212zm-8.577.386c.303 0 .454.084.454.251v4.853c0 .166-.151.248-.454.248h-.267c-.305 0-.457-.082-.457-.248V49.36c0-.168.152-.251.457-.251h.267zm-12.419.022c.08 0 .138.03.175.09a.57.57 0 01.056.29v.232a.57.57 0 01-.056.29c-.037.06-.095.09-.175.09H2.11v1.11h1.625c.08 0 .137.03.174.09.036.059.054.155.054.289v.237c0 .133-.018.23-.054.288-.037.06-.094.09-.174.09H2.11v1.987c0 .16-.153.24-.459.24h-.26c-.307 0-.46-.08-.46-.24v-4.78c0-.106.025-.183.073-.231.049-.048.126-.072.233-.072h2.55zm60.38 1.329c.305 0 .458.08.458.24v3.513c0 .16-.153.24-.459.24h-.212c-.306 0-.459-.08-.459-.24V50.7c0-.161.153-.241.459-.241h.212zm16.712-.045c.383 0 .665.1.848.298.183.199.274.508.274.928v2.572c0 .16-.153.24-.458.24h-.213c-.306 0-.458-.08-.458-.24v-2.406c0-.155-.036-.272-.108-.351-.072-.08-.19-.119-.35-.119-.14 0-.26.045-.364.135a1.12 1.12 0 00-.248.306v2.435c0 .16-.153.24-.459.24h-.212c-.306 0-.459-.08-.459-.24v-2.406a4.96 4.96 0 00-.048-.759l-.045-.307c0-.08.105-.14.313-.182.21-.041.39-.063.545-.063a.23.23 0 01.179.085.362.362 0 01.048.093 1.056 1.056 0 01.058.215l.02.1a1.51 1.51 0 01.487-.407c.202-.111.419-.167.65-.167zm-34.321-1.3c.25 0 .396.054.436.162l1.68 4.874a.499.499 0 01.023.136c0 .11-.127.166-.38.166h-.335c-.253 0-.396-.053-.428-.16l-.305-.932h-1.806l-.306.932c-.034.107-.151.16-.35.16h-.306c-.31 0-.466-.055-.466-.167 0-.022.01-.068.03-.137l1.681-4.874c.04-.106.184-.16.433-.16h.399zM5.367 50.46c.305 0 .458.08.458.24v3.513c0 .16-.153.24-.458.24h-.213c-.306 0-.458-.08-.458-.24V50.7c0-.161.152-.241.458-.241h.213zm14.464-.045c.383 0 .666.1.848.298.183.199.274.508.274.928v2.572c0 .16-.153.24-.458.24h-.213c-.305 0-.458-.08-.458-.24v-2.406c0-.155-.036-.272-.108-.351-.073-.08-.19-.119-.351-.119-.14 0-.26.045-.364.135a1.12 1.12 0 00-.248.306v2.435c0 .16-.152.24-.458.24h-.212c-.306 0-.459-.08-.459-.24v-2.406c0-.303-.016-.556-.048-.759l-.045-.307c0-.08.105-.14.313-.182.21-.041.39-.063.545-.063a.236.236 0 01.179.085.362.362 0 01.048.093 1.054 1.054 0 01.058.215l.02.1a1.51 1.51 0 01.487-.407c.202-.111.42-.167.65-.167zm53.125.045c.306 0 .459.08.459.24v3.513c0 .16-.153.24-.459.24h-.212c-.306 0-.459-.08-.459-.24V50.7c0-.161.153-.241.459-.241h.212zM38.1 50.414c.164 0 .277.042.34.125a.456.456 0 01.096.282c0 .103-.023.236-.07.396-.045.16-.102.24-.169.24a.862.862 0 01-.162-.026.913.913 0 00-.196-.025c-.139 0-.26.038-.365.114a.914.914 0 00-.246.262v2.43c0 .16-.153.24-.458.24h-.213c-.305 0-.458-.08-.458-.24v-2.4c0-.305-.017-.558-.049-.76l-.044-.31c0-.08.104-.14.313-.183.208-.042.39-.064.544-.064.04 0 .075.01.106.026a.244.244 0 01.073.06.354.354 0 01.048.094 1.063 1.063 0 01.058.216 1.9 1.9 0 00.02.1c.097-.176.21-.316.338-.42a.755.755 0 01.494-.157zm-29.46 0c.165 0 .278.042.342.125a.456.456 0 01.095.282c0 .103-.023.236-.07.396-.045.16-.102.24-.169.24a.862.862 0 01-.162-.026.913.913 0 00-.196-.025c-.139 0-.26.038-.365.114a.914.914 0 00-.246.262v2.43c0 .16-.153.24-.458.24h-.213c-.306 0-.458-.08-.458-.24v-2.4a4.98 4.98 0 00-.049-.76l-.045-.31c0-.08.105-.14.314-.183.208-.042.39-.064.544-.064.04 0 .075.01.106.026a.244.244 0 01.073.06.354.354 0 01.048.094 1.061 1.061 0 01.058.216 1.9 1.9 0 00.02.1c.097-.176.21-.316.338-.42a.755.755 0 01.494-.157zm48.537.885c-.475 0-.712.384-.712 1.151 0 .775.237 1.162.712 1.162.467 0 .7-.387.7-1.162 0-.385-.056-.673-.169-.864-.113-.191-.29-.287-.531-.287zm10.404 1.418c-.71 0-1.066.187-1.066.562 0 .099.033.18.098.24.066.062.16.093.28.093a.683.683 0 00.406-.135.833.833 0 00.282-.342v-.418zm8.452-1.418c-.475 0-.712.384-.712 1.151 0 .775.237 1.162.712 1.162.467 0 .701-.387.701-1.162 0-.385-.056-.673-.17-.864-.113-.191-.29-.287-.53-.287zm-52.454 0c-.475 0-.712.382-.712 1.147 0 .753.206 1.13.619 1.13.24 0 .45-.15.626-.447v-1.686a1.108 1.108 0 00-.533-.144zm22.796-.766h-.03a4.346 4.346 0 01-.116.484l-.45 1.352h1.149l-.438-1.352a9.016 9.016 0 01-.097-.384l-.018-.1zm-35.14.766c-.377 0-.607.255-.69.766h1.238c0-.232-.046-.417-.138-.557a.46.46 0 00-.41-.209zm61.722-2.576c.306 0 .459.08.459.24v.615c0 .162-.153.244-.459.244h-.212c-.306 0-.459-.082-.459-.244v-.615c0-.16.153-.24.459-.24h.212zm-67.59 0c.306 0 .459.08.459.24v.615c0 .162-.153.244-.458.244h-.213c-.306 0-.458-.082-.458-.244v-.615c0-.16.152-.24.458-.24h.213zm58.8 0c.305 0 .458.08.458.24v.615c0 .162-.153.244-.459.244h-.212c-.306 0-.459-.082-.459-.244v-.615c0-.16.153-.24.459-.24h.212zM36.815.11c1.299 1.054 4.515 4.658-.699 11.71-5.058 6.84-13.664 5.864-14.853 15.587-1.174 9.606 17.292 15.011 23.62 16.354a76.91 76.91 0 01-3.942.102C18.33 43.863 0 34.044 0 21.93 0 10.565 16.142 1.22 36.816.111zM40.942 0c22.611 0 40.941 9.819 40.94 21.93 0 11.154-15.542 20.362-35.657 21.75-2.132-1.55-9.418-7.415-.61-15.159 10.342-9.095 12.79-9.927 12.723-15.213C58.264 7.33 51.883 4.136 37.44.08A77.426 77.426 0 0140.942 0zm-1.005 14.838c.987 0 1.48.223 1.48.667v12.862c0 .438-.493.657-1.48.657h-.873c-.996 0-1.492-.219-1.492-.657V15.505c0-.444.497-.667 1.492-.667h.873zm27.377.02h-1.302c-.744 0-1.202.117-1.373.354l-.04.067-5.488 12.918c-.065.183-.097.304-.097.363 0 .276.442.424 1.325.442l.196.002h.998c.59 0 .959-.117 1.106-.35l.038-.074.998-2.47h5.894l.996 2.47c.098.261.502.402 1.214.422l.184.002h1.094c.826 0 1.239-.146 1.24-.44a.94.94 0 00-.033-.232l-.04-.131-5.486-12.918c-.13-.284-.605-.426-1.424-.426zm-48.815.04h-8.325c-.349 0-.602.063-.76.19-.132.107-.209.267-.23.48l-.007.134v12.665c0 .397.434.608 1.303.635l.193.002h.853c.93 0 1.427-.185 1.49-.555l.006-.082v-5.268h5.306c.26 0 .448-.079.566-.236.098-.13.155-.33.171-.596l.005-.169v-.628c0-.353-.058-.608-.176-.765-.099-.13-.246-.207-.442-.229l-.124-.006h-5.306v-2.944H18.5c.26 0 .45-.08.571-.239.102-.133.161-.333.178-.6l.005-.167v-.616c0-.351-.06-.607-.183-.767-.12-.16-.312-.24-.571-.24zm48.216 3.717l.061.265a20.103 20.103 0 00.295.963l.021.055 1.428 3.583h-3.752l1.473-3.58c.087-.204.196-.565.327-1.084l.05-.202h.097z"/></svg>