<svg xmlns="http://www.w3.org/2000/svg" width="56" height="80"><path fill="#CCC" d="M55.715 79.46a.27.27 0 01.062.533l-.062.007H.27a.27.27 0 01-.062-.532l.062-.007h55.445zM2.129 62.938c.3 0 .546.012.738.035.192.023.346.054.461.092a.526.526 0 01.248.15.32.32 0 01.075.208V77.51l-.008.075a.327.327 0 01-.067.133.526.526 0 01-.248.15 2.42 2.42 0 01-.461.092 6.412 6.412 0 01-.738.034c-.292 0-.536-.011-.732-.034a2.43 2.43 0 01-.467-.092.526.526 0 01-.248-.15.32.32 0 01-.075-.208V63.422l.008-.075a.327.327 0 01.067-.133.529.529 0 01.253-.15c.12-.038.275-.069.467-.092.193-.023.435-.035.727-.035zm12.696.07l.067.007a.29.29 0 01.118.056.531.531 0 01.144.207c.042.097.073.225.092.387.02.161.029.357.029.588 0 .23-.01.424-.029.582-.02.157-.05.282-.092.375a.596.596 0 01-.144.207.276.276 0 01-.185.07H9.947v4.011h4.578l.067.007a.303.303 0 01.118.051.481.481 0 01.144.196c.042.092.073.215.092.369.02.154.029.346.029.576 0 .231-.01.423-.029.577-.02.154-.05.28-.092.38a.529.529 0 01-.144.214.29.29 0 01-.185.063H9.947v5.557l-.007.08a.338.338 0 01-.062.14.52.52 0 01-.248.155c-.12.042-.275.075-.467.098a6.412 6.412 0 01-.738.034c-.292 0-.536-.011-.732-.034a2.122 2.122 0 01-.467-.098.562.562 0 01-.248-.156.337.337 0 01-.075-.219V63.963l.005-.139c.021-.267.106-.464.254-.593a.943.943 0 01.64-.225h7.023zm34.18-.07c.453 0 .814.006 1.083.018.27.011.479.038.629.08.15.043.257.106.323.19.065.085.12.2.167.346l4.613 13.224.05.16c.064.202.104.368.123.498.023.161-.008.282-.093.363-.084.08-.234.13-.45.15-.215.019-.51.028-.887.028-.392 0-.698-.005-.917-.017a2.266 2.266 0 01-.502-.069.457.457 0 01-.242-.144.79.79 0 01-.115-.242l-1.003-2.998h-5.605l-.945 2.917-.034.102a.826.826 0 01-.087.169.494.494 0 01-.243.173c-.111.042-.269.071-.472.086-.204.016-.471.023-.802.023-.353 0-.63-.011-.83-.034-.2-.023-.338-.079-.415-.167-.077-.089-.104-.214-.08-.375.022-.161.08-.377.172-.646l4.601-13.235.049-.123a.99.99 0 01.113-.194.572.572 0 01.294-.185 2.32 2.32 0 01.559-.08c.19-.01.43-.015.72-.017zm-22.914.07l.067.006a.303.303 0 01.118.051c.054.039.1.106.138.202.039.096.067.219.087.369.019.15.029.34.029.57a4.4 4.4 0 01-.03.548c-.019.15-.047.271-.086.363a.49.49 0 01-.138.202.29.29 0 01-.185.064h-5.327v3.643h4.509l.067.007c.043.01.084.028.123.056a.466.466 0 01.144.196c.038.089.067.208.087.358.019.15.028.332.028.547 0 .223-.01.408-.028.554-.02.146-.049.263-.087.351a.423.423 0 01-.144.19.336.336 0 01-.19.058h-4.51v4.208h5.374l.068.007c.043.01.084.028.123.057.057.042.105.11.144.201.038.093.067.214.086.364.02.15.03.336.03.559 0 .223-.01.409-.03.559-.019.15-.048.27-.086.363a.464.464 0 01-.144.202.315.315 0 01-.19.063h-7.496l-.147-.009a.908.908 0 01-.493-.216c-.173-.15-.26-.393-.26-.732V63.963l.006-.139c.021-.267.106-.464.254-.593a.943.943 0 01.64-.225h7.45zm7.9 0l.392.004c1.161.028 2.158.182 2.992.462.926.312 1.707.773 2.34 1.384.635.611 1.117 1.366 1.448 2.265.33.9.496 1.941.496 3.125 0 1.368-.179 2.538-.536 3.51-.358.973-.87 1.766-1.54 2.381-.669.615-1.482 1.067-2.439 1.355-.957.288-2.097.432-3.419.432h-3.563l-.147-.009a.908.908 0 01-.493-.216c-.173-.15-.26-.393-.26-.732V63.963l.006-.139c.021-.267.106-.464.254-.593a.943.943 0 01.64-.225h3.828zm-.174 2.375h-1.533v10.145h1.58c.83 0 1.53-.107 2.098-.323a3.51 3.51 0 001.424-.974c.381-.434.665-.974.854-1.62.188-.645.282-1.399.282-2.26 0-.707-.082-1.364-.248-1.97a4.197 4.197 0 00-.795-1.58 3.69 3.69 0 00-1.407-1.044c-.573-.25-1.324-.374-2.255-.374zm15.153.472h-.012l-2.11 6.341h4.232l-2.11-6.34zm6.745-4.6a.27.27 0 01.062.532l-.062.007H.27a.27.27 0 01-.062-.533l.062-.007h55.445zM52.42 17.325s-4.043 1.433-7.919 5.918c-2.859 3.31-5.955 8.843-7.75 11.854-1.798 3.01-3.728 6.955-7.829 11.346-2.513 2.69-11.574 9.993-23.261 13.593l-.391.118.023-.007c.898-.288 5.193-1.858 10.85-7.056 6.375-5.86 7.227-7.565 8.752-9.71 1.527-2.146 2.508-5.6 4.305-9.156 2.753-5.439 7.166-11.97 20.493-16.9h2.727zM34.521 40.459s6.935 3.636 12.033 19.209c0 0-4.521-8.11-14.297-15.624l2.264-3.585zm1.238-24.026a3.64 3.64 0 11-.6 7.256 3.641 3.641 0 11.6-7.256zM48.745 0s4.2 3.554 4.076 6.024c-.124 2.47-1.903 4.823-2.122 6.682-.221 1.96.226 3.083.626 4.03 0 0-3-3.771-2.494-6.136.505-2.366 2.052-4.415 1.813-6.2-.24-1.788-1.267-3.732-1.9-4.4zm4.294 4.42c1.973 2.73.622 4.273.004 5.097-.644.862-1.369 2.152-1.369 2.152.139-1.17.726-2.26 1.334-3.752.651-1.598.03-3.497.03-3.497zm-3.03-.83s.478 1.285.175 1.908c-.304.623-1.272 2.343-1.099 3 0 0-.586-1.197-.34-2 .246-.801 1.152-1.688 1.264-2.908z"/></svg>