<svg xmlns="http://www.w3.org/2000/svg" width="56" height="80" viewBox="0 0 56 80">
  <path fill="#CCC" d="M407.714716,79.4605966 C407.863699,79.4605966 407.984473,79.5813462 407.984473,79.7302983 C407.984473,79.8579716 407.895741,79.9649246 407.776569,79.992877 L407.714716,80 L352.269756,80 C352.120774,80 352,79.8792504 352,79.7302983 C352,79.6026251 352.088732,79.4956721 352.207904,79.4677196 L352.269756,79.4605966 L407.714716,79.4605966 Z M354.128846,62.9373182 C354.428665,62.9373182 354.674671,62.9488474 354.866863,62.9719057 C355.059055,62.9949641 355.212809,63.0257086 355.328124,63.0641392 C355.443439,63.1025698 355.526082,63.1525296 355.576052,63.2140185 C355.626022,63.2755075 355.651007,63.3446826 355.651007,63.4215438 L355.651007,63.4215438 L355.651007,77.5102032 L355.642678,77.5845023 C355.631574,77.6323271 355.609365,77.6767358 355.576052,77.7177284 C355.526082,77.7792174 355.443439,77.8291772 355.328124,77.8676078 C355.212809,77.9060384 355.059055,77.9367829 354.866863,77.9598412 C354.674671,77.9828996 354.428665,77.9944288 354.128846,77.9944288 C353.836714,77.9944288 353.59263,77.9828996 353.396594,77.9598412 C353.200558,77.9367829 353.044883,77.9060384 352.929567,77.8676078 C352.814252,77.8291772 352.73161,77.7792174 352.68164,77.7177284 C352.63167,77.6562395 352.606685,77.5870644 352.606685,77.5102032 L352.606685,77.5102032 L352.606685,63.4215438 L352.615013,63.3472446 C352.626117,63.2994199 352.648326,63.2550112 352.68164,63.2140185 C352.73161,63.1525296 352.816174,63.1025698 352.935333,63.0641392 C353.054492,63.0257086 353.210168,62.9949641 353.40236,62.9719057 C353.594552,62.9488474 353.836714,62.9373182 354.128846,62.9373182 Z M366.825052,63.0064933 L366.891678,63.0135389 C366.934388,63.022933 366.97368,63.0417213 367.009556,63.0699038 C367.06337,63.1121774 367.111418,63.1813525 367.1537,63.277429 C367.195982,63.3735055 367.226733,63.5022481 367.245952,63.6636566 C367.265172,63.8250651 367.274781,64.0210612 367.274781,64.2516448 C367.274781,64.4822285 367.265172,64.676303 367.245952,64.8338685 C367.226733,64.991434 367.195982,65.1163334 367.1537,65.2085669 C367.111418,65.3008003 367.06337,65.3699754 367.009556,65.4160921 C366.955742,65.4622089 366.894241,65.4852672 366.825052,65.4852672 L366.825052,65.4852672 L361.947218,65.4852672 L361.947218,69.4974223 L366.525232,69.4974223 L366.591859,69.5038274 C366.634568,69.5123675 366.673861,69.5294478 366.709737,69.5550682 C366.76355,69.5934988 366.811598,69.6588308 366.853881,69.7510642 C366.896163,69.8432977 366.926914,69.9662756 366.946133,70.119998 C366.965352,70.2737205 366.974962,70.4658735 366.974962,70.6964571 C366.974962,70.9270407 366.965352,71.1191937 366.946133,71.2729162 C366.926914,71.4266386 366.896163,71.5534596 366.853881,71.6533791 C366.811598,71.7532987 366.76355,71.8243953 366.709737,71.866669 C366.655923,71.9089426 366.594421,71.9300795 366.525232,71.9300795 L366.525232,71.9300795 L361.947218,71.9300795 L361.947218,77.4871448 L361.93953,77.5678491 C361.92928,77.6190899 361.908779,77.6652066 361.878029,77.7061992 C361.831903,77.7676882 361.74926,77.8195695 361.630101,77.8618432 C361.510942,77.9041168 361.355266,77.9367829 361.163074,77.9598412 C360.970882,77.9828996 360.724876,77.9944288 360.425057,77.9944288 C360.132925,77.9944288 359.888841,77.9828996 359.692805,77.9598412 C359.496769,77.9367829 359.341094,77.9041168 359.225779,77.8618432 C359.110463,77.8195695 359.027821,77.7676882 358.977851,77.7061992 C358.927881,77.6447103 358.902896,77.5716921 358.902896,77.4871448 L358.902896,77.4871448 L358.902896,63.9634153 L358.908191,63.8242416 C358.929371,63.5574234 359.014093,63.3597803 359.162355,63.2313123 C359.335328,63.0814329 359.548661,63.0064933 359.802355,63.0064933 L359.802355,63.0064933 L366.825052,63.0064933 Z M401.004484,62.9373182 C401.458058,62.9373182 401.819379,62.9430828 402.088447,62.954612 C402.357516,62.9661411 402.567006,62.9930426 402.716915,63.0353162 C402.866825,63.0775899 402.974453,63.1410004 403.039798,63.2255477 C403.105143,63.310095 403.160879,63.4253869 403.207005,63.5714231 L403.207005,63.5714231 L407.819614,76.7953939 L407.870814,76.9544966 C407.933545,77.1574102 407.974136,77.3234304 407.992587,77.4525573 C408.01565,77.6139658 407.984899,77.7350222 407.900335,77.8157265 C407.81577,77.8964307 407.66586,77.9463905 407.450605,77.9656058 C407.23535,77.9848211 406.939374,77.9944288 406.562678,77.9944288 C406.170606,77.9944288 405.865021,77.9886642 405.645922,77.977135 C405.426823,77.9656058 405.259616,77.9425475 405.144301,77.9079599 C405.028986,77.8733724 404.948265,77.8253341 404.902139,77.7638451 C404.856013,77.7023562 404.817574,77.6216519 404.786824,77.5217323 L404.786824,77.5217323 L403.783581,74.5241452 L398.179261,74.5241452 L397.233676,77.4410281 L397.199723,77.5428692 C397.174951,77.6069202 397.145909,77.6632851 397.112595,77.7119638 C397.062626,77.784982 396.981905,77.8426279 396.870434,77.8849015 C396.758962,77.9271752 396.601365,77.9559982 396.397641,77.9713704 C396.193918,77.9867426 395.926771,77.9944288 395.5962,77.9944288 C395.242567,77.9944288 394.96581,77.9828996 394.765931,77.9598412 C394.566051,77.9367829 394.427673,77.8810585 394.350796,77.7926681 C394.273919,77.7042777 394.247012,77.5793782 394.270075,77.4179697 C394.293138,77.2565612 394.350796,77.0413498 394.443048,76.7723356 L394.443048,76.7723356 L399.044125,63.5368356 L399.092814,63.4144982 C399.126982,63.338491 399.164566,63.273586 399.205567,63.2197831 C399.267068,63.1390789 399.365086,63.0775899 399.499621,63.0353162 C399.634155,62.9930426 399.820581,62.9661411 400.058899,62.954612 C400.249554,62.9453886 400.48941,62.9398546 400.778466,62.9380099 L400.778466,62.9380099 Z M378.091349,63.0064933 L378.157976,63.0128984 C378.200685,63.0214385 378.239978,63.0385188 378.275854,63.0641392 C378.329667,63.1025698 378.375793,63.1698233 378.414232,63.2658998 C378.45267,63.3619764 378.481499,63.4849543 378.500718,63.6348336 C378.519937,63.784713 378.529547,63.9749445 378.529547,64.2055281 C378.529547,64.4207395 378.519937,64.6032849 378.500718,64.7531642 C378.481499,64.9030436 378.45267,65.0241 378.414232,65.1163334 C378.375793,65.2085669 378.329667,65.2758204 378.275854,65.3180941 C378.22204,65.3603678 378.160538,65.3815046 378.091349,65.3815046 L378.091349,65.3815046 L372.763786,65.3815046 L372.763786,69.0247258 L377.272611,69.0247258 L377.339878,69.0317714 C377.383442,69.0411656 377.424443,69.0599539 377.462881,69.0881363 C377.520539,69.13041 377.568587,69.195742 377.607025,69.2841324 C377.645464,69.3725228 377.674293,69.4916577 377.693512,69.641537 C377.712731,69.7914164 377.722341,69.9739617 377.722341,70.1891731 C377.722341,70.4120706 377.712731,70.5965375 377.693512,70.7425738 C377.674293,70.8886101 377.645464,71.0058235 377.607025,71.0942138 C377.568587,71.1826042 377.520539,71.2460147 377.462881,71.2844453 C377.405224,71.3228759 377.3418,71.3420912 377.272611,71.3420912 L377.272611,71.3420912 L372.763786,71.3420912 L372.763786,75.5502424 L378.137475,75.5502424 L378.204743,75.557288 C378.248306,75.5666821 378.289307,75.5854704 378.327745,75.6136529 C378.385403,75.6559265 378.433451,75.7231801 378.471889,75.8154135 C378.510328,75.907647 378.539157,76.0287034 378.558376,76.1785827 C378.577595,76.3284621 378.587205,76.5148505 378.587205,76.737748 C378.587205,76.9606455 378.577595,77.147034 378.558376,77.2969133 C378.539157,77.4467927 378.510328,77.5678491 378.471889,77.6600825 C378.433451,77.752316 378.385403,77.8195695 378.327745,77.8618432 C378.270088,77.9041168 378.206664,77.9252537 378.137475,77.9252537 L378.137475,77.9252537 L370.641986,77.9252537 L370.494613,77.9162609 C370.304573,77.8922802 370.140365,77.8203381 370.001986,77.7004346 C369.829013,77.5505553 369.742527,77.306521 369.742527,76.9683316 L369.742527,76.9683316 L369.742527,63.9634153 L369.747822,63.8242416 C369.769002,63.5574234 369.853724,63.3597803 370.001986,63.2313123 C370.174959,63.0814329 370.388292,63.0064933 370.641986,63.0064933 L370.641986,63.0064933 L378.091349,63.0064933 Z M385.990442,63.0064933 L386.383379,63.0111626 C387.544026,63.0391785 388.541215,63.193266 389.374944,63.4734251 C390.30131,63.784713 391.081609,64.2458802 391.715843,64.8569268 C392.350077,65.4679734 392.832479,66.2231348 393.163049,67.1224109 C393.493619,68.0216871 393.658905,69.0631564 393.658905,70.246819 C393.658905,71.6149485 393.480166,72.7851604 393.122689,73.7574547 C392.765212,74.729749 392.252059,75.5233409 391.58323,76.1382306 C390.914402,76.7531203 390.10143,77.2046799 389.144313,77.4929094 C388.187197,77.7811389 387.047498,77.9252537 385.725217,77.9252537 L385.725217,77.9252537 L382.161977,77.9252537 L382.014604,77.9162609 C381.824564,77.8922802 381.660355,77.8203381 381.521977,77.7004346 C381.349004,77.5505553 381.262518,77.306521 381.262518,76.9683316 L381.262518,76.9683316 L381.262518,63.9634153 L381.267813,63.8242416 C381.288993,63.5574234 381.373715,63.3597803 381.521977,63.2313123 C381.69495,63.0814329 381.908283,63.0064933 382.161977,63.0064933 L382.161977,63.0064933 L385.990442,63.0064933 Z M385.817469,65.3815046 L384.283777,65.3815046 L384.283777,75.527184 L385.863595,75.527184 C386.693865,75.527184 387.393444,75.4195783 387.962332,75.2043669 C388.531221,74.9891555 389.005935,74.6644169 389.386475,74.2301511 C389.767016,73.7958853 390.05146,73.2559353 390.239808,72.6103012 C390.428156,71.964667 390.52233,71.2114272 390.52233,70.3505817 C390.52233,69.6434586 390.439688,68.9862952 390.274403,68.3790917 C390.109118,67.7718881 389.843893,67.2453889 389.478728,66.7995939 C389.113563,66.3537989 388.644614,66.0060019 388.071882,65.756203 C387.49915,65.5064041 386.747679,65.3815046 385.817469,65.3815046 L385.817469,65.3815046 Z M400.96989,65.854201 L400.958358,65.854201 L398.84809,72.1952506 L403.080158,72.1952506 L400.96989,65.854201 Z M407.714716,61.2533504 C407.863699,61.2533504 407.984473,61.3741 407.984473,61.5230521 C407.984473,61.6507254 407.895741,61.7576784 407.776569,61.7856308 L407.714716,61.7927538 L352.269756,61.7927538 C352.120774,61.7927538 352,61.6720042 352,61.5230521 C352,61.3953789 352.088732,61.2884259 352.207904,61.2604734 L352.269756,61.2533504 L407.714716,61.2533504 Z M404.420351,17.3256171 C404.420351,17.3256171 400.376864,18.7589434 396.501141,23.243806 C393.642485,26.553608 390.546481,32.086781 388.750647,35.098291 C386.952906,38.108848 385.02267,42.0533542 380.921991,46.4438689 C378.408929,49.1338104 369.348296,56.4371787 357.660831,60.0370719 L357.27,60.155 L357.293062,60.1479784 C358.190891,59.8598696 362.486291,58.2904993 368.142398,53.0920631 C374.518373,47.2310548 375.369583,45.5270738 376.894708,43.3818495 C378.421739,41.2356721 379.402585,37.7819657 381.200326,34.2262873 C383.953176,28.7874622 388.365553,22.2564882 401.693238,17.3256171 L404.420351,17.3256171 Z M386.521296,40.4588741 C386.521296,40.4588741 393.455848,44.0946053 398.553577,59.6677332 C398.553577,59.6677332 394.032536,51.5576225 384.257439,44.0440957 L386.521296,40.4588741 Z M387.759125,16.4334097 C389.762758,16.5992333 391.253567,18.3565828 391.08771,20.3607617 C390.921853,22.3639877 389.163193,23.8535415 387.158607,23.6886709 C385.154975,23.5228472 383.664165,21.7635917 383.830022,19.7613188 C383.99588,17.7571398 385.754539,16.267586 387.759125,16.4334097 Z M400.744896,-4.79616347e-14 C400.744896,-4.79616347e-14 404.944708,3.55377237 404.820792,6.02397295 C404.696876,8.49322053 402.918199,10.847154 402.698962,12.7055225 C402.477819,14.665863 402.924871,15.7894611 403.325216,16.7367526 C403.325216,16.7367526 400.325487,12.964741 400.830684,10.6003245 C401.335882,8.23400195 402.88293,6.18503156 402.643676,4.39909178 C402.404422,2.612199 401.376869,0.668059649 400.744896,-4.79616347e-14 Z M405.038503,4.41977209 C407.011634,7.15014426 405.660945,8.69306662 405.04327,9.51741982 C404.398904,10.3789404 403.67447,11.6693152 403.67447,11.6693152 C403.812684,10.4990196 404.399857,9.40972975 405.008001,7.9173169 C405.659039,6.31911999 405.038503,4.41977209 405.038503,4.41977209 Z M402.008748,3.58951022 C402.008748,3.58951022 402.487256,4.87512002 402.184137,5.49838822 C401.880065,6.12070342 400.911611,7.84088554 401.085094,8.49750907 C401.085094,8.49750907 400.498874,7.30052916 400.744801,6.49809517 C400.990727,5.6966142 401.897223,4.81031537 402.008748,3.58951022 Z" transform="translate(-352)"/>
</svg>
