<svg xmlns="http://www.w3.org/2000/svg" width="74" height="60" viewBox="0 0 74 60">
  <path fill="#CCC" d="M1099.21456,56.10949 C1100.58306,58.0462647 1102.18883,59.806897 1103.99502,61.3510835 C1107.1068,60.5282374 1110.27898,59.9491327 1113.48227,59.6191172 C1113.10804,58.5094806 1112.76959,57.333484 1112.46668,56.10949 L1112.46668,56.10949 L1114.32563,56.10949 C1114.63199,57.296789 1114.96711,58.4132737 1115.33046,59.4439449 C1117.60395,59.2539552 1119.95592,59.1545364 1122.35727,59.1545364 C1124.86292,59.1545364 1127.34366,59.2675605 1129.74605,59.4815186 C1130.11402,58.4407874 1130.4532,57.3110004 1130.7643,56.10949 L1130.7643,56.10949 L1132.62401,56.10949 C1132.31628,57.3517254 1131.97266,58.5433272 1131.59201,59.6675085 C1134.77022,60.0100951 1137.91652,60.5987281 1141.00211,61.4280187 C1142.84656,59.8662487 1144.4842,58.0792406 1145.87598,56.10949 L1145.87598,56.10949 L1148.06681,56.10949 C1142.51334,64.7610805 1132.88741,70 1122.54475,70 C1112.2021,70 1102.57616,64.7610805 1097.0227,56.10949 L1097.0227,56.10949 Z M1122.35742,60.9513174 C1120.21109,60.9513174 1118.08056,61.0368279 1116.00406,61.1977888 C1117.87211,65.6515767 1120.24737,68.3310673 1122.5453,68.3310673 C1124.83829,68.3310673 1127.2077,65.6624852 1129.07368,61.22706 C1126.88585,61.046888 1124.63342,60.9513174 1122.35742,60.9513174 Z M1114.11926,61.3673554 C1111.30969,61.6447245 1108.52183,62.1070733 1105.77414,62.7513406 C1109.43279,65.427938 1113.67257,67.2181296 1118.15412,67.9786319 C1116.70327,66.5174084 1115.23677,64.1927167 1114.11926,61.3673554 Z M1130.95713,61.4049291 C1129.84216,64.2121702 1128.38104,66.5239232 1126.93661,67.9786319 C1131.37907,67.223812 1135.58452,65.4579266 1139.22258,62.8197006 C1136.50261,62.1644779 1133.74121,61.6918158 1130.95713,61.4049291 Z M1116.91456,26.4676486 C1118.87733,26.5051034 1120.83608,26.6591082 1122.78028,26.9288356 L1122.78028,26.9288356 L1129.11179,26.9288356 L1129.11179,34.7462284 L1122.78043,34.7462284 L1122.78043,33.0842582 C1121.84903,32.593194 1119.64598,32.0689801 1117.34863,32.0689801 C1114.40056,32.0689801 1113.25231,32.9303575 1113.25231,34.0388426 C1113.25231,38.6232598 1130.13627,33.362031 1130.13627,44.8098928 C1130.13627,49.549241 1126.93973,53.4262724 1117.34863,53.4262724 C1115.27252,53.3904496 1113.20021,53.2363148 1111.14195,52.9646308 L1111.14195,52.9646308 L1104.80962,52.9646308 L1104.80962,45.1478441 L1111.14195,45.1478441 L1111.14195,46.8104203 C1112.07262,47.3022117 1114.24492,47.8260014 1116.72805,47.8260014 C1120.01756,47.8260014 1121.35302,47.0873446 1121.35302,45.7631743 C1121.35302,41.4547118 1104.62293,46.4724993 1104.62293,34.9622469 C1104.62293,29.1150197 1109.62023,26.4676486 1116.91456,26.4676486 Z M1145.63007,26.4676486 C1154.00923,26.4676486 1160,31.298719 1160,39.9470363 C1160,48.5953535 1154.00923,53.4264239 1145.63007,53.4264239 C1137.24913,53.4264239 1131.25912,48.5953535 1131.25912,39.9470363 C1131.25912,31.298719 1137.24913,26.4676486 1145.63007,26.4676486 Z M1102.91479,26.9818631 L1102.91479,33.4445416 L1098.66272,33.4445416 L1098.66272,46.5553433 L1102.91479,46.5553433 L1102.91479,53.0180219 L1086,53.0180219 L1086,46.5553433 L1090.25116,46.5553433 L1090.25116,33.4445416 L1086,33.4445416 L1086,26.9818631 L1102.91479,26.9818631 Z M1145.63007,32.593194 C1142.3082,32.593194 1140.19796,34.6852923 1140.19796,39.9470363 C1140.19796,45.2101135 1142.30823,47.3022117 1145.63007,47.3022117 C1148.95016,47.3020602 1151.06098,45.209962 1151.06098,39.9470363 C1151.06098,34.6852923 1148.95016,32.593194 1145.63007,32.593194 Z M1122.54475,10 C1132.8873,10 1142.51318,15.2387297 1148.06681,23.890001 L1148.06681,23.890001 L1145.8754,23.890001 C1144.50715,21.9530608 1142.90099,20.1926137 1141.094,18.6492559 C1137.98261,19.4715058 1134.81098,20.0505026 1131.60827,20.3809193 C1131.98146,21.4904346 1132.32004,22.6660979 1132.62355,23.890001 L1132.62355,23.890001 L1130.76372,23.890001 C1130.45782,22.7036716 1130.12221,21.5863385 1129.75962,20.5560916 C1127.4854,20.7456267 1125.1345,20.8450758 1122.73285,20.8450758 C1120.22735,20.8450758 1117.7463,20.7322032 1115.34391,20.5178209 C1114.97533,21.5588249 1114.63661,22.6889149 1114.32548,23.890001 L1114.32548,23.890001 L1112.46595,23.890001 C1112.77347,22.6477353 1113.11669,21.4574364 1113.49749,20.3324977 C1110.31911,19.9899863 1107.17265,19.4013009 1104.08694,18.5718359 C1102.24338,20.1341961 1100.60608,21.9210281 1099.21383,23.890001 L1099.21383,23.890001 L1097.0227,23.890001 C1102.57633,15.2387297 1112.2022,10 1122.54475,10 Z M1122.54469,11.6686661 C1120.25079,11.6686661 1117.88195,14.3379148 1116.01586,18.7733401 C1118.20393,18.9532697 1120.45731,19.0485372 1122.73288,19.0485372 C1124.87872,19.0479615 1127.00986,18.9634813 1129.08551,18.8020658 C1127.21788,14.3491869 1124.84278,11.6686661 1122.54469,11.6686661 Z M1126.93557,12.0211015 C1128.3867,13.481719 1129.85277,15.8065319 1130.97101,18.6320447 L1130.971,18.632 L1132.02343,18.519595 C1134.12615,18.2773391 1136.21535,17.9310158 1138.28319,17.4819221 L1139.3153,17.248817 C1135.65678,14.5720697 1131.41708,12.7817297 1126.93557,12.0211015 Z M1118.15308,12.0211015 C1113.71053,12.7757072 1109.50511,14.5420005 1105.86759,17.1810631 C1108.58773,17.8354319 1111.34908,18.3080741 1114.13304,18.5958043 C1115.24685,15.7885025 1116.7088,13.4755072 1118.15308,12.0211015 Z" transform="translate(-1086 -10)"/>
</svg>
