<svg xmlns="http://www.w3.org/2000/svg" viewBox="0 0 74 60"><path d="M13.215 46.11a28.643 28.643 0 004.78 5.241 61.944 61.944 0 019.487-1.732 44.368 44.368 0 01-1.015-3.51h1.859a40.51 40.51 0 001.004 3.335 84.53 84.53 0 0114.416.038c.368-1.041.707-2.171 1.018-3.373h1.86a44.454 44.454 0 01-1.032 3.559c3.178.342 6.325.93 9.41 1.76a28.582 28.582 0 004.874-5.319h2.19C56.514 54.761 46.888 60 36.546 60c-10.343 0-19.969-5.239-25.522-13.89h2.192zm23.142 4.841a82.42 82.42 0 00-6.353.247c1.868 4.454 4.243 7.133 6.541 7.133 2.293 0 4.663-2.669 6.529-7.104a82.045 82.045 0 00-6.717-.276zm-8.238.416c-2.81.278-5.597.74-8.345 1.384a29.258 29.258 0 0012.38 5.228c-1.45-1.462-2.917-3.786-4.035-6.612zm16.838.038c-1.115 2.807-2.576 5.119-4.02 6.574a29.284 29.284 0 0012.286-5.16 62.765 62.765 0 00-8.266-1.414zM30.915 16.468c1.962.037 3.921.191 5.865.46h6.332v7.818H36.78v-1.662c-.931-.49-3.134-1.015-5.431-1.015-2.948 0-4.097.861-4.097 1.97 0 4.584 16.884-.677 16.884 10.77 0 4.74-3.196 8.617-12.787 8.617a54.632 54.632 0 01-6.207-.461H18.81v-7.817h6.332v1.662c.93.492 3.103 1.016 5.586 1.016 3.29 0 4.625-.739 4.625-2.063 0-4.308-16.73.71-16.73-10.8 0-5.848 4.997-8.495 12.292-8.495zm28.715 0c8.38 0 14.37 4.83 14.37 13.479 0 8.648-5.99 13.48-14.37 13.48-8.38 0-14.37-4.832-14.37-13.48s5.99-13.48 14.37-13.48zm-42.715.514v6.463h-4.252v13.11h4.252v6.463H0v-6.463h4.251v-13.11H0v-6.463h16.915zm42.715 5.611c-3.322 0-5.432 2.092-5.432 7.354 0 5.263 2.11 7.355 5.432 7.355 3.32 0 5.431-2.092 5.431-7.355 0-5.262-2.11-7.354-5.43-7.354zM36.545 0c10.342 0 19.968 5.239 25.522 13.89h-2.192a28.574 28.574 0 00-4.781-5.24 62.05 62.05 0 01-9.486 1.73c.373 1.11.712 2.286 1.016 3.51h-1.86a40.683 40.683 0 00-1.004-3.334 84.737 84.737 0 01-14.416-.038 40.825 40.825 0 00-1.019 3.372h-1.859a44.38 44.38 0 011.031-3.558 61.73 61.73 0 01-9.41-1.76 28.665 28.665 0 00-4.873 5.318h-2.191C16.576 5.239 26.203 0 36.545 0zm0 1.669c-2.294 0-4.663 2.669-6.53 7.104a82.187 82.187 0 0013.07.03c-1.867-4.454-4.242-7.134-6.54-7.134zm4.39.352c1.452 1.46 2.918 3.786 4.036 6.611l1.052-.112a64.02 64.02 0 006.26-1.038l1.032-.233a29.257 29.257 0 00-12.38-5.228zm-8.782 0a29.267 29.267 0 00-12.285 5.16 63.054 63.054 0 008.265 1.415c1.114-2.807 2.576-5.12 4.02-6.575z" fill="#0F5CAB" fill-rule="nonzero"/></svg>