<svg version="1.1" id="Layer_1" xmlns="http://www.w3.org/2000/svg" x="0" y="0" viewBox="0 0 512 512" xml:space="preserve"><style>.st0{fill:#0053a0}</style><path class="st0" d="M138.3 44h197.6v7.9H138.3zM138.3 69.2h197.6v7.9H138.3zM138.3 93.6h197.6v9.4H138.3zM138.3 116.6h197.6v9.4H138.3zM138.3 138.6h197.6v9.4H138.3zM138.3 160h197.6v12H138.3zM138.3 180.9h197.6v14.4H138.3zM138.3 203.6h197.6v14.7H138.3zM138.3 225.6h197.6v15.7H138.3zM138.3 246.6h197.6V264H138.3zM138.3 269.6h197.6v18.1H138.3zM138.3 291.6h197.6v18.1H138.3zM138.3 312.6h197.6v19.7H138.3zM138.3 335.1h197.6v19.6H138.3z"/><path d="M101.5 231.7s38.8 41.7 85.5 142c0 0 94.6-191.7 231.7-293-192.2 120-231 213.3-231 213.3s-30.4-43.7-86.2-62.3z" fill="#ed2024" stroke="#fff" stroke-width="4" stroke-miterlimit="10"/><path class="st0" d="M104.2 468v-80.2h12l31.3 51.2v-51.2h13.7V468H148l-30.2-53.5V468zM206 387.8h-15.8L164.8 468h14.8l4.8-17h26.2l5.5 17h16.2L206 387.8zm-18 49.7l10.5-32.2 9.2 32.2H188zM251 387.8h-16V468h16v-27s36.2 6.2 36.2-26.8c0-29.7-36.2-26.4-36.2-26.4zm.2 41v-28.5s19.8-4 19.8 14.2-19.8 14.3-19.8 14.3zM293.2 387.8h16.5V468h-16.5zM314.5 387.8v14h19.7V468h16.3v-66.2h20v-14z"/></svg>