<svg xmlns="http://www.w3.org/2000/svg" viewBox="0 0 125 60"><g fill-rule="nonzero" fill="none"><path d="M36.776 11.483c.354 0 .395.11.395.424a26590.25 26590.25 0 000 46.642c0 .616-.095 1.136-.681 1.451H24.054c-.6-.274-.723-.78-.723-1.396V11.88c0-.302.055-.397.382-.397 4.35.013 8.7.013 13.063 0zm-15 11.866c.246 0 .382.068.355.328-.014.096 0 .205 0 .301v13.755c0 .082-.014.178 0 .26.027.342-.123.424-.464.424-3.654-.014-7.295 0-10.95.014a.672.672 0 01-.558-.247C9.109 36.98 8.045 35.79 6.982 34.6c-.11-.137-.219-.274-.355-.438a.672.672 0 00-.15.52c-.027 1.122-.04 2.244-.055 3.353 0 .3-.095.356-.395.356a164.355 164.355 0 00-5.195 0c-.314 0-.587-.041-.832-.247l.04-14.466c.26-.26.587-.315.942-.315 3.545.014 7.09.014 10.65 0 .313-.013.6.137.777.383.968 1.219 1.95 2.423 2.931 3.627.069.082.137.247.246.206.15-.042.095-.206.095-.329 0-1.163.014-2.34.014-3.517 0-.274.054-.383.368-.383 1.91.013 3.818 0 5.713 0zm38.604 0c.613 0 .927.314.927.917 0 1.943 0 3.873.013 5.816 0 .26-.068.356-.34.342-3.518-.013-7.023-.013-10.54 0-.308 0-.327-.133-.328-.329v-4.406a1.636 1.636 0 00-.082-.63.365.365 0 00-.355-.287.382.382 0 00-.395.274c-.04.15-.068.3-.055.438v10.538c-.013.205.014.397.082.588.041.15.164.26.328.26a.358.358 0 00.381-.232c.062-.185.1-.385.11-.583V31.67c0-.288.068-.37.381-.356 1.855.027 3.71.014 5.577.014h4.896c.245 0 .354.027.354.328-.014 1.93 0 3.846-.014 5.776 0 .67-.313.958-.968.958l-10.513.013h-10.5c-.3 0-.586 0-.804-.287a.66.66 0 01-.177-.438c-.014-.329-.014-.657-.014-.985V24.676c0-.192 0-.383.014-.561.054-.52.313-.766.831-.766h21.19zM35.849 0c.763 0 1.268.438 1.281 1.218l.014 8.869c0 .287-.177.219-.327.219l-3.955.027H30.19l.013-.014h-6.545c-.259 0-.34-.054-.34-.328.013-2.765 0-5.543 0-8.308 0-.903.354-1.478 1.022-1.642.123-.027.245-.027.368-.027L35.848 0z" fill="#D01E2C"/><path d="M88.06 23.349c.3 0 .369.082.369.37a144.24 144.24 0 000 3.434c0 .26-.069.329-.341.329H75.556c-.45 0-.668.164-.709.506-.04.41.191.643.628.643h12.558c.273 0 .382.055.382.356-.014 1.246-.014 2.491 0 3.737 0 .3-.068.37-.368.37-4.146-.015-8.304-.015-12.45 0-.559 0-.859.382-.682.834.123.287.341.37.641.37h12.532c.259 0 .34.054.34.328a147.709 147.709 0 000 3.476c0 .247-.068.315-.313.315h-20.7c-.79 0-1.077-.301-1.077-1.095V24.526c0-.384.041-.726.355-.986.19-.15.41-.164.64-.164l10.337-.014c3.463 0 6.927 0 10.39-.013zm12.436.013c.287 0 .355.069.355.342-.014 4.79-.014 9.567 0 14.357 0 .26-.041.356-.341.356a1342.51 1342.51 0 00-10.5 0c-.327 0-.395-.082-.381-.397-.01-1.588-.013-3.181-.014-4.777v-9.525c0-.274.04-.356.34-.356 3.519.014 7.023.014 10.541 0zm23.509-.013c.45 0 .736.205.981.547v6.5c-3.64 0-7.268 0-10.908.015-.273 0-.3-.096-.3-.329.013-1.519 0-3.052 0-4.571a.95.95 0 00-.055-.438.365.365 0 00-.354-.274.414.414 0 00-.41.26 1.467 1.467 0 00-.081.589v10.429c0 .574.163.862.477.848.314-.014.436-.274.436-.835l.006-2.874c0-.479-.001-.958-.006-1.437 0-.328.055-.438.423-.438 3.477.014 6.954.014 10.418.014l.368.027-.014 6.405c-.231.493-.613.616-1.145.616-6.954-.013-13.922-.013-20.877-.013-.668 0-.954-.274-.954-.958v-13.07c0-.78.232-1.013.995-1.013h21z" fill="#0B0B0D"/></g></svg>