<svg xmlns="http://www.w3.org/2000/svg" width="125" height="60" viewBox="0 0 125 60">
  <path fill="#CCC" d="M469.775935,21.4826642 C470.130468,21.4826642 470.171376,21.5921533 470.171376,21.9069343 C470.15774,37.4543796 470.15774,53.0018248 470.171376,68.5492701 C470.171376,69.165146 470.075925,69.685219 469.489582,70 L457.053671,70 C456.453693,69.7262774 456.33097,69.2198905 456.33097,68.6040146 L456.33097,21.879562 C456.33097,21.5784672 456.385513,21.4826642 456.712774,21.4826642 C461.062616,21.4963504 465.412458,21.4963504 469.775935,21.4826642 Z M454.776481,33.3485401 C455.021926,33.3485401 455.158285,33.4169708 455.131013,33.6770073 C455.117378,33.7728102 455.131013,33.8822993 455.131013,33.9781022 L455.131013,47.7326642 L455.131013,47.7326642 C455.131013,47.814781 455.117378,47.9105839 455.131013,47.9927007 C455.158285,48.334854 455.008291,48.4169708 454.667394,48.4169708 C451.012981,48.4032847 447.372205,48.4169708 443.717792,48.4306569 C443.499618,48.4443431 443.29508,48.3485401 443.158722,48.1843066 C442.10876,46.979927 441.045162,45.7892336 439.981564,44.5985401 C439.872477,44.4616788 439.76339,44.3248175 439.627032,44.1605839 C439.504309,44.3111314 439.449765,44.5027372 439.477037,44.6806569 C439.449765,45.8029197 439.43613,46.9251825 439.422494,48.0337591 C439.422494,48.334854 439.327043,48.3895985 439.027054,48.3895985 C437.295298,48.3622263 435.563543,48.3622263 433.831788,48.3895985 C433.518163,48.3895985 433.245446,48.3485401 433,48.1432482 L433.040908,33.6770073 C433.299989,33.4169708 433.62725,33.3622263 433.981782,33.3622263 C437.527108,33.3759124 441.072434,33.3759124 444.631395,33.3622263 C444.94502,33.3485401 445.231373,33.4990876 445.40864,33.745438 C446.376786,34.9635036 447.358569,36.1678832 448.340351,37.3722628 C448.408531,37.4543796 448.47671,37.6186131 448.585797,37.5775547 C448.735791,37.5364964 448.681248,37.3722628 448.681248,37.2490876 C448.681248,36.0857664 448.694884,34.9087591 448.694884,33.7317518 C448.694884,33.4580292 448.749427,33.3485401 449.063052,33.3485401 C450.972074,33.3622263 452.881095,33.3485401 454.776481,33.3485401 Z M521.060434,33.3485401 C521.360423,33.3485401 521.428603,33.4306569 521.428603,33.7180657 C521.414967,34.8677007 521.414967,36.0036496 521.428603,37.1532847 C521.428603,37.4133212 521.360423,37.4817518 521.087706,37.4817518 L508.556343,37.4817518 L508.556343,37.4817518 C508.10636,37.4817518 507.888186,37.6459854 507.847278,37.9881387 C507.806371,38.3987226 508.03818,38.6313869 508.474528,38.6313869 L521.033162,38.6313869 L521.033162,38.6313869 C521.30588,38.6313869 521.414967,38.6861314 521.414967,38.9872263 C521.401331,40.2326642 521.401331,41.4781022 521.414967,42.7235401 C521.414967,43.024635 521.346787,43.0930657 521.046798,43.0930657 C516.901494,43.0793796 512.742555,43.0793796 508.597251,43.0930657 C508.03818,43.0930657 507.738191,43.4762774 507.915458,43.9279197 C508.03818,44.2153285 508.256354,44.2974453 508.556343,44.2974453 L521.087706,44.2974453 L521.087706,44.2974453 C521.346787,44.2974453 521.428603,44.3521898 521.428603,44.6259124 C521.414967,45.7892336 521.414967,46.9388686 521.428603,48.1021898 C521.428603,48.3485401 521.360423,48.4169708 521.114978,48.4169708 L500.41573,48.4169708 L500.41573,48.4169708 C499.62485,48.4169708 499.338497,48.1158759 499.338497,47.3220803 L499.338497,34.5255474 L499.338497,34.5255474 C499.338497,34.1423358 499.379404,33.8001825 499.693029,33.540146 C499.883931,33.3895985 500.102105,33.3759124 500.333915,33.3759124 C503.78379,33.3759124 507.220028,33.3622263 510.669903,33.3622263 C514.133413,33.3622263 517.596924,33.3622263 521.060434,33.3485401 Z M533.496346,33.3622263 C533.782699,33.3622263 533.850878,33.4306569 533.850878,33.7043796 C533.837242,38.4945255 533.837242,43.2709854 533.850878,48.0611314 C533.850878,48.3211679 533.809971,48.4169708 533.509981,48.4169708 C530.005563,48.4032847 526.514781,48.4032847 523.010363,48.4169708 C522.683102,48.4169708 522.614923,48.334854 522.628559,48.020073 C522.614923,45.6386861 522.614923,43.2436131 522.614923,40.8485401 L522.614923,33.7180657 L522.614923,33.7180657 C522.614923,33.4443431 522.655831,33.3622263 522.95582,33.3622263 C526.473874,33.3759124 529.978292,33.3759124 533.496346,33.3622263 Z M493.379623,33.3485401 C493.993237,33.3485401 494.306862,33.6633212 494.306862,34.2655109 C494.306862,36.2089416 494.306862,38.1386861 494.320497,40.0821168 C494.320497,40.3421533 494.252318,40.4379562 493.979601,40.4242701 C490.461547,40.4105839 486.957129,40.4105839 483.439075,40.4242701 C483.132268,40.4242701 483.112632,40.2912409 483.111773,40.0950228 L483.111814,35.6888686 L483.111814,35.6888686 C483.12545,35.4698905 483.098178,35.2645985 483.029999,35.0593066 C482.989091,34.895073 482.852733,34.7718978 482.675466,34.7718978 C482.4982,34.7582117 482.33457,34.8677007 482.280026,35.0456204 C482.239119,35.1961679 482.211847,35.3467153 482.225483,35.4835766 L482.225483,46.0218978 L482.225483,46.0218978 C482.211847,46.2271898 482.239119,46.4187956 482.307298,46.6104015 C482.348206,46.7609489 482.470928,46.870438 482.634559,46.870438 C482.798189,46.8978102 482.96182,46.7883212 483.016363,46.6377737 C483.077724,46.4530109 483.116075,46.2528513 483.125663,46.0546162 L483.12545,41.669708 L483.12545,41.669708 C483.12545,41.3822993 483.193629,41.3001825 483.507254,41.3138686 C485.361732,41.3412409 487.21621,41.3275547 489.084324,41.3275547 L493.979601,41.3275547 L493.979601,41.3275547 C494.225046,41.3275547 494.334133,41.354927 494.334133,41.6560219 C494.320497,43.5857664 494.334133,45.5018248 494.320497,47.4315693 C494.320497,48.1021898 494.006872,48.3895985 493.352351,48.3895985 L482.839097,48.4032847 L472.339479,48.4032847 C472.039489,48.4032847 471.753136,48.4032847 471.534962,48.1158759 C471.425875,47.9927007 471.357696,47.8421533 471.357696,47.6779197 C471.34406,47.3494526 471.34406,47.0209854 471.34406,46.6925182 L471.34406,34.6760949 C471.34406,34.4844891 471.34406,34.2928832 471.357696,34.1149635 C471.41224,33.5948905 471.671321,33.3485401 472.189484,33.3485401 L493.379623,33.3485401 L493.379623,33.3485401 Z M557.004582,33.3485401 C557.454565,33.3485401 557.740919,33.5538321 557.986364,33.8959854 L557.986364,40.3968978 C554.345587,40.3968978 550.718447,40.3968978 547.07767,40.4105839 C546.804953,40.4105839 546.777681,40.314781 546.777681,40.0821168 C546.791317,38.5629562 546.777681,37.0301095 546.777681,35.5109489 C546.791317,35.3604015 546.777681,35.209854 546.723137,35.0729927 C546.68223,34.9087591 546.532235,34.7992701 546.368605,34.7992701 C546.191338,34.7855839 546.027708,34.895073 545.959529,35.0593066 C545.891349,35.2509124 545.864078,35.4562044 545.877714,35.6478102 L545.877714,46.0766423 L545.877714,46.0766423 C545.877714,46.6514599 546.041344,46.9388686 546.354969,46.9251825 C546.668594,46.9114964 546.791317,46.6514599 546.791317,46.0903285 L546.797377,43.2162409 C546.797377,42.7372263 546.795862,42.2582117 546.791317,41.7791971 C546.791317,41.4507299 546.84586,41.3412409 547.214029,41.3412409 C550.691175,41.354927 554.168321,41.354927 557.631832,41.354927 L558,41.3822993 L558,41.3822993 L557.986364,47.7874088 C557.754554,48.2801095 557.37275,48.4032847 556.840951,48.4032847 C549.886659,48.3895985 542.91873,48.3895985 535.964438,48.3895985 C535.29628,48.3895985 535.009927,48.1158759 535.009927,47.4315693 L535.009927,34.3613139 L535.009927,34.3613139 C535.009927,33.5812044 535.241737,33.3485401 536.005345,33.3485401 L557.004582,33.3485401 L557.004582,33.3485401 Z M468.848696,10 C469.612305,10 470.116832,10.4379562 470.130468,11.2180657 L470.144104,20.0866788 L470.144104,20.0866788 C470.144104,20.3740876 469.966838,20.3056569 469.816843,20.3056569 L465.862441,20.3330292 L463.189811,20.3330292 L463.203447,20.3193431 L456.658231,20.3193431 C456.399149,20.3193431 456.317334,20.2645985 456.317334,19.9908759 C456.33097,17.2262774 456.317334,14.4479927 456.317334,11.6833942 C456.317334,10.7801095 456.671866,10.205292 457.340024,10.0410584 C457.462747,10.0136861 457.58547,10.0136861 457.708192,10.0136861 L468.848696,10 Z" transform="translate(-433 -10)"/>
</svg>
