<svg xmlns="http://www.w3.org/2000/svg" width="68" height="68" viewBox="0 0 68 68">
  <path fill="#CCC" d="M34,6 C43.08174,6 51.61999,9.53655421 58.04157,15.9585545 C64.46332,22.3802148 68,30.9182315 68,39.999745 C68,49.0814285 64.46332,57.6196152 58.04157,64.0414455 C51.61982,70.4632758 43.08174,74 34,74 C24.91826,74 16.38018,70.4632758 9.95843,64.0414455 C3.53668,57.6196152 0,49.0814285 0,39.999745 C0,30.9182315 3.53668,22.3802148 9.95843,15.9585545 C16.38018,9.53655421 24.91826,6 34,6 Z M34,7.20344504 C25.23973,7.20344504 17.00374,10.6148777 10.80928,16.8094151 C4.61482,23.0039525 1.20343,31.2398755 1.20343,39.999745 C1.20343,48.7601245 4.61482,56.9962175 10.80928,63.1905849 C17.00374,69.3849523 25.23956,72.796555 34,72.796555 C42.76044,72.796555 50.99643,69.3849523 57.19089,63.1905849 C63.38535,56.9960475 66.79674,48.7601245 66.79674,39.999745 C66.79674,31.2398755 63.38535,23.0039525 57.19089,16.8094151 C50.99626,10.6148777 42.76027,7.20344504 34,7.20344504 Z M8.79444,55.7290216 C10.44344,58.3470543 12.51115,60.722154 14.95167,62.7562295 L15.50961,62.0867611 C13.2855,60.2330579 11.38031,58.0872911 9.83093,55.7290216 L58.16907,55.7290216 C56.6202,58.0869511 54.71552,60.2318679 52.49192,62.0852311 L53.05003,62.7545294 C55.48987,60.720964 57.5569,58.3463743 59.20556,55.7290216 L61.80571,55.7290216 C56.31811,65.4089426 45.92176,71.9407643 33.99983,71.9407643 C22.2391749,71.9407643 11.9631464,65.5842855 6.41944106,56.1197178 L6.19429,55.7290216 L8.79444,55.7290216 Z M38.53084,67.761092 L38.07082,67.8226328 L38.10618,68.0876661 C37.96933,67.922084 37.77859,67.8268828 37.56133,67.8559532 C37.1042,67.916984 36.94202,68.2719484 37.00033,68.7091939 C37.0583,69.1437193 37.35019,69.4148727 37.7536,69.360982 C37.9228917,69.3384567 38.0613708,69.2641044 38.1597898,69.13094 L38.21396,69.043928 L38.21974,69.043248 L38.23028,69.122129 C38.2687,69.4101126 38.1293,69.5695746 37.83588,69.6085051 C37.66656,69.6312174 37.5457648,69.6179164 37.4195296,69.5833122 L37.32299,69.5535944 L37.35104,69.9575195 C37.47514,69.9842098 37.6822,70.0081801 37.92496,69.9757097 C38.4750921,69.9021473 38.7449602,69.6953406 38.7161891,69.182698 L38.70424,69.0588882 L38.53084,67.761092 Z M35.32651,68.0931062 L34.81413,68.1027963 L34.82569,68.7289141 C34.83164,69.0476681 34.72624,69.1948899 34.51561,69.19863 C34.3934862,69.2011588 34.3028603,69.1307991 34.2784676,68.9263932 L34.27217,68.8304054 L34.25908,68.1131664 L33.74653,68.1226865 L33.76404,69.0476681 C33.76965,69.3548619 33.93727,69.6367255 34.34153,69.6290754 C34.54145,69.6254325 34.7192631,69.5530948 34.8279719,69.3968604 L34.87635,69.3116814 L34.88213,69.3115114 L34.88723,69.5847048 L35.35405,69.5760347 L35.32651,68.0931062 Z M30.96465,67.9786947 L30.87302,69.4594132 L31.38455,69.4912036 L31.42348,68.8657658 C31.44337,68.5471818 31.56033,68.4091401 31.74223,68.4205303 C31.8663786,68.4279618 31.9223329,68.5238222 31.9292558,68.6567242 L31.92872,68.7260241 L31.87925,69.521804 L32.39112,69.5535944 L32.42971,68.9281566 C32.4496,68.6099126 32.56656,68.4715309 32.74846,68.482921 C32.8726086,68.4903526 32.928438,68.5862129 32.9354322,68.719115 L32.93495,68.7884149 L32.88548,69.5841948 L33.39735,69.6159852 L33.45141,68.7435343 C33.47606,68.3426693 33.39446,68.0949762 32.9681,68.0686259 C32.75747,68.0555357 32.55619,68.1286366 32.42444,68.320229 C32.35678,68.1220065 32.18916,68.0203453 31.9787,68.0072551 C31.7789257,67.9950149 31.5957629,68.0528434 31.47471,68.1996896 L31.41957,68.2806185 L31.41396,68.2802785 L31.43062,68.0075951 L30.96465,67.9786947 Z M36.2924048,67.9916361 L36.15985,67.997395 C35.86456,68.0196652 35.54003,68.1842273 35.5657,68.5247416 C35.60599,69.0583782 36.31948,68.8275153 36.33818,69.0774185 C36.346,69.1794197 36.24502,69.2040701 36.13996,69.2120602 C36.0016225,69.2223878 35.8658669,69.2038363 35.7547108,69.1761286 L35.65257,69.1460993 L35.65223,69.520104 C35.80642,69.5571645 35.96418,69.5682146 36.19419,69.5507044 C36.52909,69.5255441 36.8764,69.3995725 36.84682,69.0049976 C36.80432,68.4429705 36.05734,68.6818235 36.04,68.4519806 C36.03388,68.3695296 36.1573,68.3404593 36.26797,68.3319591 C36.3637225,68.3246916 36.4800344,68.3353061 36.579827,68.3651653 L36.67274,68.40149 L36.68583,68.0434655 C36.601,68.0170302 36.5134925,68.00224 36.4251987,67.9956949 L36.2924048,67.9916361 Z M29.1363,67.7051613 L29.0037,68.6207928 C28.9595,68.9249266 29.07918,69.2302504 29.47936,69.2880511 C29.6773857,69.3169029 29.8646702,69.2744371 29.9973208,69.1378505 L30.05889,69.0616083 L30.0645,69.0622883 L30.0254,69.3327617 L30.48746,69.3999125 L30.70047,67.9319441 L30.19336,67.8583332 L30.10343,68.478501 C30.05753,68.7938549 29.92969,68.9222065 29.7211,68.8919461 C29.600315,68.8743934 29.5220911,68.7901999 29.5312996,68.5845853 L29.54073,68.4888711 L29.64358,67.7786022 L29.1363,67.7051613 Z M39.8752,67.4873886 C39.82318,67.4884086 39.76011,67.4918086 39.70146,67.5028588 C39.5145086,67.5385592 39.4116135,67.6474508 39.3535924,67.8044822 L39.32814,67.8868936 L39.32253,67.8877436 L39.27153,67.6193102 L38.81287,67.7065213 L39.0898,69.1637795 L39.59334,69.0682384 L39.47638,68.4528307 C39.42215,68.1675671 39.52126,67.9720647 39.7562,67.9271841 C39.7954133,67.919704 39.8332667,67.9124506 39.8716741,67.9102594 L39.92994,67.9113739 L39.8752,67.4873886 Z M27.56737,68.1432568 C27.46894,68.6230028 27.77732,68.9766072 28.25723,69.0750384 C28.34631,69.093512 28.4449856,69.1032966 28.5406641,69.1030321 L28.68036,69.0949287 L28.74564,68.718884 C28.65282,68.7464243 28.53348,68.7481244 28.41907,68.7246641 C28.20147,68.6802935 28.03708,68.4895511 28.08451,68.2580082 C28.13602,68.0069151 28.33441,67.8906336 28.55184,67.9351742 C28.641855,67.9535344 28.7132231,67.9828917 28.7772759,68.0279077 L28.83931,68.078316 L28.95083,67.7177415 C28.84798,67.6381805 28.71912,67.5858198 28.5685,67.5548794 C28.08876,67.4567882 27.66631,67.6607908 27.56737,68.1432568 Z M38.13389,68.5291616 C38.16415,68.7549244 38.04056,68.9262866 37.86002,68.9505969 C37.70753,68.9709971 37.5547,68.8589657 37.5241,68.6306529 C37.49741,68.4303904 37.57408,68.2505281 37.76295,68.2253678 C37.99177,68.1949374 38.11213,68.3656196 38.13389,68.5291616 Z M40.72333,67.2691059 C40.24784,67.3858973 39.95357,67.7514019 40.07104,68.2297879 C40.188,68.7052838 40.6181,68.8927962 41.09359,68.7758347 C41.56925,68.6590432 41.86352,68.2935387 41.74656,67.8180427 C41.62909,67.3396567 41.19882,67.1521444 40.72333,67.2691059 Z M27.1184,66.5933474 L26.60466,68.6656733 L27.10191,68.7890949 L27.61565,66.716769 L27.1184,66.5933474 Z M25.5068212,66.8361211 L25.36043,66.8422305 L25.26931,67.1774747 C25.42843,67.1417743 25.59588,67.1587745 25.75398,67.2062051 C25.93129,67.2590757 26.06049,67.3541069 26.00541,67.5485894 C25.94591,67.519009 25.86108,67.4844986 25.78186,67.4610383 C25.52006,67.3830073 25.0325,67.2940962 24.90313,67.7279416 C24.81099,68.0363255 25.0206,68.2503581 25.30178,68.3341692 C25.4699383,68.3841781 25.6091731,68.3659501 25.7462434,68.2749596 L25.82844,68.2115976 L25.8046825,68.3253503 L25.8046825,68.3253503 L25.77812,68.4402505 L26.22845,68.5748922 C26.2360433,68.4958979 26.2509656,68.4191702 26.269993,68.3436515 L26.30121,68.2311479 L26.45914,67.7015913 C26.58851,67.2679158 26.32093,67.0185227 25.95798,66.9102314 C25.853005,66.879036 25.752535,66.8573182 25.65385,66.8457581 L25.5068212,66.8361211 Z M41.23231,67.9441843 C41.28467,68.157197 41.23758,68.3710596 41.00808,68.4275003 C40.77858,68.483941 40.63765,68.3159789 40.58529,68.1031363 C40.53242,67.8874036 40.57951,67.6738809 40.80901,67.6174402 C41.03834,67.5609995 41.17927,67.7286216 41.23231,67.9441843 Z M44.46078,66.0668508 C44.2744114,66.1398546 44.1248878,66.2725603 44.0736588,66.4543694 L44.05652,66.5493169 L44.05108,66.5515269 L43.9535,66.3023038 L43.51337,66.4746859 L44.27259,68.4130502 L44.74995,68.2260478 L44.45585,67.4758284 C44.61565,67.60248 44.81999,67.5927899 44.98693,67.5276791 C45.39799,67.3665171 45.48503,66.9406618 45.32506,66.5324867 C45.19416,66.1984325 44.84243,65.917249 44.46078,66.0668508 Z M43.26823,66.561897 L42.77965,66.716939 L42.96903,67.3138164 C43.06559,67.6177802 43.00643,67.7888024 42.80549,67.8527232 C42.6893162,67.8896136 42.5823836,67.8480189 42.5008639,67.6589227 L42.46753,67.5686496 L42.25061,66.8849011 L41.76203,67.039773 L42.04185,67.921914 C42.13467,68.2149977 42.37556,68.4373605 42.76095,68.3149589 C42.9515443,68.2541953 43.1015467,68.1343542 43.1612836,67.9535086 L43.1834,67.8579932 L43.18884,67.8562932 L43.27163,68.1169065 L43.71669,67.9754647 L43.26823,66.561897 Z M25.72576,67.7294716 C25.79954,67.7512319 25.86873,67.7779222 25.93078,67.7991725 C25.88114,67.9659446 25.71335,68.1000763 25.52771,68.0448256 C25.41313,68.0104851 25.34275,67.9273541 25.37199,67.8289229 C25.41279,67.6925812 25.55933,67.679491 25.72576,67.7294716 Z M24.18709,67.441998 L24.03528,67.8777135 L24.48714,68.0351354 L24.63878,67.59942 L24.18709,67.441998 Z M17.52377,62.8184502 L17.09248,64.3093689 L17.59041,64.6354329 L18.41423,63.8913336 L18.41882,63.8947337 L18.04074,64.9300466 L18.53867,65.2557707 L19.72548,64.2654083 L19.43797,65.7860073 L19.96412,66.0636208 L20.71399,65.2462506 L20.71909,65.2489706 L20.43978,66.3148839 L20.96593,66.5924974 L22.05548,65.4944083 L21.91164,67.036543 L22.46159,67.2634958 L23.13173,66.3782947 L23.137,66.3806748 L22.95918,67.4686884 L23.50947,67.6956412 L24.49377,66.4967862 L24.03579,66.3080839 L23.41257,67.2060351 L23.4073,67.203825 L23.58308,66.1210815 L23.01443,65.8863086 L22.37013,66.7757597 L22.36503,66.7735497 L22.55101,65.6952262 L22.05614,65.4910536 L21.62026,65.2610408 L20.91561,66.0960912 L20.91051,66.0933712 L21.18727,65.0327279 L20.64361,64.7455943 L19.9189,65.5699346 L19.91397,65.5673846 L20.20076,64.5118414 L19.73003,64.2626183 L19.3154,63.9911249 L18.53527,64.7568145 L18.53051,64.7535844 L18.90553,63.7228615 L18.39094,63.3860873 L17.59177,64.1393667 L17.58701,64.1361367 L17.97155,63.1115339 L17.52377,62.8184502 Z M44.83614,66.7361492 C44.9225,66.956132 44.87286,67.1499344 44.69266,67.2204853 C44.53354,67.283046 44.34195,67.1837648 44.2629,66.9821423 C44.18181,66.7755897 44.23808,66.5761772 44.41318,66.5073263 C44.59882,66.4347354 44.7644,66.5532269 44.83614,66.7361492 Z M46.13749,66.4950862 L45.7011,66.6909286 L45.8898,67.1118539 L46.32636,66.9160115 L46.13749,66.4950862 Z M47.10054,64.9436468 C46.97083,64.9444968 46.83704,64.9822373 46.69934,65.0505781 C46.26091,65.2688609 46.05368,65.6899561 46.27315,66.1307716 C46.49109,66.5692071 46.95196,66.6582882 47.39039,66.4400055 C47.47199,66.399545 47.5558567,66.3465421 47.6310093,66.2874947 L47.73583,66.1952024 L47.5558,65.8587682 C47.49953,65.9374792 47.40654,66.0124502 47.30199,66.0644708 C47.10309,66.163242 46.85625,66.1142814 46.75102,65.9026288 C46.63695,65.6732959 46.72144,65.4594332 46.92034,65.360662 C47.00245,65.319734 47.0767187,65.2988875 47.1549081,65.2948951 L47.23484,65.2964012 L47.10054,64.9436468 Z M47.91025,64.39607 C47.48508,64.639173 47.30284,65.0716584 47.5473,65.4992137 C47.7904,65.9243891 48.25552,65.9862698 48.68069,65.7429968 C49.10569,65.4998937 49.28827,65.0675783 49.045,64.642403 C48.80054,64.2150177 48.33525,64.1531369 47.91025,64.39607 Z M48.58532,64.9053963 C48.69412,65.0956287 48.70772,65.3144214 48.50236,65.4317229 C48.29717,65.5491944 48.11578,65.4266228 48.00681,65.2362205 C47.89665,65.043778 47.88322,64.8249853 48.08824,64.7076838 C48.29343,64.5902124 48.47499,64.7127839 48.58532,64.9053963 Z M50.48167,62.7458593 C50.3081,62.8650308 50.19454,63.0469331 50.20882,63.278816 C50.03355,63.1642346 49.8389,63.1876948 49.66516,63.3068663 C49.5002114,63.4202335 49.3915918,63.5786893 49.3868338,63.7689589 L49.39333,63.8666833 L49.38874,63.8700834 L49.23387,63.6444906 L48.84899,63.9090139 L49.68879,65.1318391 L50.11124,64.8416455 L49.75662,64.3255191 C49.57608,64.0625258 49.58288,63.8816435 49.73316,63.7784522 C49.8357429,63.7079256 49.9387004,63.7489343 50.0259743,63.8493416 L50.06823,63.9042538 L50.51975,64.561142 L50.94203,64.2709484 L50.58741,63.7546519 C50.4067,63.4918286 50.41384,63.3109464 50.56395,63.2077551 C50.6665329,63.1370828 50.7694904,63.1779457 50.8567643,63.2783144 L50.89902,63.3332167 L51.35054,63.9901049 L51.77299,63.7000813 L51.27795,62.9796122 C51.05066,62.6487881 50.83374,62.5041163 50.48167,62.7458593 Z M35.47458,58.076751 C34.27608,58.076751 33.65065,58.7905899 33.65065,59.9581645 C33.65065,61.1150289 34.28645,61.839578 35.47458,61.839578 C36.66305,61.839578 37.29885,61.1151989 37.29885,59.9581645 C37.29885,58.7905899 36.67359,58.076751 35.47458,58.076751 Z M32.14394,58.1391417 L30.41368,58.1391417 L30.41368,61.7770172 L31.38302,61.7770172 L31.38302,60.3384592 L31.58617,60.3384592 C31.9180623,60.3384592 32.0502036,60.4718697 32.2243409,60.9843181 L32.26889,61.120469 L32.47731,61.7771872 L33.48847,61.7771872 L33.13402,60.7867548 C32.9720289,60.3931055 32.9375084,60.130958 32.712267,60.0190579 L32.61824,59.9841748 L32.61824,59.9736347 C33.08727,59.8641533 33.3166,59.5409793 33.3166,59.0563032 C33.3166,58.4306954 32.79028,58.1391417 32.14394,58.1391417 Z M45.67084,58.1391417 L44.34705,58.1391417 L44.34705,61.7770172 L45.67084,61.7770172 C46.91133,61.7770172 47.82338,61.3023713 47.82338,59.9423543 C47.82338,58.5352467 46.93734,58.1391417 45.67084,58.1391417 Z M43.83076,58.1391417 L41.26648,58.1391417 L41.26648,61.7770172 L43.88805,61.7770172 L43.88805,61.0891886 L42.23582,61.0891886 L42.23582,60.2655283 L43.74202,60.2655283 L43.74202,59.5775297 L42.23582,59.5775297 L42.23582,58.8271403 L43.83076,58.8271403 L43.83076,58.1391417 Z M38.32633,58.1391417 L37.29443,58.1391417 L38.51401,61.7770172 L39.71268,61.7770172 L40.953,58.1391417 L39.95765,58.1391417 L39.14454,60.9951774 L39.13417,60.9951774 L38.32633,58.1391417 Z M28.48979,58.1391417 L27.33277,58.1391417 L27.33277,61.7770172 L28.30211,61.7770172 L28.30211,60.5054013 L28.67747,60.5054013 C29.58442,60.5054013 30.12111,60.0674758 30.12111,59.3327267 C30.12111,58.5143364 29.59989,58.1391417 28.48979,58.1391417 Z M25.43523,58.1391417 L24.27821,58.1391417 L24.27821,61.7770172 L25.24755,61.7770172 L25.24755,60.5054013 L25.62291,60.5054013 C26.52952,60.5054013 27.06655,60.0674758 27.06655,59.3327267 C27.06655,58.5143364 26.54533,58.1391417 25.43523,58.1391417 Z M22.67749,58.1391417 L21.48936,58.1391417 L20.10811,61.7770172 L21.09309,61.7770172 L21.37988,61.0004475 L22.74532,61.0004475 L23.0163,61.7770172 L24.07948,61.7770172 L22.67749,58.1391417 Z M35.47458,58.7958599 C36.0638,58.7958599 36.29823,59.3272866 36.29823,59.9579945 C36.29823,60.557252 36.06363,61.120299 35.47458,61.120299 C34.8857,61.120299 34.65127,60.557422 34.65127,59.9579945 C34.65127,59.3272866 34.8857,58.7958599 35.47458,58.7958599 Z M45.69175,58.8582507 C46.40065,58.8582507 46.82276,59.2334454 46.82276,59.9579945 C46.82276,60.6340816 46.4685314,61.0059903 45.8323613,61.0525733 L45.69175,61.0575682 L45.31656,61.0575682 L45.31656,58.8582507 L45.69175,58.8582507 Z M22.08334,58.8895311 L22.51599,60.3122789 L21.60394,60.3122789 L22.07297,58.8895311 L22.08334,58.8895311 Z M28.55235,58.8271403 C28.88606,58.8271403 29.15194,58.9468218 29.15194,59.3169165 C29.15194,59.6627935 28.9322045,59.7934282 28.6415313,59.8143215 L28.55235,59.8174027 L28.30228,59.8174027 L28.30228,58.8271403 L28.55235,58.8271403 Z M25.49779,58.8271403 C25.83133,58.8271403 26.09721,58.9468218 26.09721,59.3169165 C26.09721,59.6627935 25.8774745,59.7934282 25.586929,59.8143215 L25.49779,59.8174027 L25.24772,59.8174027 L25.24772,58.8271403 L25.49779,58.8271403 Z M31.63836,58.8271403 C32.00845,58.8271403 32.34709,58.8897011 32.34709,59.2283454 C32.34709,59.6057784 32.014256,59.6459449 31.7179789,59.6500183 L31.38302,59.6504606 L31.38302,58.8271403 L31.63836,58.8271403 Z M65.84015,42.5492669 C65.50457,46.80119 64.3361105,50.8187515 62.4981522,54.43916 L62.23105,54.9536419 L5.76895,54.9536419 C3.86760045,51.3714267 2.62796959,47.3843064 2.21329035,43.1550726 L2.15968,42.5492669 L65.84015,42.5492669 Z M38.61822,46.0897311 L37.59193,46.4191952 L37.59193,47.2080051 L36.83373,47.2080051 L36.83373,47.9585645 L37.59176,47.9585645 L37.59176,49.9652696 C37.59176,50.7464293 38.03614,51.2443656 38.84024,51.2443656 C39.085312,51.2443656 39.2862112,51.2246725 39.4666125,51.1854605 L39.59844,51.1523944 L39.56784,50.3406343 C39.46057,50.4093151 39.28445,50.4477356 39.10068,50.4477356 C38.7456891,50.4477356 38.6374089,50.1882365 38.6206554,49.8879037 L38.61822,49.7967975 L38.61822,47.9585645 L39.52959,47.9585645 L39.52959,47.2080051 L38.61822,47.2080051 L38.61822,46.0897311 Z M48.5503,47.116034 C47.31729,47.116034 46.64324,48.0197652 46.64324,49.1609895 C46.64324,50.3632445 47.29417,51.2441956 48.58855,51.2441956 C48.9396,51.2441956 49.2108444,51.2175147 49.4643609,51.1554954 L49.61484,51.1139739 L49.56894,50.2637933 C49.39282,50.3404643 49.07118,50.4475656 48.78014,50.4475656 C48.06019,50.4475656 47.71543,49.8884286 47.71543,49.1609895 C47.71543,48.4180802 48.12139,47.9126639 48.75702,47.9126639 C49.01882,47.9126639 49.2006964,47.9551644 49.360398,48.0180298 L49.45402,48.0580157 L49.54582,47.2460856 C49.2626,47.1621045 48.96374,47.116034 48.5503,47.116034 Z M51.46801,46.0897311 L50.44155,46.4191952 L50.44155,47.2080051 L49.68352,47.2080051 L49.68352,47.9585645 L50.44172,47.9585645 L50.44172,49.9652696 C50.44172,50.7464293 50.88593,51.2443656 51.6902,51.2443656 C51.935136,51.2443656 52.136008,51.2246725 52.3164038,51.1854605 L52.44823,51.1523944 L52.41763,50.3406343 C52.31036,50.4093151 52.13424,50.4477356 51.95047,50.4477356 C51.5954791,50.4477356 51.4871989,50.1882365 51.4704454,49.8879037 L51.46801,49.7967975 L51.46801,47.9585645 L52.37938,47.9585645 L52.37938,47.2080051 L51.46801,47.2080051 L51.46801,46.0897311 Z M44.37697,47.116204 C44.0027757,47.116204 43.5553912,47.2005111 43.18448,47.3404343 L43.00609,47.4148977 L43.03652,48.2955087 C43.38111,48.0354054 43.81767,47.8665933 44.25423,47.8665933 C44.8160436,47.8665933 45.1005247,48.0515817 45.1382985,48.5869359 L45.14265,48.716774 L44.57604,48.716774 C44.14713,48.716774 43.64155,48.7551944 43.25106,48.9464468 C42.8604,49.1378692 42.57701,49.4828035 42.57701,50.0725409 C42.57701,50.8229303 43.25871,51.2443656 43.95571,51.2443656 C44.376154,51.2443656 44.8339147,51.0457997 45.0942687,50.6879542 L45.17342,50.562827 L45.18872,50.562827 C45.194976,50.6607483 45.1962272,50.847125 45.2160614,51.0236008 L45.23479,51.1525644 L46.13834,51.1525644 C46.11539,50.8462206 46.10009,50.5703071 46.09244,50.2716134 C46.08632,50.0387785 46.0802,49.8010475 46.0779968,49.5113313 L46.07714,48.7779747 C46.07714,47.6139702 45.57938,47.116204 44.37697,47.116204 Z M10.59083,45.7145364 C9.64886,45.7145364 8.72202,46.1511019 8.72202,47.3458768 C8.72202,49.1150889 11.06564,48.6936537 11.06564,49.7123064 C11.06564,50.1949424 10.52181,50.401665 10.11585,50.401665 C9.75477,50.401665 9.3938149,50.3058671 9.06649303,50.1532399 L8.90579,50.0723709 L8.80617,51.037303 C9.33453,51.1675246 9.59497,51.2441956 10.17705,51.2441956 C11.25689,51.2441956 12.18373,50.79998 12.18373,49.6281554 C12.18373,47.8359929 9.84011,48.2266578 9.84011,47.2998062 C9.84011,46.717719 10.31509,46.556897 10.68263,46.556897 C10.982782,46.556897 11.2830428,46.6108624 11.5636543,46.7068688 L11.77012,46.7865698 L11.86991,45.9059588 C11.47925,45.7755672 11.05034,45.7145364 10.59083,45.7145364 Z M14.41957,47.116204 C14.0453757,47.116204 13.5981161,47.2005111 13.2271335,47.3404343 L13.04869,47.4148977 L13.07895,48.2955087 C13.42371,48.0354054 13.86027,47.8665933 14.29683,47.8665933 C14.8586436,47.8665933 15.1431247,48.0515817 15.1808985,48.5869359 L15.18525,48.716774 L14.61847,48.716774 C14.18973,48.716774 13.68432,48.7551944 13.29366,48.9464468 C12.90317,49.1378692 12.61978,49.4828035 12.61978,50.0725409 C12.61978,50.8229303 13.30148,51.2443656 13.99831,51.2443656 C14.418754,51.2443656 14.8766524,51.0457997 15.1370339,50.6879542 L15.21619,50.562827 L15.23149,50.562827 C15.23761,50.6607483 15.238834,50.847125 15.2586628,51.0236008 L15.27739,51.1525644 L16.18111,51.1525644 C16.15799,50.8462206 16.14286,50.5703071 16.13504,50.2716134 C16.12756,49.9805698 16.11974,49.681876 16.11974,49.283561 L16.11974,48.7779747 C16.11974,47.6139702 15.62198,47.116204 14.41957,47.116204 Z M21.30406,47.116034 C20.07853,47.116034 19.4735,48.0580157 19.4735,49.19924 C19.4735,50.4934662 20.2317,51.2441956 21.53373,51.2441956 C22.0064271,51.2441956 22.3890729,51.1655089 22.7250246,51.0127389 L22.88931,50.9302016 L22.88931,50.0951512 C22.5063,50.3096939 22.07756,50.4934662 21.5798,50.4934662 C20.9895721,50.4934662 20.5643952,50.1832956 20.4697808,49.629922 L20.45389,49.4979337 L23.18052,49.4979337 C23.18052,48.1193865 22.76674,47.116034 21.30406,47.116034 Z M54.69937,47.116034 C53.53538,47.116034 52.63931,47.9050138 52.63931,49.2067201 C52.63931,50.3404643 53.39768,51.2441956 54.69937,51.2441956 C56.00922,51.2441956 56.76742,50.3404643 56.76742,49.2067201 C56.76742,47.9050138 55.87135,47.116034 54.69937,47.116034 Z M30.08745,47.116034 C28.92346,47.116034 28.02739,47.9050138 28.02739,49.2067201 C28.02739,50.3404643 28.78542,51.2441956 30.08745,51.2441956 C31.39713,51.2441956 32.1555,50.3404643 32.1555,49.2067201 C32.1555,47.9050138 31.25943,47.116034 30.08745,47.116034 Z M26.55757,45.7145364 C24.74231,45.7145364 23.62422,46.7406693 23.62422,48.5710821 C23.62422,50.3785447 24.82663,51.2441956 26.55757,51.2441956 C26.882202,51.2441956 27.2167348,51.1951261 27.5374935,51.1284091 L27.77511,51.0755534 L27.72921,50.1793022 C27.47659,50.3095239 26.97866,50.401495 26.55757,50.401495 C25.41619,50.401495 24.74231,49.5817448 24.74231,48.4944112 C24.74231,47.3992575 25.43166,46.556727 26.53445,46.556727 C26.8627443,46.556727 27.1796729,46.5960703 27.5191723,46.752052 L27.69096,46.8401205 L27.76746,45.9365592 C27.37697,45.7835573 26.90981,45.7145364 26.55757,45.7145364 Z M18.57029,45.3162215 C17.809115,45.3162215 17.3711226,45.8007773 17.3193469,46.5114462 L17.31416,46.6565182 L17.31416,47.2080051 L16.55596,47.2080051 L16.55596,47.9585645 L17.31433,47.9585645 L17.31433,51.1523944 L18.34045,51.1523944 L18.34045,47.9585645 L19.23652,47.9585645 L19.23652,47.2080051 L18.34045,47.2080051 L18.34045,46.717889 C18.34045,46.4115451 18.44772,46.1128514 18.79248,46.1128514 C18.96996,46.1128514 19.0887968,46.1667081 19.176321,46.2156687 L19.23652,46.2505531 L19.32067,45.4005425 C19.1216,45.3546419 18.83073,45.3162215 18.57029,45.3162215 Z M42.07194,47.116204 C41.5031807,47.116204 41.0993258,47.651087 41.0076478,48.0217757 L40.9921,48.1040863 L40.9768,48.1040863 L40.9768,47.2080051 L40.06543,47.2080051 L40.06543,51.1523944 L41.09172,51.1523944 L41.0918417,49.6115848 C41.0940327,49.0311296 41.1356605,48.0964362 41.92659,48.0964362 C42.07347,48.0964362 42.2205676,48.1161293 42.3206201,48.1514244 L42.3861,48.1807573 L42.3861,47.1468043 C42.27883,47.116204 42.17156,47.116204 42.07194,47.116204 Z M59.40888,47.116204 C58.8399629,47.116204 58.4360966,47.651087 58.3444179,48.0217757 L58.32887,48.1040863 L58.31374,48.1040863 L58.31374,47.2080051 L57.40254,47.2080051 L57.40254,51.1523944 L58.42883,51.1523944 L58.4289517,49.6115848 C58.4311422,49.0311296 58.4727616,48.0964362 59.26353,48.0964362 C59.410546,48.0964362 59.557562,48.1161293 59.6575764,48.1514244 L59.72304,48.1807573 L59.72304,47.1468043 C59.61577,47.116204 59.5085,47.116204 59.40888,47.116204 Z M35.04992,47.116034 C34.567205,47.116034 34.1654576,47.2588306 33.8554597,47.6166761 L33.75554,47.7440218 L33.74024,47.7440218 L33.74024,47.2080051 L32.76767,47.2080051 L32.76767,51.1522244 L33.79396,51.1522244 L33.79396,49.2220203 C33.79396,48.716604 33.95478,47.9124939 34.69768,47.9124939 C35.3150987,47.9124939 35.3604111,48.4847569 35.3636633,48.9536895 L35.36391,51.1522244 L36.3902,51.1522244 L36.3902,48.6630533 C36.3902,47.7746222 35.98424,47.116034 35.04992,47.116034 Z M15.18542,49.3294616 C15.18542,49.6358054 15.13952,49.919029 14.97105,50.1412218 C14.81023,50.3559344 14.56526,50.4936362 14.2511,50.4936362 C13.88356,50.4936362 13.6,50.3479443 13.6,50.0111701 C13.6,49.4466271 14.1936884,49.3420539 14.6465837,49.3306198 L14.74121,49.3294616 L15.18542,49.3294616 Z M45.14282,49.3294616 C45.14282,49.6358054 45.09692,49.919029 44.92828,50.1412218 C44.76746,50.3559344 44.52249,50.4936362 44.20833,50.4936362 C43.84079,50.4936362 43.5574,50.3479443 43.5575699,50.0111701 C43.5575699,49.4466271 44.1512583,49.3420539 44.6040155,49.3306198 L44.69861,49.3294616 L45.14282,49.3294616 Z M54.69937,47.9126639 C55.37325,47.9126639 55.69523,48.479281 55.69523,49.0844886 C55.69523,49.7430768 55.48851,50.4477356 54.69937,50.4477356 C53.91839,50.4477356 53.7115,49.7354267 53.7115,49.0844886 C53.7115,48.4947512 54.03314,47.9126639 54.69937,47.9126639 Z M30.08745,47.9126639 C30.76133,47.9126639 31.08314,48.479281 31.08314,49.0844886 C31.08314,49.7430768 30.87642,50.4477356 30.08745,50.4477356 C29.30647,50.4477356 29.09958,49.7354267 29.09958,49.0844886 C29.09958,48.4947512 29.42139,47.9126639 30.08745,47.9126639 Z M21.36543,47.8664233 C21.8986714,47.8664233 22.1349385,48.2364 22.1904704,48.6877933 L22.20013,48.7932749 L20.45389,48.7932749 C20.49996,48.2647383 20.79083,47.8664233 21.36543,47.8664233 Z M34,8.05923574 C51.64039,8.05923574 65.94062,22.3598145 65.94062,39.999915 C65.94062,40.5952624 65.92413,41.1868698 65.89217,41.7742272 L65.89217,41.7742272 L63.71192,41.7742272 C63.75204,41.1447093 63.7721,40.5117914 63.7721,39.8761535 C63.7721,31.923964 60.67504,24.4477806 55.05195,18.8244503 C49.42886,13.20129 41.95243,10.1043613 34,10.1043613 C26.04757,10.1043613 18.57114,13.20129 12.94805,18.8242803 C7.32496,24.4476106 4.22807,31.923794 4.22807,39.8759834 C4.22807,40.5116214 4.2483,41.1445393 4.28808,41.7742272 L4.28808,41.7742272 L2.10783,41.7742272 C2.0757,41.1866998 2.05938,40.5950924 2.05938,39.999745 C2.05938,22.3598145 16.35961,8.05923574 34,8.05923574 Z M34.91953,13.2638508 C34.91953,13.2638508 35.68436,15.2132652 38.93085,14.8640808 C38.93085,14.8640808 39.808174,19.9733373 38.2829197,22.2033722 C40.1481697,20.4373289 44.9026748,20.3700177 45.3562968,20.367627 L45.39119,20.3675513 C45.58329,23.6275203 47.63281,24.0598357 47.63281,24.0598357 C47.63281,24.0598357 46.01492,25.3899324 47.35027,28.3695596 C47.35027,28.3695596 42.7660857,30.7806528 40.1729856,30.0220037 C42.5416439,31.3157716 44.11245,36.2143077 44.11245,36.2143077 C41.07183,37.4046626 41.29385,39.4871886 41.29385,39.4871886 C41.29385,39.4871886 39.52908,38.3593945 37.10777,40.5503819 L36.9985799,40.4411461 C36.384747,39.8182001 33.3887039,36.6570623 33.3183506,34.2336803 C32.8215765,36.8867254 28.6467198,39.8945137 28.64687,39.8945137 C26.57525,37.3711721 24.66309,38.2262828 24.66309,38.2262828 C24.66309,38.2262828 25.19026,36.1993475 22.35823,34.5737872 C22.35823,34.5737872 24.6467522,29.9344111 27.1883127,29.0197307 C24.511548,29.3596998 20.36702,26.323414 20.36702,26.323414 C22.12703,23.5731197 20.72317,22.0189602 20.72317,22.0189602 C20.72317,22.0189602 22.81434,21.8940087 23.48499,18.6983087 C23.48499,18.6983087 28.6042108,19.4412178 30.2593152,21.5756809 C29.1090797,19.1343066 30.7156,14.2549632 30.7156,14.2549632 C33.87488,15.0794735 34.91953,13.2638508 34.91953,13.2638508 Z M31.80751,30.5690471 C30.99355,33.9891499 28.48469,36.317669 26.87649,37.5037738 C27.33073,37.6843161 27.81251,37.9641396 28.29633,38.3736747 C28.42706,38.4845161 28.55779,38.6045376 28.68886,38.7344192 C28.81653,38.6317379 28.96018,38.5132464 29.11573,38.3811548 C29.70716,37.8789685 30.46434,37.1788997 31.10694,36.4189902 C31.46292,35.998575 31.78303,35.5603095 32.02205,35.1371742 C32.26243,34.7140389 32.41713,34.3090939 32.46949,33.9660296 C32.50519,33.7363567 32.49839,33.5371142 32.45453,33.356062 C32.16383,32.159587 31.95354,31.2373255 31.80751,30.5690471 Z M36.21884,30.3264541 C39.22087,32.157887 40.66026,35.2629758 41.29113,37.1593495 C41.60257,36.7829648 42.01805,36.4113401 42.55678,36.077626 C42.7023,35.9875248 42.857,35.8999737 43.02088,35.8159927 C42.96274,35.6619708 42.89457,35.4890786 42.81688,35.3007163 C42.52227,34.5831373 42.09081,33.6462556 41.56619,32.800495 C41.27668,32.3319691 40.95861,31.8916636 40.63017,31.5341492 C40.30241,31.1747647 39.96462,30.9020813 39.65488,30.7463593 C39.44765,30.641808 39.25572,30.5863873 39.06991,30.5722772 C37.84217,30.478946 36.90003,30.3939449 36.21884,30.3264541 Z M30.5732297,22.0923341 L30.5821733,22.107227 C30.6351158,22.2255596 30.6776296,22.3475252 30.70863,22.4732059 C31.40631,25.3020413 31.79153,26.5454368 31.79153,26.5454368 C31.79153,26.5454368 30.64505,27.1628845 28.16594,28.6915436 C28.0430362,28.7673534 27.9131507,28.8298261 27.7772778,28.8800981 C27.9114081,28.8633585 28.0461674,28.8599451 28.1809,28.8697059 C30.7858041,29.0585489 32.1015819,29.0920226 32.3459353,29.0969272 L32.38806,29.0976787 C32.38806,29.0976787 32.62079,30.3791547 33.30895,33.2096901 C33.343384,33.3513855 33.3626856,33.4956475 33.3682834,33.6418641 C33.392464,33.5074136 33.4311056,33.3768621 33.48252,33.2504906 C34.58072,30.5522169 34.99977,29.3195315 34.99977,29.3195315 C34.99977,29.3195315 36.29007,29.4937837 39.19452,29.7147864 C39.3399938,29.7258052 39.483233,29.7520272 39.6240965,29.7919016 C39.5035519,29.7266279 39.3912251,29.6494722 39.28683,29.5614445 C37.06034,27.683601 36.01773,26.9044813 36.01773,26.9044813 C36.01773,26.9044813 36.5823,25.7307866 37.68934,23.036593 C37.7451747,22.9007379 37.814964,22.7717974 37.8971586,22.6494194 C37.7981123,22.7451217 37.6895674,22.8285296 37.57306,22.9009313 C35.09837,24.4386005 34.03502,25.1894999 34.03502,25.1894999 C34.03502,25.1894999 33.0939,24.2896786 30.87336,22.4046951 C30.7629935,22.3109584 30.6632099,22.2064024 30.5732297,22.0923341 Z M22.09439,23.9005438 C22.06362,24.3884499 21.94632,24.9334767 21.70594,25.519814 C21.64083,25.678426 21.56739,25.840098 21.48426,26.0044901 C21.62128,26.0944212 21.77853,26.1943824 21.95176,26.3018238 C22.61238,26.7093189 23.51185,27.2132052 24.43342,27.5892499 C24.94308,27.7981825 25.4592,27.9671646 25.9352,28.0638958 C26.41137,28.161647 26.84504,28.1842573 27.18725,28.1276466 C27.41658,28.0900761 27.60392,28.0224153 27.76287,27.9246641 C28.81092,27.278486 29.62284,26.7936399 30.2141,26.4476856 C26.70921,26.7303991 23.71925,25.0638683 22.09439,23.9005438 Z M44.67498,21.282681 C44.51093,21.2908411 44.32512,21.3020613 44.1218,21.3175315 C43.34796,21.3755022 42.32422,21.4970537 41.35743,21.7340367 C40.82227,21.8651083 40.30547,22.0313704 39.86347,22.2335029 C39.42096,22.4342754 39.05733,22.6712584 38.81321,22.9177615 C38.6495,23.0828335 38.53781,23.2477356 38.46692,23.4201178 C37.99874,24.559642 37.62661,25.4290329 37.35189,26.0561707 C40.02106,23.7667521 43.4197,23.357557 45.41771,23.3431068 C45.15608,22.9306816 44.93117,22.4210153 44.78021,21.8050976 C44.73941,21.6386655 44.70422,21.4647533 44.67498,21.282681 Z M33.55358,15.1484944 C33.07979,15.2702159 32.52559,15.3269966 31.89336,15.279736 C31.72285,15.2669858 31.54622,15.2467556 31.36415,15.2188752 C31.32131,15.3768072 31.27422,15.5575195 31.22645,15.7552319 C31.04285,16.5095314 30.84157,17.520534 30.76847,18.5136864 C30.72784,19.0624533 30.72631,19.6059501 30.78139,20.0887561 C30.83562,20.5717321 30.94833,20.9907874 31.10762,21.2988312 C31.2137,21.5057238 31.33644,21.6628058 31.47856,21.7836773 C32.41713,22.5809873 33.12892,23.203705 33.64062,23.6584607 C32.28844,20.4122702 32.9494,17.0537082 33.55358,15.1484944 Z M44.82424,15.1850448 C45.31333,15.1850448 45.71164,15.5833598 45.71164,16.0726259 C45.71164,16.561722 45.31333,16.960037 44.82424,16.960037 C44.33498,16.960037 43.93667,16.561722 43.93667,16.0726259 C43.93667,15.5833598 44.33498,15.1850448 44.82424,15.1850448 Z M44.82662,15.3178165 C44.41352,15.3178165 44.10633,15.6472806 44.10633,16.0726259 C44.10633,16.4979712 44.41352,16.8272653 44.82662,16.8272653 C45.23479,16.8272653 45.54198,16.4978012 45.54198,16.0726259 C45.54198,15.6472806 45.23462,15.3178165 44.82662,15.3178165 Z M44.88306,15.5513994 C45.12157,15.5513994 45.23955,15.6471106 45.23955,15.843973 C45.23955,16.0110851 45.13398,16.1314466 44.97163,16.1314466 L45.26658,16.5911324 L45.08706,16.5911324 L44.79687,16.1314466 L44.65441,16.1314466 L44.65441,16.5911324 L44.48475,16.5911324 L44.48475,15.5513994 L44.88306,15.5513994 Z M44.8562,15.6843411 L44.65458,15.6843411 L44.65458,15.998845 L44.8562,15.998845 C44.98659,15.998845 45.07006,15.9718146 45.07006,15.836663 C45.07006,15.7185115 44.96432,15.6843411 44.8562,15.6843411 Z" transform="translate(0 -6)"/>
</svg>
