<svg xmlns="http://www.w3.org/2000/svg" viewBox="0 0 68 68"><path fill="#0181AF" d="M34 0c9.082 0 17.62 3.537 24.042 9.959C64.463 16.38 68 24.919 68 33.999c0 9.082-3.537 17.62-9.958 24.042C51.62 64.463 43.082 68 34 68s-17.62-3.537-24.042-9.959C3.537 51.62 0 43.081 0 34c0-9.082 3.537-17.62 9.958-24.041C16.38 3.537 24.918 0 34 0zm0 1.203c-8.76 0-16.996 3.412-23.19 9.606C4.614 17.004 1.202 25.24 1.202 34c0 8.761 3.412 16.997 9.606 23.192 6.195 6.194 14.43 9.606 23.191 9.606 8.76 0 16.996-3.412 23.19-9.606 6.195-6.195 9.607-14.43 9.607-23.191 0-8.76-3.412-16.996-9.606-23.19C50.996 4.614 42.76 1.202 34 1.202zM8.794 49.73a29.87 29.87 0 006.158 7.027l.558-.67c-2.224-1.853-4.13-3.999-5.68-6.357h48.34a29 29 0 01-5.678 6.356l.558.67a29.865 29.865 0 006.156-7.026h2.6C56.318 59.409 45.922 65.941 34 65.941c-11.76 0-22.037-6.357-27.58-15.821l-.226-.391h2.6zm29.737 12.032l-.46.062.035.265a.594.594 0 00-.545-.232c-.457.061-.619.416-.56.853.057.435.35.706.753.652a.578.578 0 00.406-.23l.054-.087h.006l.01.078c.039.288-.1.448-.394.487a.976.976 0 01-.416-.026l-.097-.03.028.405c.124.026.331.05.574.018.55-.074.82-.28.791-.793l-.012-.124-.173-1.298zm-3.204.332l-.513.01.012.626c.006.319-.1.466-.31.47-.123.002-.213-.068-.238-.273l-.006-.096-.013-.717-.512.01.017.925c.006.307.173.589.578.581.2-.004.377-.076.486-.232l.048-.085h.006l.005.273.467-.009-.027-1.483zm-4.362-.114l-.092 1.48.512.032.038-.625c.02-.319.137-.457.32-.445.123.007.18.103.186.236v.069l-.05.796.512.032.039-.626c.02-.318.137-.456.318-.445.125.007.18.103.187.236v.07l-.05.795.512.032.054-.872c.025-.401-.057-.649-.483-.675a.587.587 0 00-.544.251c-.067-.198-.235-.3-.445-.313-.2-.012-.383.046-.504.193l-.055.08h-.006l.017-.272-.466-.03zm5.327.013l-.132.005c-.295.023-.62.187-.594.528.04.533.753.303.772.552.008.102-.093.127-.198.135a1.24 1.24 0 01-.385-.036l-.102-.03v.374c.153.037.311.048.541.03.335-.024.682-.15.653-.545-.043-.562-.79-.323-.807-.553-.006-.082.117-.112.228-.12a.905.905 0 01.312.033l.093.036.013-.358a1.163 1.163 0 00-.26-.047l-.134-.004zm-7.156-.287l-.132.916c-.045.304.075.61.475.667.198.029.386-.014.518-.15l.062-.076h.005l-.039.27.462.068.213-1.468-.507-.074-.09.62c-.045.316-.173.444-.382.414-.12-.018-.199-.102-.19-.307l.01-.096.103-.71-.508-.074zm10.74-.218a1.08 1.08 0 00-.175.016.434.434 0 00-.347.301l-.026.083h-.005l-.051-.268-.46.088.278 1.457.503-.096-.117-.615c-.054-.285.045-.48.28-.526.04-.007.077-.015.116-.017l.058.001-.055-.424zm-12.309.656c-.098.48.21.834.69.932.09.019.188.028.284.028l.14-.008.065-.376a.7.7 0 01-.327.006c-.218-.045-.382-.235-.334-.467.051-.251.25-.367.467-.323a.58.58 0 01.225.093l.062.05.112-.36a.917.917 0 00-.383-.163c-.48-.098-.902.106-1 .588zm10.567.386c.03.226-.093.397-.274.422-.152.02-.305-.092-.336-.32-.027-.2.05-.38.239-.406.229-.03.35.14.37.304zm2.59-1.26c-.476.117-.77.482-.653.96.117.476.547.664 1.023.547.475-.117.77-.482.653-.958-.118-.478-.548-.666-1.024-.549zm-13.606-.676l-.513 2.073.497.123.514-2.072-.498-.124zm-1.611.243l-.147.006-.09.335a.962.962 0 01.484.03c.177.052.306.147.251.342a1.49 1.49 0 00-.223-.088c-.262-.078-.75-.167-.879.267-.092.308.118.522.399.606.168.05.307.032.444-.059l.082-.063-.023.113-.027.115.45.135c.008-.08.023-.156.042-.231l.031-.113.158-.53c.13-.433-.138-.682-.501-.79a1.802 1.802 0 00-.304-.065l-.147-.01zm15.725 1.108c.053.213.006.427-.224.484-.23.056-.37-.112-.423-.325-.053-.216-.005-.43.224-.486.23-.056.37.112.423.327zm3.229-1.877c-.187.073-.336.206-.387.387l-.017.095-.006.003-.098-.25-.44.173.76 1.938.477-.187-.294-.75c.16.126.364.117.53.052.412-.161.499-.587.34-.996-.132-.334-.484-.615-.865-.465zm-1.193.495l-.488.155.189.597c.097.304.037.475-.164.539-.116.037-.223-.005-.304-.194l-.033-.09-.217-.684-.489.155.28.882c.093.293.334.515.719.393.19-.06.34-.18.4-.361l.022-.096.006-.002.083.26.445-.14-.449-1.414zm-17.542 1.167c.074.022.143.049.205.07-.05.167-.218.301-.403.246-.115-.035-.185-.118-.156-.216.04-.136.187-.15.354-.1zm-1.539-.287l-.152.436.452.157.152-.436-.452-.157zm-6.663-4.624l-.432 1.491.498.326.824-.744.005.004-.378 1.035.498.326 1.186-.99-.287 1.52.526.278.75-.818.005.003-.28 1.066.527.277 1.09-1.098-.144 1.543.55.226.67-.885.005.003-.178 1.088.55.227.985-1.2-.458-.188-.623.898-.006-.002.176-1.083-.569-.235-.644.89-.005-.002.186-1.079-.495-.204-.436-.23-.704.835-.005-.003.276-1.06-.543-.287-.725.824-.005-.003.287-1.055-.471-.25-.415-.27-.78.765-.004-.003.375-1.031-.515-.337-.8.753-.004-.003.385-1.024-.448-.294zm27.312 3.918c.087.22.037.414-.143.484-.16.063-.351-.036-.43-.238-.081-.206-.025-.406.15-.475.186-.072.351.046.423.23zm1.301-.24l-.436.195.189.42.436-.195-.189-.42zm.964-1.552a.92.92 0 00-.402.107c-.438.218-.645.639-.426 1.08.218.438.679.527 1.117.309.082-.04.166-.093.241-.153l.105-.092-.18-.336a.704.704 0 01-.254.205c-.199.1-.446.05-.551-.161-.114-.23-.03-.444.17-.542a.579.579 0 01.234-.066l.08.001-.134-.352zm.81-.548c-.426.243-.608.676-.364 1.103.243.425.709.487 1.134.244.425-.243.607-.675.364-1.1-.244-.428-.71-.49-1.135-.247zm.674.51c.11.19.123.408-.083.526-.205.117-.386-.005-.495-.196-.11-.192-.124-.411.081-.528.205-.118.387.005.497.197zm1.897-2.16a.588.588 0 00-.273.533c-.175-.115-.37-.091-.544.028-.165.113-.273.272-.278.462l.006.098-.004.003-.155-.226-.385.265.84 1.223.422-.29-.354-.516c-.18-.263-.174-.444-.024-.548.103-.07.206-.03.293.071l.042.055.452.657.422-.29-.355-.516c-.18-.263-.173-.444-.023-.547.103-.07.205-.03.293.07l.042.055.452.657.422-.29-.495-.72c-.227-.331-.444-.476-.796-.234zm-15.007-4.67c-1.199 0-1.824.715-1.824 1.882 0 1.157.635 1.882 1.824 1.882 1.188 0 1.824-.725 1.824-1.882 0-1.167-.625-1.881-1.824-1.881zm-3.331.063h-1.73v3.638h.969v-1.439h.203c.332 0 .464.134.638.646l.045.136.208.657h1.011l-.354-.99c-.162-.394-.196-.656-.422-.768l-.094-.035v-.01c.47-.11.699-.433.699-.918 0-.625-.527-.917-1.173-.917zm13.527 0h-1.324v3.638h1.324c1.24 0 2.152-.475 2.152-1.835 0-1.407-.886-1.803-2.152-1.803zm-1.84 0h-2.565v3.638h2.622v-.688h-1.652v-.823h1.506v-.688h-1.506v-.75h1.595v-.689zm-5.505 0h-1.032l1.22 3.638h1.199l1.24-3.638h-.995l-.813 2.856h-.01l-.809-2.856zm-9.836 0h-1.157v3.638h.97v-1.272h.374c.907 0 1.444-.438 1.444-1.172 0-.819-.521-1.194-1.631-1.194zm-3.055 0h-1.157v3.638h.97v-1.272h.375c.907 0 1.444-.438 1.444-1.172 0-.819-.522-1.194-1.632-1.194zm-2.758 0H21.49l-1.38 3.638h.984L21.38 55h1.365l.271.777h1.063l-1.402-3.638zm12.798.657c.589 0 .823.531.823 1.162 0 .6-.234 1.162-.823 1.162-.59 0-.824-.563-.824-1.162 0-.63.235-1.162.824-1.162zm10.217.062c.709 0 1.13.375 1.13 1.1 0 .676-.353 1.048-.99 1.095l-.14.005h-.375v-2.2h.375zm-23.609.032l.433 1.422h-.912l.469-1.422h.01zm6.47-.063c.333 0 .599.12.599.49 0 .346-.22.476-.51.497l-.09.003h-.25v-.99h.25zm-3.055 0c.333 0 .6.12.6.49 0 .346-.22.476-.511.497l-.09.003h-.25v-.99h.25zm6.14 0c.37 0 .71.063.71.401 0 .378-.334.418-.63.422h-.335v-.823h.255zM65.84 36.55a31.74 31.74 0 01-3.342 11.89l-.267.515H5.77a31.734 31.734 0 01-3.556-11.799l-.053-.606h63.68zm-27.222 3.54l-1.026.33v.789h-.758v.75h.758v2.007c0 .781.444 1.28 1.248 1.28.245 0 .446-.02.627-.06l.131-.033-.03-.811c-.107.068-.284.107-.467.107-.355 0-.464-.26-.48-.56l-.003-.091v-1.838h.912v-.751h-.912V40.09zm9.932 1.027c-1.233 0-1.907.904-1.907 2.045 0 1.202.651 2.083 1.946 2.083.35 0 .622-.026.875-.089l.15-.041-.045-.85c-.176.076-.498.184-.789.184-.72 0-1.065-.56-1.065-1.287 0-.743.406-1.248 1.042-1.248.262 0 .444.042.603.105l.094.04.092-.812a3.348 3.348 0 00-.996-.13zm2.918-1.026l-1.026.33v.788h-.758v.75h.758v2.007c0 .781.444 1.28 1.248 1.28.245 0 .446-.02.626-.06l.132-.033-.03-.811c-.108.068-.284.107-.468.107-.355 0-.463-.26-.48-.56l-.002-.091v-1.838h.911v-.751h-.911V40.09zm-7.091 1.026c-.374 0-.822.085-1.193.224l-.178.075.03.88c.345-.26.782-.428 1.218-.428.562 0 .847.185.884.72l.005.13h-.567c-.429 0-.934.038-1.325.23-.39.19-.674.536-.674 1.126 0 .75.682 1.171 1.379 1.171.42 0 .878-.198 1.138-.556l.08-.125h.015c.006.098.007.284.027.46l.019.13h.903a17.433 17.433 0 01-.046-.881c-.006-.233-.012-.471-.014-.76v-.734c0-1.164-.499-1.662-1.701-1.662zm-33.786-1.401c-.942 0-1.869.436-1.869 1.63 0 1.77 2.344 1.349 2.344 2.367 0 .483-.544.69-.95.69a2.51 2.51 0 01-1.05-.249l-.16-.08-.1.964c.529.13.789.207 1.371.207 1.08 0 2.007-.444 2.007-1.616 0-1.792-2.344-1.401-2.344-2.328 0-.582.475-.743.843-.743.3 0 .6.054.88.15l.207.08.1-.881a4.03 4.03 0 00-1.28-.191zm3.829 1.401c-.375 0-.822.085-1.193.224l-.178.075.03.88c.345-.26.781-.428 1.218-.428.562 0 .846.185.884.72l.004.13h-.567c-.428 0-.934.038-1.324.23-.39.19-.674.536-.674 1.126 0 .75.681 1.171 1.378 1.171.42 0 .879-.198 1.139-.556l.08-.125h.014c.007.098.008.284.028.46l.018.13h.904a17.435 17.435 0 01-.046-.881c-.007-.291-.015-.59-.015-.988v-.506c0-1.164-.498-1.662-1.7-1.662zm6.884 0c-1.225 0-1.83.942-1.83 2.083 0 1.294.758 2.045 2.06 2.045.472 0 .855-.078 1.191-.231l.164-.083v-.835c-.383.215-.811.398-1.31.398-.59 0-1.015-.31-1.11-.863l-.015-.132h2.727c0-1.379-.414-2.382-1.877-2.382zm33.395 0c-1.164 0-2.06.789-2.06 2.09 0 1.134.759 2.038 2.06 2.038 1.31 0 2.068-.904 2.068-2.037 0-1.302-.896-2.091-2.068-2.091zm-24.612 0c-1.164 0-2.06.789-2.06 2.09 0 1.134.758 2.038 2.06 2.038 1.31 0 2.069-.904 2.069-2.037 0-1.302-.897-2.091-2.069-2.091zm-3.53-1.401c-1.815 0-2.933 1.026-2.933 2.856 0 1.808 1.203 2.673 2.934 2.673.324 0 .659-.049.98-.116l.237-.052-.046-.897c-.252.13-.75.222-1.171.222-1.142 0-1.816-.82-1.816-1.907 0-1.095.69-1.937 1.792-1.937.329 0 .646.04.985.195l.172.088.076-.903a3.534 3.534 0 00-1.21-.222zm-7.987-.399c-.76 0-1.199.485-1.25 1.195l-.006.146v.551h-.758v.75h.758v3.194h1.026V41.96h.897v-.751h-.897v-.49c0-.306.108-.605.452-.605.178 0 .297.054.384.103l.06.035.085-.85c-.2-.046-.49-.085-.75-.085zm23.502 1.8c-.569 0-.973.535-1.064.906l-.016.082h-.015v-.896h-.912v3.944h1.027v-1.54c.002-.58.044-1.516.835-1.516.146 0 .294.02.394.055l.065.03v-1.034c-.107-.03-.214-.03-.314-.03zm17.337 0c-.569 0-.973.535-1.065.906l-.015.082h-.015v-.896h-.911v3.944h1.026v-1.54c.002-.58.044-1.516.835-1.516.147 0 .294.02.394.055l.065.03v-1.034c-.107-.03-.215-.03-.314-.03zm-24.36 0c-.482 0-.884.143-1.194.5l-.1.128h-.015v-.536h-.972v3.944h1.026v-1.93c0-.505.16-1.31.904-1.31.617 0 .662.573.666 1.042v2.198h1.026v-2.489c0-.888-.406-1.547-1.34-1.547zm-19.864 2.213c0 .307-.045.59-.214.812a.87.87 0 01-.72.353c-.367 0-.651-.146-.651-.483 0-.564.594-.669 1.047-.68l.094-.002h.444zm29.958 0c0 .307-.046.59-.215.812a.87.87 0 01-.72.353c-.367 0-.65-.146-.65-.483 0-.564.593-.669 1.046-.68l.095-.002h.444zm9.556-1.416c.674 0 .996.566.996 1.171 0 .66-.206 1.364-.996 1.364-.78 0-.987-.713-.987-1.364 0-.59.321-1.171.987-1.171zm-24.612 0c.674 0 .996.566.996 1.171 0 .66-.207 1.364-.996 1.364-.78 0-.987-.713-.987-1.364 0-.59.321-1.171.987-1.171zm-8.722-.047c.534 0 .77.37.825.822l.01.105h-1.746c.046-.528.337-.927.911-.927zM34 2.06c17.64 0 31.94 14.3 31.94 31.94 0 .596-.016 1.188-.048 1.775h-2.18c.04-.63.06-1.262.06-1.898 0-7.952-3.097-15.428-8.72-21.052-5.623-5.623-13.1-8.72-21.052-8.72s-15.429 3.097-21.052 8.72c-5.623 5.624-8.72 13.1-8.72 21.052 0 .636.02 1.269.06 1.898h-2.18A32.494 32.494 0 012.059 34C2.06 16.36 16.36 2.06 34 2.06zm.92 5.205s.764 1.95 4.01 1.6c0 0 .878 5.11-.647 7.34 1.865-1.767 6.62-1.834 7.073-1.836h.035c.192 3.26 2.242 3.692 2.242 3.692s-1.618 1.33-.283 4.31c0 0-4.584 2.41-7.177 1.652 2.369 1.294 3.94 6.192 3.94 6.192-3.041 1.19-2.82 3.273-2.82 3.273s-1.764-1.128-4.185 1.063l-.11-.109c-.613-.623-3.61-3.784-3.68-6.207-.496 2.653-4.671 5.66-4.671 5.66-2.072-2.523-3.984-1.668-3.984-1.668s.527-2.027-2.305-3.652c0 0 2.289-4.64 4.83-5.554-2.676.34-6.821-2.697-6.821-2.697 1.76-2.75.356-4.304.356-4.304s2.091-.125 2.762-3.32c0 0 5.12.742 6.774 2.877-1.15-2.442.457-7.321.457-7.321 3.159.824 4.204-.991 4.204-.991zm-3.112 17.305c-.814 3.42-3.323 5.749-4.932 6.935.455.18.937.46 1.42.87.131.11.262.23.393.36.128-.102.271-.22.427-.353.591-.502 1.348-1.202 1.99-1.962.357-.42.677-.859.916-1.282.24-.423.395-.828.447-1.171.036-.23.03-.429-.014-.61-.291-1.196-.501-2.119-.647-2.787zm4.41-.243c3.003 1.832 4.442 4.937 5.073 6.833a5.142 5.142 0 011.266-1.081c.145-.09.3-.178.464-.262a18.44 18.44 0 00-.204-.515c-.295-.718-.726-1.655-1.25-2.5a8.506 8.506 0 00-.937-1.267c-.328-.36-.665-.632-.975-.788-.207-.104-.4-.16-.585-.174-1.228-.093-2.17-.178-2.851-.246zm-5.645-8.234l.01.015c.052.119.095.24.126.366.697 2.829 1.083 4.072 1.083 4.072s-1.147.618-3.626 2.147a2.177 2.177 0 01-.389.188c.134-.017.27-.02.404-.01 2.605.189 3.92.222 4.165.227h.042s.233 1.282.921 4.113c.034.141.054.286.06.432.023-.135.062-.265.114-.392C34.58 24.552 35 23.32 35 23.32s1.29.174 4.195.395c.145.01.288.037.43.077a1.999 1.999 0 01-.338-.23c-2.227-1.878-3.27-2.658-3.27-2.658s.565-1.173 1.672-3.867a2.18 2.18 0 01.208-.388c-.099.096-.207.18-.324.252-2.475 1.538-3.538 2.288-3.538 2.288s-.941-.9-3.162-2.784a2.178 2.178 0 01-.3-.313zm-8.479 1.809a5.123 5.123 0 01-.388 1.619c-.065.158-.139.32-.222.484.137.09.295.19.468.298.66.407 1.56.911 2.481 1.287.51.21 1.026.378 1.502.475.476.098.91.12 1.252.064a1.56 1.56 0 00.576-.203c1.048-.647 1.86-1.131 2.451-1.477-3.505.282-6.495-1.384-8.12-2.547zm22.581-2.618c-.164.008-.35.02-.553.035-.774.058-1.798.18-2.765.416a8.543 8.543 0 00-1.494.5c-.442.2-.806.437-1.05.684a1.55 1.55 0 00-.346.502c-.468 1.14-.84 2.009-1.115 2.636 2.67-2.29 6.068-2.698 8.066-2.713a5.14 5.14 0 01-.638-1.538 6.565 6.565 0 01-.105-.522zM33.554 9.148a5.122 5.122 0 01-1.66.132 6.9 6.9 0 01-.53-.061c-.043.158-.09.339-.138.536-.183.755-.384 1.766-.458 2.759a8.602 8.602 0 00.013 1.575c.055.483.167.902.327 1.21.106.207.228.364.37.485.94.797 1.65 1.42 2.163 1.874-1.353-3.246-.692-6.604-.087-8.51zm11.27.037a.889.889 0 010 1.775.889.889 0 010-1.775zm.003.133c-.413 0-.72.33-.72.755s.307.754.72.754c.408 0 .715-.33.715-.754 0-.426-.307-.755-.715-.755zm.056.233c.239 0 .357.096.357.293 0 .167-.106.287-.268.287l.295.46h-.18l-.29-.46h-.143v.46h-.17v-1.04h.4zm-.027.133h-.201V10h.201c.13 0 .214-.027.214-.162 0-.118-.106-.153-.214-.153z"/></svg>